<svg width="190" height="214" viewBox="0 0 190 214" fill="none" xmlns="http://www.w3.org/2000/svg"><path d="M99.7482 17.3607C97.2495 14.862 93.1989 14.862 90.7002 17.3607L77.5469 30.5127C75.0482 33.0114 75.0482 37.062 77.5469 39.5607C80.0455 42.0594 84.0962 42.0594 86.5949 39.5607L99.7482 26.4087C102.247 23.91 102.247 19.8594 99.7482 17.3607Z" fill="#68A36F"/><path d="M114.603 1.87397C112.104 -0.624694 108.054 -0.624694 105.555 1.87397L103.496 3.93397C100.998 6.4313 100.998 10.4833 103.496 12.9806C105.994 15.4793 110.044 15.4793 112.543 12.9806L114.603 10.922C117.102 8.42329 117.102 4.37264 114.603 1.87397Z" fill="#68A36F"/><path d="M158.894 44.766C156.395 42.2673 152.344 42.2673 149.846 44.766L136.692 57.9193C134.194 60.4166 134.194 64.4673 136.692 66.966C139.191 69.4646 143.242 69.4646 145.74 66.966L158.894 53.8126C161.392 51.3153 161.392 47.2646 158.894 44.766Z" fill="#68A36F"/><path d="M173.748 29.2794C171.25 26.7807 167.199 26.7807 164.702 29.2794L162.642 31.338C160.143 33.8367 160.143 37.8887 162.642 40.3874C165.14 42.886 169.191 42.886 171.688 40.3874L173.748 38.3274C176.247 35.8287 176.247 31.778 173.748 29.2794Z" fill="#68A36F"/><path d="M35.2016 196.225C37.7003 198.725 41.751 198.725 44.2496 196.225L57.4016 183.073C59.9003 180.574 59.9003 176.523 57.4016 174.025C54.903 171.526 50.8523 171.526 48.355 174.025L35.2016 187.177C32.703 189.675 32.703 193.726 35.2016 196.225Z" fill="#68A36F"/><path d="M20.3457 211.713C22.8443 214.212 26.8963 214.212 29.395 211.713L31.4537 209.653C33.9524 207.154 33.9524 203.104 31.4537 200.605C28.955 198.106 24.9044 198.106 22.4057 200.605L20.3457 202.665C17.847 205.164 17.847 209.214 20.3457 211.713Z" fill="#68A36F"/><path d="M158.303 1.87413C155.804 -0.624535 151.754 -0.624535 149.255 1.87413L92.7243 58.4048C90.2257 60.9035 90.2257 64.9541 92.7243 67.4528C95.223 69.9514 99.2737 69.9514 101.772 67.4528L158.303 10.9221C160.802 8.42345 160.802 4.3728 158.303 1.87413Z" fill="#68A36F"/><path d="M182.204 66.9744C179.706 64.4757 175.654 64.4757 173.156 66.9744L116.624 123.505C114.126 126.004 114.126 130.056 116.624 132.554C119.123 135.053 123.175 135.053 125.674 132.554L182.204 76.0224C184.703 73.525 184.703 69.4744 182.204 66.9744Z" fill="#68A36F"/><path d="M67.4535 17.2984C64.9548 14.7998 60.9028 14.7998 58.4042 17.2984L1.8735 73.8304C-0.6245 76.3278 -0.6245 80.3784 1.8735 82.8771C4.37217 85.3758 8.42284 85.3758 10.9215 82.8771L67.4522 26.3464C69.9508 23.8478 69.9508 19.7971 67.4535 17.2984Z" fill="#68A36F"/><path d="M155.188 136.27C152.691 133.771 148.64 133.771 146.142 136.27L89.6096 192.801C87.1109 195.299 87.1109 199.35 89.6096 201.849C92.1083 204.347 96.1589 204.346 98.6576 201.849L155.188 145.318C157.687 142.819 157.687 138.769 155.188 136.27Z" fill="#68A36F"/><path d="M188.011 130.511C185.511 128.013 181.46 128.013 178.962 130.511L122.431 187.042C119.932 189.541 119.932 193.591 122.431 196.09C124.93 198.589 128.98 198.589 131.479 196.09L188.011 139.558C190.508 137.061 190.508 133.009 188.011 130.511Z" fill="#68A36F"/><path d="M39.7615 160.346C37.2628 157.848 33.2122 157.848 30.7135 160.346L17.5615 173.5C15.0628 175.998 15.0628 180.049 17.5615 182.548C20.0602 185.046 24.1108 185.046 26.6095 182.548L39.7615 169.394C42.2602 166.896 42.2602 162.845 39.7615 160.346Z" fill="#68A36F"/><path d="M26.7882 128.577C24.2882 126.078 20.2376 126.078 17.7402 128.577L4.58689 141.729C2.08822 144.228 2.08822 148.28 4.58689 150.778C7.08556 153.277 11.1362 153.277 13.6349 150.778L26.7882 137.625C29.2869 135.126 29.2869 131.076 26.7882 128.577Z" fill="#68A36F"/><path d="M177.003 110.807C177.003 156.129 140.263 192.869 94.9416 192.869C49.6216 192.869 12.8816 156.129 12.8816 110.807C12.8816 65.4875 49.6216 28.7474 94.9416 28.7474C140.263 28.7474 177.003 65.4875 177.003 110.807Z" fill="#E8F0EB"/><path d="M149.996 79.1157C150.38 78.9357 150.52 78.4197 150.307 77.9624L145.448 67.5424C144.777 66.1064 143.752 64.877 142.508 64.025L133.069 57.5517C131.825 56.6983 130.8 55.4704 130.131 54.033L125.959 45.0877L120.677 47.5503L115.397 50.013L119.569 58.9583C120.239 60.3957 120.52 61.9704 120.373 63.4704L119.265 74.8637C119.12 76.3637 119.401 77.9397 120.071 79.3757L124.929 89.7957C125.143 90.253 125.628 90.4784 126.013 90.2997C126.397 90.1197 126.883 90.345 127.095 90.8024L128.159 93.0823C128.372 93.5397 128.233 94.0557 127.848 94.2357C127.464 94.4144 127.324 94.9303 127.537 95.3877L130.756 102.293C130.971 102.75 131.455 102.974 131.84 102.796C132.224 102.616 132.709 102.841 132.923 103.298L133.985 105.58C134.199 106.036 134.06 106.553 133.676 106.732C133.291 106.912 133.151 107.428 133.364 107.885L141.38 125.073C142.633 127.761 145.113 129.681 147.852 129.837C148.835 129.894 149.781 129.668 150.643 129.265L157.328 126.148L164.013 123.03C164.875 122.629 165.657 122.049 166.247 121.26C167.887 119.062 168.009 115.928 166.756 113.24L158.741 96.0517C158.529 95.5943 158.043 95.369 157.659 95.549C157.273 95.7277 156.789 95.5024 156.576 95.045L155.512 92.765C155.3 92.3077 155.439 91.7917 155.823 91.6117C156.208 91.433 156.347 90.917 156.135 90.4597L152.915 83.5543C152.7 83.097 152.216 82.8717 151.831 83.0517C151.447 83.2303 150.961 83.0063 150.749 82.549L149.685 80.269C149.472 79.8104 149.611 79.2943 149.996 79.1157Z" fill="#DEEBE3"/><path d="M149.996 79.1159C150.38 78.936 150.52 78.42 150.307 77.9626L145.448 67.5426C144.778 66.1066 143.752 64.8773 142.508 64.0253L133.07 57.552C131.826 56.6986 130.8 55.4706 130.131 54.0333L125.959 45.088L125.008 45.5306L120.678 47.5506L120.272 47.74L124.444 56.6853C125.114 58.1226 125.434 59.68 125.36 61.1466L124.795 72.2853C124.72 73.752 125.04 75.3093 125.71 76.7466L130.57 87.1666C130.783 87.624 131.235 87.864 131.58 87.7026L143.58 82.108C144.171 81.832 144.874 82.088 145.15 82.6786C145.426 83.2706 145.17 83.9733 144.579 84.2493L133.203 89.5533L133.655 90.52C133.867 90.9773 133.76 91.4786 133.416 91.6386C133.071 91.8 132.964 92.3013 133.178 92.7586L136.396 99.664C136.61 100.12 137.063 100.36 137.408 100.2C137.519 100.148 137.64 100.151 137.762 100.176L149.462 94.7213C150.052 94.444 150.755 94.7 151.031 95.292C151.308 95.884 151.051 96.5866 150.46 96.8626L139.086 102.167L139.482 103.017C139.696 103.473 139.587 103.975 139.243 104.136C138.898 104.297 138.791 104.799 139.004 105.255L147.02 122.444C148.272 125.132 150.619 127.115 153.131 127.376C154.032 127.471 154.89 127.285 155.663 126.925L157.328 126.148L161.659 124.129L164.014 123.031C164.875 122.629 165.658 122.049 166.247 121.26C167.887 119.063 168.01 115.928 166.756 113.24L158.742 96.052C158.53 95.5946 158.043 95.3693 157.659 95.5493C157.274 95.728 156.79 95.5026 156.576 95.0453L155.512 92.7653C155.3 92.308 155.439 91.792 155.823 91.612C156.208 91.4333 156.347 90.9173 156.135 90.46L152.915 83.5546C152.7 83.0973 152.216 82.872 151.831 83.052C151.447 83.2306 150.962 83.0066 150.75 82.5493L149.686 80.268C149.472 79.8106 149.611 79.2946 149.996 79.1159Z" fill="#ECF8F0"/><path d="M122.7 40.0824L113.658 44.2998C112.755 44.7211 112.364 45.7931 112.786 46.6958L115.095 51.6478C115.195 51.8598 115.447 51.9517 115.659 51.8531L127.2 46.4718C127.414 46.3731 127.504 46.1198 127.406 45.9078L125.096 40.9544C124.676 40.0531 123.603 39.6624 122.7 40.0824Z" fill="#40A7B3"/><path d="M51.6349 70.832L35.9562 66.6506L32.0376 94.6333C31.8189 96.0746 32.5736 97.3986 33.7976 97.7253L43.7536 100.38L53.7109 103.036C54.9349 103.361 56.2496 102.588 56.7776 101.231L67.3122 75.012L51.6349 70.832Z" fill="#ECBC84"/><path d="M43.7534 100.38L33.9561 97.7678L33.4321 99.7305L43.2308 102.344L53.0295 104.957L53.5534 102.993L43.7534 100.38Z" fill="#FACC91"/><path d="M70.3268 69.5065L53.2041 64.9412L36.0841 60.3758C35.5628 60.2372 35.0294 60.5452 34.8908 61.0652L33.8228 65.0732C33.6841 65.5932 33.9921 66.1265 34.5121 66.2652L51.6348 70.8318L68.7561 75.3972C69.2761 75.5358 69.8094 75.2265 69.9481 74.7065L71.0174 70.6998C71.1561 70.1798 70.8468 69.6452 70.3268 69.5065Z" fill="#985728"/><path d="M52.8401 70.4051L35.7188 65.8397C35.1988 65.7011 34.8894 65.1664 35.0281 64.6464L36.0961 60.6397L36.2108 60.4091L36.0841 60.3757C35.5628 60.2371 35.0294 60.545 34.8908 61.065L33.8228 65.0731C33.6841 65.5931 33.9921 66.1264 34.5121 66.265L51.6348 70.8317L68.7561 75.397C69.1894 75.513 69.6188 75.3064 69.8348 74.9371L52.8401 70.4051Z" fill="#854C1B"/><path d="M68.6707 66.8159L53.7654 62.8412L38.8601 58.8652C38.4334 58.7519 37.9961 59.0052 37.8814 59.4319L37.5281 60.7599L53.2041 64.9412L68.8827 69.1212L69.2361 67.7946C69.3507 67.3666 69.0974 66.9292 68.6707 66.8159Z" fill="#BD7B34"/><path d="M68.7815 66.8452L56.0349 63.4452L43.2869 60.0466C42.9215 59.9492 42.5349 60.2159 42.4202 60.6426L42.0669 61.9706L55.4749 65.5466L68.8829 69.1212L69.2362 67.7946C69.3509 67.3666 69.1469 66.9426 68.7815 66.8452Z" fill="#CA8B53"/><path d="M40.6268 69.7385L37.3828 92.9038C37.1641 94.3452 37.9188 95.6692 39.1428 95.9958L49.0988 98.6505L56.9695 100.749L66.6428 76.6758L40.6268 69.7385Z" fill="#F8D4A3"/><path d="M139.79 138.345C139.79 138.345 124.279 143.782 123.316 141.837L120.392 135.924C119.787 134.698 119.919 133.253 120.728 132.238C121.555 131.201 121.674 129.716 121.026 128.477L119.015 124.414C118.423 123.146 117.172 122.338 115.846 122.368C114.547 122.394 113.318 121.622 112.712 120.397L109.788 114.484C108.826 112.54 122.56 103.512 122.56 103.512L118.712 95.7318L43.6335 132.868L68.5575 183.258L143.638 146.125L139.79 138.345Z" fill="#41BDA8"/><path d="M64.3975 174.849L66.6601 179.42L141.739 142.286L139.789 138.345C139.789 138.345 137.744 139.061 135.096 139.88L64.3975 174.849Z" fill="#B0E4D5"/><path d="M54.9656 155.777L57.2269 160.349L121.139 128.737L121.026 128.477L119.015 124.415L118.876 124.165L54.9656 155.777Z" fill="#B0E4D5"/><path d="M110.704 116.338L50.2495 146.242L52.5095 150.813L113.011 120.889C112.9 120.734 112.799 120.572 112.712 120.397L110.704 116.338Z" fill="#B0E4D5"/><path d="M120.611 99.5718L45.5322 136.705L47.7936 141.278L118.491 106.309C120.75 104.702 122.56 103.512 122.56 103.512L120.611 99.5718Z" fill="#B0E4D5"/><path d="M120.183 135.388L59.6814 165.313L61.9427 169.885L122.4 139.983L120.392 135.924C120.307 135.749 120.239 135.571 120.183 135.388Z" fill="#B0E4D5"/><path d="M60.0882 118.395L58.6682 116.975L89.7295 85.9147C90.9402 84.7027 90.9402 82.732 89.7295 81.5213L82.6989 74.4907L84.1189 73.0707L91.1495 80.1027C93.1429 82.096 93.1429 85.3387 91.1495 87.3333L60.0882 118.395Z" fill="white"/><path d="M89.5348 86.1081L89.2615 86.3827L90.6815 87.8014L90.9548 87.5267L89.5348 86.1081Z" fill="#E4EDE3"/><path d="M88.7935 86.8502L88.5188 87.1236L89.9388 88.5436L90.2121 88.2689L88.7935 86.8502Z" fill="#E4EDE3"/><path d="M90.1469 85.389L89.9082 85.6944L91.4576 86.9557L91.7029 86.6557L90.1469 85.389Z" fill="#E4EDE3"/><path d="M89.4709 89.012L88.0509 87.592L87.7776 87.8666L89.1963 89.2853L89.4709 89.012Z" fill="#E4EDE3"/><path d="M92.1163 85.9357C92.1723 85.8197 92.2403 85.7063 92.2869 85.5863L90.5203 84.5156C90.4869 84.645 90.455 84.7743 90.4043 84.8983L92.1163 85.9357Z" fill="#E4EDE3"/><path d="M92.5856 84.3306L90.6336 83.6652C90.6349 83.7999 90.6189 83.9319 90.6042 84.0652L92.5429 84.7252C92.5682 84.5946 92.5696 84.4626 92.5856 84.3306Z" fill="#E4EDE3"/><path d="M90.4629 82.7226C90.5069 82.8533 90.5535 82.9826 90.5789 83.116L92.5976 83.2213C92.5856 83.092 92.5829 82.9613 92.5602 82.832L90.4629 82.7226Z" fill="#E4EDE3"/><path d="M108.195 84.7971L106.238 85.2438L96.4469 42.4224C96.0656 40.7531 94.3963 39.7051 92.7283 40.0864L83.0349 42.3024L82.5869 40.3451L92.2802 38.1291C95.0296 37.5011 97.7763 39.2251 98.4043 41.9744L108.195 84.7971Z" fill="white"/><path d="M96.5081 42.6906L96.5947 43.068L98.5521 42.62L98.4654 42.2427L96.5081 42.6906Z" fill="#E4EDE3"/><path d="M96.7429 43.7131L96.8283 44.0905L98.7856 43.6438L98.6989 43.2665L96.7429 43.7131Z" fill="#E4EDE3"/><path d="M96.2256 41.7906C96.2803 41.9066 96.3163 42.0319 96.3576 42.1559L98.2496 41.5132C98.2069 41.3906 98.1736 41.2639 98.1243 41.1452L96.2256 41.7906Z" fill="#E4EDE3"/><path d="M98.9337 44.289L96.9763 44.737L97.063 45.1144L99.0203 44.6664L98.9337 44.289Z" fill="#E4EDE3"/><path d="M97.7363 40.413L97.5297 40.0823L95.6843 41.009L95.947 41.3116L97.7363 40.413Z" fill="#E4EDE3"/><path d="M96.6255 39.161L95.0242 40.4624L95.3468 40.6984L96.9362 39.4077L96.6255 39.161Z" fill="#E4EDE3"/><path d="M94.1335 40.1053C94.2682 40.1373 94.4029 40.1666 94.5295 40.2159L95.6922 38.5626C95.5762 38.504 95.4642 38.4359 95.3415 38.3866L94.1335 40.1053Z" fill="#E4EDE3"/><path d="M80.7775 61.2314L80.5303 61.0642L80.56 60.7673L81.194 54.4436L65.8059 45.8049L64.91 54.0199L71.2532 62.1288L78.741 68.4772H84.9722L85.6748 64.5426L80.7775 61.2314Z" fill="#ECF8F0" stroke="#C3EFF4"/><path d="M81.0576 60.8172L81.2442 58.9612L78.0322 68.5318L78.5576 68.9772H78.7656L81.3962 61.0452L81.0576 60.8172Z" fill="white"/><path d="M80.8788 53.6921L77.7521 51.9374L72.6548 63.9734L75.7521 66.5988C77.1894 62.9734 79.2348 57.8281 80.8788 53.6921Z" fill="white"/><path d="M74.8857 50.328L69.8057 61.0894L70.7764 62.3307L75.8283 50.8574L74.8857 50.328Z" fill="white"/><path d="M110.417 93.7651L110.842 93.6059L111.041 94.0135L111.947 95.8651L123.369 90.928L122.253 88.5415L116.672 89.243L110.508 91.0617L106.58 94.1457L106.875 95.0916L110.417 93.7651Z" fill="#ECF8F0" stroke="#C3EFF4"/><path d="M110.592 94.2333L110.904 94.8693L110.706 90.4813L110.274 90.6093L110.144 90.7106L110.328 94.3319L110.592 94.2333Z" fill="white"/><path d="M112.347 96.2374L114.708 95.2174L115.121 89.1788L112.58 89.9294C112.516 91.7001 112.421 94.2161 112.347 96.2374Z" fill="white"/><path d="M116.871 94.2813L117.569 88.6254L116.676 88.7387L116.16 94.588L116.871 94.2813Z" fill="white"/><path d="M136.084 156.814L136.073 156.823L136.062 156.831L131.996 159.736L138.094 161.771L159.823 148.245L157.351 147.744L152.62 150.186L152.493 150.251L152.35 150.24L145.036 149.645L136.084 156.814Z" fill="#ECF8F0" stroke="#C3EFF4"/><path d="M148.436 149.42L144.879 149.13L145.536 157.728L149.042 155.545C148.826 153.37 148.618 151.25 148.436 149.42Z" fill="white"/><path d="M151.209 149.645L150.412 149.581L151.129 154.244L151.863 153.788L151.209 149.645Z" fill="white"/><path d="M142.059 159.892L143.324 159.104L142.81 150.788L141.766 151.624L142.059 159.892Z" fill="white"/></svg>