<svg width="10" height="10" viewBox="0 0 10 10" fill="none" xmlns="http://www.w3.org/2000/svg"><path d="M2.97916 8.75113C2.875 8.65679 2.82291 8.5451 2.82291 8.41606C2.82291 8.28726 2.875 8.1757 2.97916 8.08136L6.03125 5.31742L2.96875 2.54405C2.87153 2.456 2.82291 2.34595 2.82291 2.21388C2.82291 2.08182 2.875 1.96862 2.97916 1.87429C3.08333 1.77995 3.20666 1.73279 3.34916 1.73279C3.49139 1.73279 3.61458 1.77995 3.71875 1.87429L7.21875 5.05329C7.26041 5.09102 7.29 5.1319 7.3075 5.17592C7.32472 5.21995 7.33333 5.26711 7.33333 5.31742C7.33333 5.36773 7.32472 5.4149 7.3075 5.45892C7.29 5.50294 7.26041 5.54382 7.21875 5.58155L3.70833 8.76056C3.61111 8.8486 3.49139 8.89262 3.34916 8.89262C3.20666 8.89262 3.08333 8.84546 2.97916 8.75113Z" fill="#727272"/></svg>