<svg width="101" height="101" viewBox="0 0 101 101" fill="none" xmlns="http://www.w3.org/2000/svg">
<path d="M96.3437 48.9375C96.3385 44.8626 95.1559 40.8761 92.9383 37.4575C90.7207 34.0389 87.5625 31.3339 83.8437 29.668V28.625C83.8398 24.66 82.5245 20.8077 80.1029 17.6682C77.6812 14.5287 74.2892 12.2783 70.4552 11.2676C66.6212 10.257 62.5605 10.5428 58.9059 12.0806C55.2513 13.6184 52.2079 16.3217 50.25 19.7696C48.292 16.3217 45.2486 13.6184 41.594 12.0806C37.9394 10.5428 33.8788 10.257 30.0448 11.2676C26.2108 12.2783 22.8187 14.5287 20.3971 17.6682C17.9754 20.8077 16.6602 24.66 16.6562 28.625V29.668C12.9345 31.3283 9.7735 34.0312 7.55524 37.4498C5.33698 40.8684 4.15649 44.8564 4.15649 48.9317C4.15649 53.0069 5.33698 56.9949 7.55524 60.4135C9.7735 63.8321 12.9345 66.535 16.6562 68.1953V69.25C16.6602 73.215 17.9754 77.0673 20.3971 80.2068C22.8187 83.3464 26.2108 85.5967 30.0448 86.6074C33.8788 87.6181 37.9394 87.3322 41.594 85.7945C45.2486 84.2567 48.292 81.5533 50.25 78.1055C52.2079 81.5533 55.2513 84.2567 58.9059 85.7945C62.5605 87.3322 66.6212 87.6181 70.4552 86.6074C74.2892 85.5967 77.6812 83.3464 80.1029 80.2068C82.5245 77.0673 83.8398 73.215 83.8437 69.25V68.1953C87.5625 66.5326 90.721 63.83 92.9389 60.4132C95.1567 56.9963 96.3391 53.011 96.3437 48.9375ZM34.625 82.5313C31.1731 82.5329 27.8563 81.1907 25.3771 78.7888C22.898 76.3869 21.4513 73.1142 21.3437 69.6641C22.6315 69.9082 23.9393 70.0312 25.25 70.0313H28.375C28.9966 70.0313 29.5927 69.7843 30.0322 69.3448C30.4718 68.9053 30.7187 68.3091 30.7187 67.6875C30.7187 67.0659 30.4718 66.4698 30.0322 66.0302C29.5927 65.5907 28.9966 65.3438 28.375 65.3438H25.25C21.3775 65.3469 17.6286 63.9801 14.6669 61.4852C11.7051 58.9904 9.72137 55.5282 9.06661 51.7115C8.41186 47.8947 9.12832 43.9693 11.0892 40.63C13.0501 37.2906 16.1291 34.7526 19.7812 33.4649C20.2384 33.3032 20.6341 33.0038 20.914 32.6078C21.1938 32.2118 21.344 31.7388 21.3437 31.2539V28.625C21.3437 25.1026 22.743 21.7245 25.2337 19.2338C27.7244 16.743 31.1026 15.3438 34.625 15.3438C38.1474 15.3438 41.5255 16.743 44.0162 19.2338C46.5069 21.7245 47.9062 25.1026 47.9062 28.625V57.1602C46.225 55.308 44.1748 53.8282 41.8875 52.8157C39.6002 51.8032 37.1264 51.2805 34.625 51.2813C34.0034 51.2813 33.4072 51.5282 32.9677 51.9677C32.5282 52.4073 32.2812 53.0034 32.2812 53.625C32.2812 54.2466 32.5282 54.8428 32.9677 55.2823C33.4072 55.7218 34.0034 55.9688 34.625 55.9688C38.1474 55.9688 41.5255 57.368 44.0162 59.8588C46.5069 62.3495 47.9062 65.7276 47.9062 69.25C47.9062 72.7724 46.5069 76.1506 44.0162 78.6413C41.5255 81.132 38.1474 82.5313 34.625 82.5313ZM75.25 65.3438H72.125C71.5034 65.3438 70.9072 65.5907 70.4677 66.0302C70.0282 66.4698 69.7812 67.0659 69.7812 67.6875C69.7812 68.3091 70.0282 68.9053 70.4677 69.3448C70.9072 69.7843 71.5034 70.0313 72.125 70.0313H75.25C76.5607 70.0312 77.8685 69.9082 79.1562 69.6641C79.0749 72.2717 78.2274 74.7976 76.7194 76.9265C75.2115 79.0555 73.11 80.6932 70.6771 81.6352C68.2443 82.5772 65.5878 82.7819 63.0394 82.2236C60.491 81.6653 58.1634 80.3689 56.3471 78.496C54.5309 76.6232 53.3065 74.2569 52.8267 71.6925C52.3469 69.1282 52.633 66.4793 53.6493 64.0765C54.6655 61.6737 56.3669 59.6234 58.5411 58.1815C60.7154 56.7396 63.2661 55.97 65.875 55.9688C66.4966 55.9688 67.0927 55.7218 67.5323 55.2823C67.9718 54.8428 68.2187 54.2466 68.2187 53.625C68.2187 53.0034 67.9718 52.4073 67.5323 51.9677C67.0927 51.5282 66.4966 51.2813 65.875 51.2813C63.3736 51.2805 60.8997 51.8032 58.6124 52.8157C56.3251 53.8282 54.2749 55.308 52.5937 57.1602V28.625C52.5937 25.1026 53.993 21.7245 56.4837 19.2338C58.9744 16.743 62.3526 15.3438 65.875 15.3438C69.3974 15.3438 72.7755 16.743 75.2662 19.2338C77.7569 21.7245 79.1562 25.1026 79.1562 28.625V31.2539C79.156 31.7388 79.3061 32.2118 79.586 32.6078C79.8658 33.0038 80.2616 33.3032 80.7187 33.4649C84.3709 34.7526 87.4498 37.2906 89.4107 40.63C91.3716 43.9693 92.0881 47.8947 91.4333 51.7115C90.7786 55.5282 88.7948 58.9904 85.833 61.4852C82.8713 63.9801 79.1225 65.3469 75.25 65.3438ZM80.7187 44.25C80.7187 44.8716 80.4718 45.4678 80.0323 45.9073C79.5927 46.3468 78.9966 46.5938 78.375 46.5938H76.8125C73.2901 46.5938 69.9119 45.1945 67.4212 42.7038C64.9305 40.2131 63.5312 36.8349 63.5312 33.3125V31.75C63.5312 31.1284 63.7781 30.5323 64.2177 30.0927C64.6572 29.6532 65.2534 29.4063 65.875 29.4063C66.4966 29.4063 67.0927 29.6532 67.5323 30.0927C67.9718 30.5323 68.2187 31.1284 68.2187 31.75V33.3125C68.2187 35.5917 69.1241 37.7776 70.7358 39.3892C72.3474 41.0009 74.5333 41.9063 76.8125 41.9063H78.375C78.9966 41.9063 79.5927 42.1532 80.0323 42.5927C80.4718 43.0323 80.7187 43.6284 80.7187 44.25ZM23.6875 46.5938H22.125C21.5034 46.5938 20.9072 46.3468 20.4677 45.9073C20.0282 45.4678 19.7812 44.8716 19.7812 44.25C19.7812 43.6284 20.0282 43.0323 20.4677 42.5927C20.9072 42.1532 21.5034 41.9063 22.125 41.9063H23.6875C25.9667 41.9063 28.1525 41.0009 29.7642 39.3892C31.3758 37.7776 32.2812 35.5917 32.2812 33.3125V31.75C32.2812 31.1284 32.5282 30.5323 32.9677 30.0927C33.4072 29.6532 34.0034 29.4063 34.625 29.4063C35.2466 29.4063 35.8427 29.6532 36.2822 30.0927C36.7218 30.5323 36.9687 31.1284 36.9687 31.75V33.3125C36.9687 36.8349 35.5695 40.2131 33.0787 42.7038C30.588 45.1945 27.2099 46.5938 23.6875 46.5938Z" fill="#68A36F"/>
</svg>
