<svg width="20" height="20" viewBox="0 0 20 20" fill="none" xmlns="http://www.w3.org/2000/svg">
<path d="M8.33335 6.66667C8.33335 4.825 8.33335 3.90333 8.91835 3.28833C9.01169 3.18944 9.11446 3.09861 9.22669 3.01583C9.92335 2.5 10.9667 2.5 13.0559 2.5H13.6109C15.6992 2.5 16.7434 2.5 17.44 3.01667C17.5517 3.09889 17.6545 3.18944 17.7484 3.28833C18.3334 3.90333 18.3334 4.82417 18.3334 6.66667C18.3334 8.50833 18.3334 9.43 17.7484 10.045C17.6532 10.1442 17.5501 10.2353 17.44 10.3175C16.8084 10.7858 15.89 10.8292 14.1667 10.8325M1.66669 12.5H11.6667M8.33335 5.83333H18.3334M1.66669 7.5C1.66669 4.73583 3.90252 2.5 6.66669 2.5L5.95252 3.92833M18.3334 12.5C18.3334 15.2642 16.0975 17.5 13.3334 17.5L14.0475 16.0717M1.66669 13.3333C1.66669 15.175 1.66669 16.0967 2.25169 16.7117C2.34558 16.8106 2.44835 16.9014 2.56002 16.9842C3.25669 17.5 4.30002 17.5 6.38919 17.5H6.94419C9.03252 17.5 10.0767 17.5 10.7734 16.9833C10.885 16.9017 10.9878 16.8111 11.0817 16.7117C11.6667 16.0967 11.6667 15.1758 11.6667 13.3333C11.6667 11.4917 11.6667 10.57 11.0817 9.955C10.9866 9.85585 10.8834 9.76471 10.7734 9.6825C10.0767 9.16667 9.03335 9.16667 6.94419 9.16667H6.38919C4.30085 9.16667 3.25669 9.16667 2.56002 9.68333C2.44996 9.76527 2.34684 9.85614 2.25169 9.955C1.66669 10.57 1.66669 11.4908 1.66669 13.3333Z" stroke="#4F4F4F" stroke-width="1.5" stroke-linecap="round" stroke-linejoin="round"/>
</svg>
