<svg width="30" height="30" viewBox="0 0 30 30" fill="none" xmlns="http://www.w3.org/2000/svg"><path d="M12.5 10C12.5 7.2375 12.5 5.855 13.3775 4.9325C13.5175 4.78417 13.6717 4.64792 13.84 4.52375C14.885 3.75 16.45 3.75 19.5837 3.75H20.4163C23.5488 3.75 25.115 3.75 26.16 4.525C26.3275 4.64833 26.4817 4.78417 26.6225 4.9325C27.5 5.855 27.5 7.23625 27.5 10C27.5 12.7625 27.5 14.145 26.6225 15.0675C26.4798 15.2162 26.3251 15.3529 26.16 15.4762C25.2125 16.1787 23.835 16.2437 21.25 16.2487M2.5 18.75H17.5M12.5 8.75H27.5M2.5 11.25C2.5 7.10375 5.85375 3.75 10 3.75L8.92875 5.8925M27.5 18.75C27.5 22.8962 24.1462 26.25 20 26.25L21.0713 24.1075M2.5 20C2.5 22.7625 2.5 24.145 3.3775 25.0675C3.51833 25.2158 3.6725 25.3521 3.84 25.4763C4.885 26.25 6.45 26.25 9.58375 26.25H10.4163C13.5488 26.25 15.115 26.25 16.16 25.475C16.3275 25.3525 16.4817 25.2167 16.6225 25.0675C17.5 24.145 17.5 22.7637 17.5 20C17.5 17.2375 17.5 15.855 16.6225 14.9325C16.4798 14.7838 16.3251 14.6471 16.16 14.5238C15.115 13.75 13.55 13.75 10.4163 13.75H9.58375C6.45125 13.75 4.885 13.75 3.84 14.525C3.67491 14.6479 3.52022 14.7842 3.3775 14.9325C2.5 15.855 2.5 17.2363 2.5 20Z" stroke="black" stroke-width="1.5" stroke-linecap="round" stroke-linejoin="round"/></svg>