<svg width="101" height="101" viewBox="0 0 101 101" fill="none" xmlns="http://www.w3.org/2000/svg">
<path d="M41.9168 33.8333C41.9168 24.625 41.9168 20.0167 44.8418 16.9417C45.3085 16.4472 45.8224 15.9931 46.3835 15.5792C49.8668 13 55.0835 13 65.5293 13H68.3043C78.746 13 83.9668 13 87.4502 15.5833C88.0085 15.9944 88.5224 16.4472 88.9918 16.9417C91.9168 20.0167 91.9168 24.6208 91.9168 33.8333C91.9168 43.0417 91.9168 47.65 88.9918 50.725C88.5163 51.2208 88.0006 51.6765 87.4502 52.0875C84.2918 54.4292 79.7002 54.6458 71.0835 54.6625M8.5835 63H58.5835M41.9168 29.6667H91.9168M8.5835 38C8.5835 24.1792 19.7627 13 33.5835 13L30.0127 20.1417M91.9168 63C91.9168 76.8208 80.7377 88 66.9168 88L70.4877 80.8583M8.5835 67.1667C8.5835 76.375 8.5835 80.9833 11.5085 84.0583C11.9779 84.5528 12.4918 85.0069 13.0502 85.4208C16.5335 88 21.7502 88 32.196 88H34.971C45.4127 88 50.6335 88 54.1168 85.4167C54.6752 85.0083 55.1891 84.5556 55.6585 84.0583C58.5835 80.9833 58.5835 76.3792 58.5835 67.1667C58.5835 57.9583 58.5835 53.35 55.6585 50.275C55.1829 49.7792 54.6673 49.3235 54.1168 48.9125C50.6335 46.3333 45.4168 46.3333 34.971 46.3333H32.196C21.7543 46.3333 16.5335 46.3333 13.0502 48.9167C12.4999 49.3264 11.9842 49.7807 11.5085 50.275C8.5835 53.35 8.5835 57.9542 8.5835 67.1667Z" stroke="#68A36F" stroke-width="3" stroke-linecap="round" stroke-linejoin="round"/>
</svg>
