 <svg width="30" height="30" viewBox="0 0 30 30" fill="none" xmlns="http://www.w3.org/2000/svg" > <path d="M6.25 18.75C6.25 13.9175 10.0275 10 14.6875 10H15.3125C19.9725 10 23.75 13.9175 23.75 18.75C23.75 23.5825 19.9725 27.5 15.3125 27.5H14.6875C10.0275 27.5 6.25 23.5825 6.25 18.75Z" stroke="#EFBF04" stroke-width="2" stroke-linecap="round" stroke-linejoin="round" /> <path d="M15.625 22.5V16.185C15.625 15.4675 15.625 15.1075 15.3375 15.0188C14.7038 14.8225 13.75 16.2487 13.75 16.2487M15.625 22.5L13.75 22.4988M15.625 22.5L17.5 22.4988M16.95 2.5L13.75 9.8725M22.5 2.5L18.9737 10.625M13.05 2.5L15 6.9925M7.5 2.5L11.0263 10.625" stroke="#EFBF04" stroke-width="2" stroke-linecap="round" stroke-linejoin="round" /> </svg>