<svg width="404" height="438" viewBox="0 0 404 438" fill="none" xmlns="http://www.w3.org/2000/svg">
<path d="M382.918 222.861C378.779 223.866 367.364 220.532 354.291 216.279C354.096 216.216 353.871 216.147 353.642 216.081C353.094 215.896 352.509 215.709 351.928 215.521C351.38 215.336 350.795 215.148 350.186 214.921C333.361 209.429 314.832 203.114 305.552 202.837C288.146 202.327 276.22 209.314 244.594 213.712L232.002 193.297L222.497 177.885L221.922 146.259L240.132 138.691L242.136 137.861L260.864 130.04L279.905 135.499L285.146 136.995C285.146 136.995 295.832 133.984 304.268 132.699C308.037 132.106 311.335 131.905 313.05 132.468C313.373 132.583 313.662 132.695 313.867 132.893C313.958 132.972 314.045 133.054 314.136 133.133C314.169 133.14 314.169 133.14 314.196 133.176C314.711 133.588 315.36 133.987 316.251 134.389C322.199 137.225 339.43 141.211 401.81 151.457C403.189 153.068 403.791 156.359 403.75 160.688C403.612 180.231 390.913 220.907 382.918 222.861Z" fill="url(#paint0_linear_460_863)"/>
<path d="M350.183 214.918C333.358 209.426 314.829 203.111 305.549 202.834C288.143 202.323 276.217 209.311 244.591 213.709L232 193.293C233.855 177.272 236.811 154.518 240.133 138.688L260.861 130.037L279.902 135.496L290.879 152.133C301.961 169.62 303.744 162.856 293.717 176.334C283.725 189.818 292.527 197.388 303.505 198.759C313.514 200.014 337.521 210.428 350.183 214.918Z" fill="url(#paint1_linear_460_863)"/>
<path d="M263.043 111.793L267.354 253.292C267.922 271.932 252.956 287.495 233.933 288.052L173.439 289.821C168.5 289.966 163.762 289.083 159.472 287.363C147.213 282.481 138.417 270.874 137.997 257.077L133.687 115.578C133.656 114.524 133.724 113.466 133.825 112.409C133.909 111.878 134.03 111.381 134.147 110.85C134.205 110.518 134.262 110.221 134.386 109.888C134.534 109.259 134.753 108.627 134.968 108.027C135.001 108.027 135.001 107.994 135.001 107.994C135.22 107.395 135.506 106.825 135.788 106.258C135.882 106.024 136.01 105.823 136.138 105.622C136.424 105.052 136.777 104.482 137.163 103.945L145.599 87.1865L148.202 82.034L170.248 38.3432C170.278 38.2773 170.309 38.1784 170.342 38.1093L178.876 21.2154L212.182 20.2402L246.504 79.1546L249.416 84.1457L258.857 100.381C260.78 102.795 262.078 105.658 262.707 108.64C262.878 109.687 263.013 110.738 263.043 111.793Z" fill="url(#paint2_linear_460_863)"/>
<path d="M159.475 287.363C147.216 282.48 138.421 270.874 138 257.077L133.69 115.578C133.66 114.524 133.727 113.466 133.828 112.409C133.912 111.878 134.033 111.381 134.151 110.85C134.208 110.518 134.265 110.221 134.389 109.888C134.537 109.259 134.756 108.626 134.971 108.027C135.005 108.027 135.005 107.994 135.005 107.994C135.223 107.394 135.509 106.824 135.791 106.258C135.885 106.024 136.013 105.823 136.141 105.622C136.427 105.052 136.78 104.482 137.166 103.945L145.602 87.1863L148.205 82.0338L170.251 38.343C162.861 55.2039 156.167 68.4509 151.16 81.9449C150.505 83.6448 149.92 85.3447 149.331 87.0743C146.712 94.9282 144.705 103.029 143.501 112.129C142.052 123.079 141.756 135.45 142.96 150.607C143.118 152.515 143.313 154.452 143.508 156.458C144.711 168.322 144.994 180.936 145.182 193.718C145.619 227.882 145.28 263.027 159.475 287.363Z" fill="url(#paint3_linear_460_863)"/>
<path d="M263.043 111.793L267.354 253.292C267.922 271.932 252.957 287.495 233.933 288.052L232.252 288.101L227.629 136.396L219.643 111.678L219.051 109.915L211.103 85.2628L209.469 80.2355L190.271 20.8763L212.182 20.2339L246.504 79.1483L249.416 84.1394L258.857 100.374C260.781 102.789 262.078 105.652 262.707 108.633C262.879 109.688 263.013 110.739 263.043 111.793Z" fill="url(#paint4_linear_460_863)"/>
<path d="M216.22 4.7267L216.54 15.2327C216.624 17.9341 214.468 20.171 211.715 20.2534L179.35 21.1989C176.593 21.2779 174.31 19.1695 174.229 16.4714L173.909 5.9654C173.829 3.29691 175.977 1.02706 178.734 0.947995L211.099 0.00248306C213.853 -0.0831723 216.139 2.0582 216.22 4.7267Z" fill="url(#paint5_linear_460_863)"/>
<path d="M216.22 4.7267L216.539 15.2327C216.624 17.9341 214.468 20.171 211.715 20.2534L191.753 20.8365C189.029 20.9156 186.746 18.8071 186.662 16.109L186.343 5.60301C186.262 2.93452 188.414 0.664671 191.134 0.585605L211.096 0.00248306C213.853 -0.0831723 216.139 2.05821 216.22 4.7267Z" fill="url(#paint6_linear_460_863)"/>
<path d="M262.949 108.631L265.434 190.198L136.077 193.983L133.593 112.416L262.949 108.631Z" fill="url(#paint7_linear_460_863)"/>
<path d="M264.119 147.059L265.434 190.197L136.077 193.982L134.763 150.845L264.119 147.059Z" fill="url(#paint8_linear_460_863)"/>
<path d="M229.307 191.258L265.437 190.2L262.953 108.626L219.428 109.898L229.307 191.258Z" fill="url(#paint9_linear_460_863)"/>
<path d="M266.574 227.566L137.217 231.348L137.063 226.261L266.416 222.479L266.574 227.566Z" fill="url(#paint10_linear_460_863)"/>
<path d="M249.419 84.1419L145.606 87.1795L148.205 82.0269L246.508 79.1509L249.419 84.1419Z" fill="url(#paint11_linear_460_863)"/>
<path d="M316.261 134.287L316.244 134.386L314.765 139.43L305.368 171.708C278.177 155.842 274.277 134.247 274.277 134.247C274.277 134.247 260.542 138.896 250.062 138.701C247.143 138.659 244.504 138.355 242.13 137.861C236.031 136.636 231.919 134.01 230.187 130.347C229.831 129.592 230.133 128.538 230.944 127.296C230.981 127.27 230.994 127.204 231.031 127.177C233.005 124.176 237.699 120.088 243.394 116.355C244.457 115.65 245.563 114.919 246.686 114.257C252.032 111.002 257.882 108.225 262.959 106.894C265.484 106.212 267.811 105.899 269.795 106.063C282.299 107.029 297.823 123.323 313.047 132.472C313.42 132.696 313.793 132.92 314.133 133.137C314.167 133.144 314.167 133.144 314.193 133.18C314.883 133.546 315.572 133.915 316.261 134.287Z" fill="url(#paint12_linear_460_863)"/>
<path d="M242.876 123.069C238.431 125.994 234.736 128.498 231.034 127.171C233.008 124.169 237.702 120.081 243.397 116.348C244.46 115.643 245.566 114.912 246.689 114.25C247.466 114.935 248.158 115.706 248.42 116.414C249.164 118.391 247.704 119.87 242.876 123.069Z" fill="url(#paint13_linear_460_863)"/>
<path opacity="0.25" d="M403.747 160.682C388.217 153.889 357.149 153.701 333.674 147.033C326.247 144.938 320.064 142.299 314.768 139.426C310.851 137.298 307.405 135.005 304.264 132.696C296.847 127.102 291.276 121.254 285.641 116.431C276.738 108.844 271.997 106.755 262.959 106.884C265.484 106.202 267.811 105.889 269.794 106.054C282.299 107.019 297.822 123.313 313.047 132.462C313.369 132.577 313.659 132.689 313.864 132.887C313.954 132.966 314.042 133.048 314.133 133.127C314.166 133.134 314.166 133.134 314.193 133.17C314.882 133.542 315.572 133.915 316.261 134.284L316.244 134.383C322.192 137.219 339.424 141.205 401.804 151.451C403.182 153.062 403.784 156.353 403.747 160.682Z" fill="white"/>
<path d="M278.136 144.332C281.498 157.832 313.571 177.411 313.571 177.411C313.571 177.411 302.953 176.482 293.72 170.654C284.484 164.82 278.136 144.332 278.136 144.332Z" fill="url(#paint14_linear_460_863)"/>
<path d="M361.798 424.939L289.996 437.458C288.836 437.659 287.713 436.967 287.394 435.857L255.304 323.787C254.941 322.512 255.775 321.207 257.107 320.976L351.657 304.491C352.988 304.26 354.232 305.203 354.337 306.52L363.674 422.557C363.771 423.707 362.957 424.738 361.798 424.939Z" fill="url(#paint15_linear_460_863)"/>
<path d="M329.31 407.89L292.08 285.857C288.963 275.645 292.682 264.612 301.39 258.22L335.48 233.209" stroke="#366F40" stroke-width="2.7207" stroke-miterlimit="10" stroke-linecap="round" stroke-linejoin="round"/>
<path opacity="0.45" d="M361.798 424.939L289.996 437.458C288.836 437.659 287.713 436.967 287.394 435.857L255.304 323.787C254.941 322.512 255.775 321.207 257.107 320.976L351.657 304.491C352.988 304.26 354.232 305.203 354.337 306.52L363.674 422.557C363.771 423.707 362.957 424.738 361.798 424.939Z" fill="url(#paint16_linear_460_863)"/>
<path d="M354.333 306.501L363.656 422.547C363.774 423.71 362.937 424.721 361.766 424.926L333.308 429.887C334.435 429.69 335.272 428.678 335.154 427.518L325.831 311.472C325.733 310.167 324.499 309.245 323.147 309.482L351.653 304.511C352.957 304.284 354.238 305.196 354.333 306.501Z" fill="url(#paint17_linear_460_863)"/>
<path d="M358.236 305.775L251.377 324.409C249.891 324.669 248.563 323.489 248.711 322.007L249.4 314.285L250.187 305.317C250.287 304.342 251.017 303.489 252.053 303.308L350.177 286.2C351.213 286.019 352.241 286.569 352.635 287.455L356.575 295.599L359.941 302.613C360.556 303.96 359.722 305.515 358.236 305.775Z" fill="url(#paint18_linear_460_863)"/>
<path d="M358.236 305.775L251.377 324.409C249.891 324.669 248.563 323.49 248.711 322.007L249.4 314.285L356.575 295.599L359.941 302.613C360.556 303.96 359.722 305.515 358.236 305.775Z" fill="url(#paint19_linear_460_863)"/>
<path d="M289.754 405.759C287.871 406.256 285.931 405.163 285.423 403.318L269.94 347.019C269.432 345.174 270.548 343.273 272.431 342.776C274.314 342.278 276.254 343.372 276.762 345.217L292.245 401.512C292.753 403.36 291.64 405.261 289.754 405.759Z" fill="white"/>
<path d="M164.374 369.029C158.517 384.964 126.62 387.863 117.942 395.602C109.264 403.337 87.0726 432.315 65.5608 427.617C58.5774 426.085 52.6295 424.112 47.7711 421.341C37.654 415.546 32.3954 406.223 33.1317 390.06C34.2043 366.212 29.8603 327.572 26.0979 309.966C22.2952 292.321 0 262.273 0 262.273C10.5743 247.546 17.1912 246.871 22.86 247.639C28.4885 248.363 32.6072 278.063 47.2062 281.509C61.8085 284.955 77.1707 276.985 77.9104 264.012C78.6501 251.078 72.4837 233.466 73.2536 230.382C74.0236 227.299 94.1266 222.015 98.0806 223.955C102.035 225.895 103.46 239.706 107.176 254.396C109.085 261.923 117.283 278.534 126.687 294.469C135.634 309.551 145.579 324.112 152.24 329.782C165.958 341.454 170.235 353.094 164.374 369.029Z" fill="url(#paint20_linear_460_863)"/>
<path d="M109.942 310.341C105.857 331.867 64.6729 375.133 68.5093 379.182C72.3456 383.231 102.498 381.85 107.787 366.762C113.079 351.677 109.942 310.341 109.942 310.341Z" fill="url(#paint21_linear_460_863)"/>
<path d="M164.374 369.029C158.517 384.964 126.619 387.863 117.941 395.602C109.263 403.337 87.0725 432.315 65.5607 427.617C58.5773 426.085 52.6295 424.112 47.771 421.341C71.6733 426.365 85.8654 422.379 95.152 409.399C106.416 393.701 104.916 381.802 125.88 377.387C146.847 372.933 152.062 350.392 146.541 342.614C141.06 334.797 127.396 337.686 125.389 327.404C124.091 320.858 127.097 309.321 126.687 294.473C135.634 309.555 145.579 324.116 152.24 329.786C165.958 341.455 170.235 353.094 164.374 369.029Z" fill="url(#paint22_linear_460_863)"/>
<defs>
<linearGradient id="paint0_linear_460_863" x1="328.751" y1="175.401" x2="111.422" y2="210.262" gradientUnits="userSpaceOnUse">
<stop offset="0.0056" stop-color="#FFB7A1"/>
<stop offset="1" stop-color="#ED6D4F"/>
</linearGradient>
<linearGradient id="paint1_linear_460_863" x1="398.623" y1="158.14" x2="107.033" y2="204.914" gradientUnits="userSpaceOnUse">
<stop offset="0.0056" stop-color="#FFB7A1"/>
<stop offset="1" stop-color="#ED6D4F"/>
</linearGradient>
<linearGradient id="paint2_linear_460_863" x1="716.896" y1="318.825" x2="-41.7848" y2="73.3464" gradientUnits="userSpaceOnUse">
<stop stop-color="#89C791"/>
<stop offset="1" stop-color="white"/>
</linearGradient>
<linearGradient id="paint3_linear_460_863" x1="374.313" y1="159.026" x2="88.3522" y2="164.464" gradientUnits="userSpaceOnUse">
<stop stop-color="#89C791"/>
<stop offset="1" stop-color="white"/>
</linearGradient>
<linearGradient id="paint4_linear_460_863" x1="411.876" y1="137.973" x2="16.5165" y2="172.021" gradientUnits="userSpaceOnUse">
<stop stop-color="#89C791"/>
<stop offset="1" stop-color="white"/>
</linearGradient>
<linearGradient id="paint5_linear_460_863" x1="172.263" y1="43.9827" x2="209.449" y2="-12.3187" gradientUnits="userSpaceOnUse">
<stop stop-color="#89C791"/>
<stop offset="1" stop-color="#68A36F"/>
</linearGradient>
<linearGradient id="paint6_linear_460_863" x1="88.1972" y1="-61.3845" x2="224.67" y2="28.7504" gradientUnits="userSpaceOnUse">
<stop stop-color="#89C791"/>
<stop offset="1" stop-color="#68A36F"/>
</linearGradient>
<linearGradient id="paint7_linear_460_863" x1="100.972" y1="184.375" x2="324.281" y2="106.319" gradientUnits="userSpaceOnUse">
<stop stop-color="#89C791"/>
<stop offset="1" stop-color="#68A36F"/>
</linearGradient>
<linearGradient id="paint8_linear_460_863" x1="27.9598" y1="162.315" x2="280.086" y2="174.833" gradientUnits="userSpaceOnUse">
<stop stop-color="#89C791"/>
<stop offset="1" stop-color="#68A36F"/>
</linearGradient>
<linearGradient id="paint9_linear_460_863" x1="-174.646" y1="216.947" x2="356.083" y2="128.28" gradientUnits="userSpaceOnUse">
<stop stop-color="#89C791"/>
<stop offset="1" stop-color="#68A36F"/>
</linearGradient>
<linearGradient id="paint10_linear_460_863" x1="518.453" y1="180.678" x2="-111.233" y2="276.45" gradientUnits="userSpaceOnUse">
<stop stop-color="#68A36F"/>
<stop offset="1" stop-color="white"/>
</linearGradient>
<linearGradient id="paint11_linear_460_863" x1="450.068" y1="46.3959" x2="-52.8901" y2="122.893" gradientUnits="userSpaceOnUse">
<stop stop-color="#68A36F"/>
<stop offset="1" stop-color="white"/>
</linearGradient>
<linearGradient id="paint12_linear_460_863" x1="321.904" y1="133.391" x2="104.576" y2="168.253" gradientUnits="userSpaceOnUse">
<stop offset="0.0056" stop-color="#FFB7A1"/>
<stop offset="1" stop-color="#ED6D4F"/>
</linearGradient>
<linearGradient id="paint13_linear_460_863" x1="207.987" y1="119.564" x2="432.856" y2="129.327" gradientUnits="userSpaceOnUse">
<stop offset="0.0056" stop-color="#FFB7A1"/>
<stop offset="1" stop-color="#ED6D4F"/>
</linearGradient>
<linearGradient id="paint14_linear_460_863" x1="318.082" y1="127.499" x2="281.76" y2="184.294" gradientUnits="userSpaceOnUse">
<stop offset="0.0056" stop-color="#FFB7A1"/>
<stop offset="1" stop-color="#ED6D4F"/>
</linearGradient>
<linearGradient id="paint15_linear_460_863" x1="407.312" y1="672.178" x2="297.383" y2="273.391" gradientUnits="userSpaceOnUse">
<stop stop-color="#89C791"/>
<stop offset="1" stop-color="white"/>
</linearGradient>
<linearGradient id="paint16_linear_460_863" x1="407.312" y1="672.178" x2="297.383" y2="273.391" gradientUnits="userSpaceOnUse">
<stop stop-color="#89C791"/>
<stop offset="1" stop-color="white"/>
</linearGradient>
<linearGradient id="paint17_linear_460_863" x1="547.182" y1="326.444" x2="219.569" y2="394.382" gradientUnits="userSpaceOnUse">
<stop stop-color="#89C791"/>
<stop offset="1" stop-color="white"/>
</linearGradient>
<linearGradient id="paint18_linear_460_863" x1="284.067" y1="176.714" x2="318.607" y2="417.41" gradientUnits="userSpaceOnUse">
<stop stop-color="#89C791"/>
<stop offset="1" stop-color="white"/>
</linearGradient>
<linearGradient id="paint19_linear_460_863" x1="314.012" y1="437.883" x2="284.933" y2="43.1361" gradientUnits="userSpaceOnUse">
<stop stop-color="#89C791"/>
<stop offset="1" stop-color="white"/>
</linearGradient>
<linearGradient id="paint20_linear_460_863" x1="41.6449" y1="-277.815" x2="98.9972" y2="559.916" gradientUnits="userSpaceOnUse">
<stop stop-color="#89C791"/>
<stop offset="0.9944" stop-color="#68A36F"/>
</linearGradient>
<linearGradient id="paint21_linear_460_863" x1="-14.6849" y1="169.369" x2="101.622" y2="373.874" gradientUnits="userSpaceOnUse">
<stop stop-color="#89C791"/>
<stop offset="0.9944" stop-color="#68A36F"/>
</linearGradient>
<linearGradient id="paint22_linear_460_863" x1="-33.6746" y1="255.753" x2="120.976" y2="391.858" gradientUnits="userSpaceOnUse">
<stop stop-color="#89C791"/>
<stop offset="0.9944" stop-color="#68A36F"/>
</linearGradient>
</defs>
</svg>
