<svg width="60" height="50" viewBox="0 0 60 50" fill="none" xmlns="http://www.w3.org/2000/svg">
<path fill-rule="evenodd" clip-rule="evenodd" d="M2.14886 12.3751C1.50547 12.6777 0.961474 13.1571 0.58044 13.7574C0.199407 14.3577 -0.00292969 15.054 -0.00292969 15.7651C-0.00292969 16.4761 0.199407 17.1724 0.58044 17.7727C0.961474 18.373 1.50547 18.8524 2.14886 19.1551L7.51136 21.6863V36.3863C7.51136 39.1688 8.41511 42.2738 11.0514 44.1863C14.3739 46.5863 20.4264 49.5113 30.0264 49.5113C39.6264 49.5113 45.6639 46.5676 49.0014 44.1863C51.6376 42.2813 52.5414 39.1988 52.5414 36.3863V21.6863L56.2914 19.9126V36.3751C56.2914 36.8723 56.4889 37.3493 56.8405 37.7009C57.1922 38.0525 57.6691 38.2501 58.1664 38.2501C58.6636 38.2501 59.1406 38.0525 59.4922 37.7009C59.8438 37.3493 60.0414 36.8723 60.0414 36.3751V15.7501C60.0415 15.0399 59.84 14.3443 59.4603 13.7441C59.0806 13.144 58.5382 12.664 57.8964 12.3601L36.4464 2.23506C34.4416 1.28701 32.2515 0.795288 30.0339 0.795288C27.8162 0.795288 25.6262 1.28701 23.6214 2.23506L2.17136 12.3601L2.14886 12.3751ZM11.2614 36.3751V23.4376L23.5989 29.2876C25.6037 30.2356 27.7937 30.7273 30.0114 30.7273C32.229 30.7273 34.4191 30.2356 36.4239 29.2876L48.7614 23.4376V36.3751C48.7614 38.4601 48.0864 40.1626 46.7739 41.1001C44.0589 43.0613 38.7864 45.7501 30.0114 45.7501C21.2364 45.7501 15.9489 43.0801 13.2489 41.1001C11.9401 40.1551 11.2614 38.4413 11.2614 36.3751ZM25.2114 5.62506C26.7117 4.91435 28.3512 4.54568 30.0114 4.54568C31.6715 4.54568 33.311 4.91435 34.8114 5.62506L56.2614 15.7501L34.8114 25.8751C33.311 26.5858 31.6715 26.9544 30.0114 26.9544C28.3512 26.9544 26.7117 26.5858 25.2114 25.8751L3.76136 15.7501L25.2114 5.62506Z" fill="#68A36F"/>
</svg>
