<svg width="20" height="20" viewBox="0 0 20 20" fill="none" xmlns="http://www.w3.org/2000/svg">
<path d="M11.3836 1.00349C6.3676 0.863517 2.25822 4.95272 2.25822 10.0017H0.494244C0.0507853 10.0017 -0.166017 10.5416 0.149332 10.8516L2.89877 13.651C3.09587 13.851 3.40136 13.851 3.59845 13.651L6.34789 10.8516C6.41599 10.7811 6.462 10.6917 6.48013 10.5948C6.49825 10.4978 6.48768 10.3975 6.44974 10.3067C6.4118 10.2158 6.34819 10.1383 6.26694 10.0841C6.18568 10.0298 6.09041 10.0011 5.99313 10.0017H4.22915C4.22915 6.10249 7.36292 2.95311 11.2259 3.0031C14.8919 3.05309 17.9764 6.18248 18.0256 9.90175C18.0749 13.811 14.9707 17.0004 11.1274 17.0004C9.5408 17.0004 8.07246 16.4505 6.90961 15.5206C6.72086 15.3698 6.48404 15.2946 6.24419 15.3093C6.00435 15.3241 5.77821 15.4278 5.6088 15.6006C5.1949 16.0205 5.22447 16.7304 5.68763 17.0903C7.236 18.3324 9.15351 19.0056 11.1274 19C16.104 19 20.1345 14.8308 19.9966 9.74178C19.8685 5.0527 16.0054 1.13346 11.3836 1.00349ZM10.881 6.00251C10.477 6.00251 10.1419 6.34244 10.1419 6.75236V10.4316C10.1419 10.7816 10.3292 11.1115 10.6248 11.2915L13.6995 13.1411C14.0542 13.3511 14.5075 13.2311 14.7145 12.8812C14.9214 12.5212 14.8032 12.0613 14.4583 11.8514L11.6201 10.1417V6.74237C11.6201 6.34244 11.2851 6.00251 10.881 6.00251Z" fill="#4F4F4F"/>
</svg>
