<svg width="30" height="30" viewBox="0 0 30 30" fill="none" xmlns="http://www.w3.org/2000/svg"><path d="M16.575 3.74997C10.2125 3.57497 5.00001 8.68747 5.00001 15H2.76251C2.20001 15 1.92501 15.675 2.32501 16.0625L5.81251 19.5625C6.06251 19.8125 6.45001 19.8125 6.70001 19.5625L10.1875 16.0625C10.2739 15.9743 10.3322 15.8626 10.3552 15.7414C10.3782 15.6202 10.3648 15.4948 10.3167 15.3812C10.2686 15.2676 10.1879 15.1708 10.0848 15.1029C9.98175 15.0351 9.8609 14.9992 9.73751 15H7.50001C7.50001 10.125 11.475 6.18747 16.375 6.24997C21.025 6.31247 24.9375 10.225 25 14.875C25.0625 19.7625 21.125 23.75 16.25 23.75C14.2375 23.75 12.375 23.0625 10.9 21.9C10.6606 21.7114 10.3602 21.6173 10.056 21.6358C9.75174 21.6542 9.4649 21.7838 9.25001 22C8.72501 22.525 8.76251 23.4125 9.35001 23.8625C11.314 25.4154 13.7463 26.257 16.25 26.25C22.5625 26.25 27.675 21.0375 27.5 14.675C27.3375 8.81247 22.4375 3.91247 16.575 3.74997ZM15.9375 9.99997C15.425 9.99997 15 10.425 15 10.9375V15.5375C15 15.975 15.2375 16.3875 15.6125 16.6125L19.5125 18.925C19.9625 19.1875 20.5375 19.0375 20.8 18.6C21.0625 18.15 20.9125 17.575 20.475 17.3125L16.875 15.175V10.925C16.875 10.425 16.45 9.99997 15.9375 9.99997Z" fill="black"/></svg>
