<svg width="20" height="20" viewBox="0 0 20 20" fill="none" xmlns="http://www.w3.org/2000/svg">
<g clip-path="url(#clip0_327_162)">
<path d="M1.97001 10.7983C1.65335 8.60079 1.49501 7.50163 1.94585 6.56246C2.39585 5.62329 3.35501 5.05163 5.27251 3.90996L6.42668 3.22246C8.16668 2.18496 9.03834 1.66663 10 1.66663C10.9617 1.66663 11.8325 2.18496 13.5733 3.22246L14.7275 3.90996C16.6442 5.05163 17.6033 5.62329 18.0542 6.56246C18.5042 7.50163 18.3458 8.60079 18.0292 10.7983L17.7975 12.4125C17.3917 15.2358 17.1883 16.6466 16.2092 17.49C15.23 18.3333 13.7942 18.3333 10.9217 18.3333H9.07834C6.20584 18.3333 4.77001 18.3333 3.79084 17.49C2.81168 16.6466 2.60834 15.2358 2.20251 12.4125L1.97001 10.7983Z" stroke="#4F4F4F" style="stroke:#4F4F4F;stroke:color(display-p3 0.3098 0.3098 0.3098);stroke-opacity:1;" stroke-width="2"/>
<path d="M12.5 15H7.5" stroke="#4F4F4F" style="stroke:#4F4F4F;stroke:color(display-p3 0.3098 0.3098 0.3098);stroke-opacity:1;" stroke-width="2" stroke-linecap="round"/>
</g>
<defs>
<clipPath id="clip0_327_162">
<rect width="20" height="20" fill="white" style="fill:white;fill-opacity:1;"/>
</clipPath>
</defs>
</svg>
