<svg width="30" height="30" viewBox="0 0 30 30" fill="none" xmlns="http://www.w3.org/2000/svg"><path d="M2.95499 16.1975C2.47999 12.9013 2.24249 11.2525 2.91874 9.84375C3.59374 8.435 5.03249 7.5775 7.90874 5.865L9.63999 4.83375C12.25 3.2775 13.5575 2.5 15 2.5C16.4425 2.5 17.7487 3.2775 20.36 4.83375L22.0912 5.865C24.9662 7.5775 26.405 8.435 27.0812 9.84375C27.7562 11.2525 27.5187 12.9013 27.0437 16.1975L26.6962 18.6188C26.0875 22.8538 25.7825 24.97 24.3137 26.235C22.845 27.5 20.6912 27.5 16.3825 27.5H13.6175C9.30874 27.5 7.15499 27.5 5.68624 26.235C4.21749 24.97 3.91249 22.8538 3.30374 18.6188L2.95499 16.1975Z" stroke="black" stroke-width="2"/><path d="M18.75 22.5H11.25" stroke="black" stroke-width="2" stroke-linecap="round"/></svg>
