<svg width="20" height="21" viewBox="0 0 20 21" fill="none" xmlns="http://www.w3.org/2000/svg">
<path d="M1.97001 11.2325C1.65335 9.035 1.49501 7.93583 1.94585 6.99666C2.39585 6.0575 3.35501 5.48583 5.27251 4.34416L6.42668 3.65666C8.16668 2.61916 9.03834 2.10083 10 2.10083C10.9617 2.10083 11.8325 2.61916 13.5733 3.65666L14.7275 4.34416C16.6442 5.48583 17.6033 6.0575 18.0542 6.99666C18.5042 7.93583 18.3458 9.035 18.0292 11.2325L17.7975 12.8467C17.3917 15.67 17.1883 17.0808 16.2092 17.9242C15.23 18.7675 13.7942 18.7675 10.9217 18.7675H9.07834C6.20584 18.7675 4.77001 18.7675 3.79084 17.9242C2.81168 17.0808 2.60834 15.67 2.20251 12.8467L1.97001 11.2325Z" stroke="white" style="stroke:white;stroke-opacity:1;" stroke-width="2"/>
<path d="M12.5 15.4342H7.5" stroke="white" style="stroke:white;stroke-opacity:1;" stroke-width="2" stroke-linecap="round"/>
</svg>
