<svg width="31" height="30" viewBox="0 0 31 30" fill="none" xmlns="http://www.w3.org/2000/svg"><path d="M11.75 22.5C11.75 22.5 12.875 17.8238 15.5 15" stroke="#68A36F" stroke-width="1.5" stroke-linecap="round" stroke-linejoin="round"/><path d="M20.7325 9.05121L21.2 13.9137C21.5037 17.0675 19.1387 19.8762 15.985 20.1787C12.8912 20.4762 10.0875 18.215 9.78999 15.12C9.64685 13.6341 10.0998 12.1522 11.0492 11.0003C11.9986 9.84839 13.3666 9.12075 14.8525 8.97746L20.0362 8.47746C20.1197 8.46937 20.204 8.47783 20.2842 8.50236C20.3645 8.5269 20.439 8.56703 20.5037 8.62044C20.5684 8.67386 20.6219 8.73952 20.6612 8.81365C20.7004 8.88779 20.7247 8.96769 20.7325 9.05121Z" stroke="#68A36F" stroke-width="1.5" stroke-linecap="round" stroke-linejoin="round"/><path d="M15.5 27.5C22.4037 27.5 28 21.9037 28 15C28 8.09625 22.4037 2.5 15.5 2.5C8.59625 2.5 3 8.09625 3 15C3 21.9037 8.59625 27.5 15.5 27.5Z" stroke="#68A36F" stroke-width="1.5" stroke-linecap="round" stroke-linejoin="round"/></svg>