<svg width="400" height="542" viewBox="0 0 400 542" fill="none" xmlns="http://www.w3.org/2000/svg">
<path d="M304.744 0.804635C306.632 1.73431 308.48 2.71837 310.326 3.72779C311.006 4.09038 311.686 4.45298 312.387 4.82656C314.482 5.94672 316.568 7.07992 318.653 8.21783C319.278 8.55803 319.902 8.89822 320.546 9.24872C322.868 10.5147 325.19 11.7812 327.507 13.0584C330.903 14.9247 334.335 16.6753 337.824 18.3591C345.396 22.0357 345.396 22.0357 347.158 25.5587C347.436 28.2802 347.436 30.514 346.306 33.0292C345.974 33.4252 345.641 33.8212 345.299 34.2291C344.89 34.2291 344.481 34.2291 344.06 34.2291C344.06 34.6379 344.06 35.0466 344.06 35.4678C342.495 36.2496 341.388 36.1481 339.645 36.1258C339.081 36.1202 338.517 36.1146 337.936 36.1088C337.503 36.1017 337.07 36.0945 336.624 36.0871C336.363 36.7625 336.363 36.7625 336.097 37.4517C335.435 39.0612 334.703 40.5807 333.898 42.123C333.458 42.9672 333.458 42.9672 333.009 43.8285C332.694 44.4289 332.378 45.0292 332.054 45.6478C331.725 46.2745 331.397 46.9012 331.059 47.5469C327.887 53.5852 324.614 59.5678 321.335 65.5488C318.257 71.1747 315.288 76.8396 312.457 82.5937C311.103 85.3184 309.634 87.9324 308.08 90.5482C306.225 93.7446 304.658 96.9681 303.239 100.38C303.061 100.802 302.884 101.224 302.701 101.658C300.463 107.216 299.823 112.442 299.83 118.417C299.829 119.442 299.829 119.442 299.828 120.486C299.88 124.567 300.264 128.294 301.302 132.236C305.364 147.683 300.963 161.467 293.246 174.853C292.841 175.544 292.436 176.235 292.019 176.948C290.616 179.376 289.348 181.866 288.095 184.375C287.894 184.777 287.692 185.18 287.484 185.595C286.215 188.16 285.058 190.755 283.951 193.393C285.178 193.802 286.405 194.211 287.669 194.632C287.669 195.041 287.669 195.45 287.669 195.871C288.219 196.024 288.768 196.177 289.335 196.335C291.492 197.149 292.705 198.146 294.486 199.587C295.736 200.243 297 200.845 298.286 201.428C299.548 202.122 300.287 202.902 301.302 203.922C302.609 204.882 303.923 205.82 305.253 206.747C308.738 209.201 312.143 211.739 315.5 214.366C317.302 215.776 317.302 215.776 319.273 216.927C319.273 217.336 319.273 217.745 319.273 218.166C319.79 218.396 319.79 218.396 320.318 218.631C322.014 219.547 323.41 220.603 324.85 221.882C324.85 222.291 324.85 222.7 324.85 223.121C325.3 223.268 325.749 223.414 326.213 223.566C328.218 224.482 329.392 225.576 330.93 227.146C331.42 227.638 331.91 228.13 332.414 228.636C333.525 229.933 333.525 229.933 333.525 231.172C333.973 231.299 334.42 231.427 334.881 231.559C337.196 232.69 338.133 234.109 339.722 236.126C340.131 236.331 340.54 236.535 340.961 236.746C340.961 237.154 340.961 237.563 340.961 237.984C341.575 238.189 342.188 238.393 342.82 238.604C342.82 239.012 342.82 239.421 342.82 239.842C343.229 239.842 343.638 239.842 344.06 239.842C344.06 240.455 344.06 241.068 344.06 241.7C344.673 241.7 345.287 241.7 345.919 241.7C347.19 243.038 347.19 243.038 348.591 244.835C349.083 245.457 349.575 246.079 350.082 246.72C350.549 247.312 351.015 247.903 351.496 248.513C352.174 249.317 352.858 250.118 353.548 250.912C353.979 251.413 353.979 251.413 354.418 251.924C355.173 252.8 355.929 253.676 356.686 254.551C357.693 255.944 357.693 255.944 357.693 257.802C358.102 257.802 358.511 257.802 358.932 257.802C359.736 258.983 359.736 258.983 360.636 260.589C362.13 263.17 363.736 265.549 365.564 267.903C367.607 270.566 367.607 270.566 367.607 272.666C368.016 272.666 368.425 272.666 368.847 272.666C369.992 274.903 371.047 277.131 371.945 279.478C372.354 279.478 372.763 279.478 373.184 279.478C373.335 279.868 373.485 280.258 373.64 280.659C374.811 283.648 376.054 286.542 377.525 289.395C378.403 291.147 379.172 292.944 379.955 294.741C380.667 296.303 381.452 297.814 382.247 299.335C383.376 301.562 384.082 303.578 384.595 306.007C385.047 307.675 385.728 309.176 386.43 310.754C388.201 314.879 389.218 319.096 390.236 323.448C390.703 325.383 391.243 327.298 391.775 329.217C394.195 338.349 395.815 347.504 397.119 356.854C397.184 357.315 397.249 357.775 397.315 358.249C397.77 361.51 398.188 364.774 398.591 368.041C398.681 368.743 398.681 368.743 398.773 369.46C399.858 378.095 400.023 386.666 399.992 395.363C399.985 397.602 399.992 399.84 400 402.079C400.008 414.361 399.271 426.527 397.468 438.681C397.362 439.403 397.256 440.124 397.147 440.866C393.54 464.592 386.691 494.955 369.466 512.961C369.057 512.961 368.648 512.961 368.227 512.961C368.07 513.317 367.914 513.673 367.753 514.04C360.995 526.393 342.607 533.405 329.956 537.185C327.648 537.84 325.326 538.421 322.991 538.972C322.58 539.071 322.169 539.17 321.746 539.272C307.848 542.476 291.053 542.446 276.941 541.024C276.134 540.944 276.134 540.944 275.312 540.862C262.885 539.545 250.549 537.356 238.241 535.226C212.49 530.772 186.779 527.51 160.636 526.586C160.2 526.57 159.763 526.555 159.314 526.539C138.82 525.847 118.257 527.631 97.8532 529.401C93.3226 529.781 88.8058 529.86 84.2609 529.876C83.8019 529.877 83.343 529.879 82.8701 529.881C71.7973 529.885 60.7559 528.681 50.3337 524.728C49.634 524.464 49.634 524.464 48.9201 524.196C41.9167 521.305 35.6317 517.233 29.8844 512.341C29.3564 511.927 28.8284 511.513 28.2844 511.086C19.2857 503.749 12.6898 492.052 8.68144 481.388C8.33724 480.501 7.97529 479.621 7.60124 478.747C5.84194 474.59 4.75788 470.409 3.78062 466.009C3.54697 465 3.54697 465 3.3086 463.971C1.05136 454.02 0.0456027 444.222 0.0359434 434.027C0.0328496 432.858 0.0328401 432.858 0.0296838 431.666C0.0265633 430.024 0.0248316 428.381 0.0252019 426.738C0.0252765 424.276 0.0126153 421.814 0.000844582 419.352C-0.0206851 409.613 0.367543 400.022 1.37938 390.336C1.45402 389.575 1.52866 388.814 1.60556 388.03C2.49519 379.372 4.03021 370.902 5.93496 362.414C6.3269 360.653 6.70166 358.89 7.07265 357.125C8.69852 349.521 10.825 342.166 13.2933 334.793C13.7001 333.577 14.0971 332.356 14.4918 331.136C15.9479 326.652 17.6229 322.262 19.35 317.876C19.7589 317.876 20.1679 317.876 20.5893 317.876C20.7427 317.084 20.896 316.292 21.0541 315.476C21.8706 311.772 23.2305 308.262 24.927 304.87C25.336 304.87 25.745 304.87 26.1664 304.87C26.4 303.963 26.4 303.963 26.6384 303.037C27.4238 300.298 28.5597 297.769 29.7682 295.194C29.9731 294.737 30.178 294.28 30.3891 293.81C31.7137 290.974 33.1329 289.061 35.4615 286.91C36.3406 285.473 37.1554 284.06 37.9402 282.575C40.881 277.305 43.8506 272.114 48.0559 267.74C49.2023 266.341 50.0207 264.839 50.8967 263.262C51.9909 261.443 53.3576 259.861 54.7489 258.267C55.1898 257.755 55.1898 257.755 55.6395 257.233C56.5514 256.18 57.4695 255.133 58.3895 254.086C58.8351 253.576 58.8351 253.576 59.2897 253.056C62.9809 248.841 62.9809 248.841 64.5863 247.274C64.9952 247.274 65.4042 247.274 65.8256 247.274C65.8256 246.865 65.8256 246.456 65.8256 246.035C66.2346 246.035 66.6436 246.035 67.0649 246.035C67.2694 245.422 67.4739 244.809 67.6846 244.177C68.0936 244.177 68.5026 244.177 68.924 244.177C69.1285 243.564 69.333 242.951 69.5436 242.319C69.9526 242.319 70.3616 242.319 70.783 242.319C70.9492 241.923 71.1153 241.527 71.2865 241.12C72.0223 239.842 72.0223 239.842 73.8814 239.223C74.3139 238.407 74.7245 237.58 75.1207 236.746C77.9343 233.465 81.2667 230.779 84.6652 228.133C86.9235 226.314 89.0352 224.348 91.1524 222.368C92.4716 221.263 92.4716 221.263 94.3307 220.643C94.7396 220.848 95.1486 221.052 95.57 221.263C95.6978 220.905 95.8256 220.547 95.9573 220.179C97.135 218.253 98.6178 217.51 100.527 216.308C101.333 215.708 102.133 215.101 102.929 214.489C106.472 211.813 110.144 209.544 114.16 207.638C110.108 201.149 106.396 196.495 99.2881 193.393C99.0836 193.189 98.8791 192.985 98.6684 192.774C96.4548 192.523 95.284 192.571 93.3624 193.742C90.903 196.2 88.8338 198.597 88.1339 202.064C87.7249 202.064 87.3159 202.064 86.8945 202.064C85.9 196.971 85.4454 192.077 85.4615 186.891C85.4516 186.248 85.4416 185.605 85.4313 184.943C85.4258 176.186 87.804 167.653 93.9434 161.189C97.3198 158.08 100.188 156.116 104.865 156.08C105.692 156.119 106.519 156.166 107.344 156.234C106.086 153.516 104.643 151.302 102.735 148.996C102.263 148.419 101.791 147.842 101.304 147.247C100.083 145.9 98.9259 144.867 97.429 143.848C98.3253 141.616 99.4066 140.681 101.418 139.397C101.903 139.081 102.388 138.766 102.887 138.441C104.985 137.227 106.777 136.897 109.164 136.803C109.694 136.773 110.223 136.743 110.769 136.711C113.013 137.186 113.539 138.24 114.78 140.132C115.596 141.609 116.366 143.07 117.104 144.584C117.397 145.167 117.397 145.167 117.697 145.763C119.118 148.637 119.118 148.637 119.118 150.041C119.491 149.825 119.865 149.609 120.251 149.386C120.746 149.104 121.241 148.822 121.751 148.532C122.24 148.251 122.729 147.971 123.233 147.683C128.053 145.25 134.82 145.638 139.974 146.865C150.79 150.79 158.271 158.693 163.238 168.911C164.16 171.147 164.452 172.523 163.734 174.814C163.364 174.52 162.993 174.226 162.611 173.924C159.597 171.772 156.138 171.984 152.58 172.337C150.114 173.125 148.514 174.529 146.732 176.401C143.528 183.446 147.222 192.41 149.627 199.301C152.151 205.64 155.714 211.041 160.016 216.308C161.446 214.503 162.544 212.672 163.596 210.625C163.915 210.01 164.233 209.395 164.561 208.761C165.053 207.803 165.053 207.803 165.555 206.825C167.564 202.923 169.576 199.042 171.79 195.251C175.674 188.423 179.339 181.464 182.828 174.427C185.756 168.523 188.824 162.693 191.884 156.857C193.165 154.412 194.441 151.965 195.716 149.518C201.443 138.535 201.443 138.535 204.275 133.192C205.505 130.871 206.719 128.544 207.898 126.198C214.919 112.345 224.341 103.136 238.951 97.5752C253.932 91.7603 261.656 81.1858 268.447 67.1472C270.375 63.1732 272.478 59.3135 274.654 55.4708C276.584 52.037 278.361 48.5356 280.114 45.0091C282.313 40.5856 284.567 36.1908 286.831 31.8004C287.524 30.4563 288.215 29.1113 288.906 27.7662C289.356 26.894 289.805 26.0219 290.255 25.1498C290.457 24.7563 290.659 24.3627 290.867 23.9572C291.867 22.022 292.903 20.1301 294.019 18.2589C295.259 16.3969 295.259 16.3969 295.028 14.5658C294.489 13.0328 294.489 13.0328 293.246 11.3144C292.882 8.52599 292.935 5.9345 293.944 3.30201C296.922 0.0271836 300.701 -0.824952 304.744 0.804635Z" fill="#89C791"/>
<path d="M78.8388 285.052C155.728 285.052 232.617 285.052 311.837 285.052C311.837 291.184 311.837 297.315 311.837 303.632C309.178 303.632 306.52 303.632 303.781 303.632C303.751 304.337 303.72 305.042 303.689 305.768C303.615 307.486 303.54 309.203 303.465 310.921C303.303 314.604 303.144 318.287 302.992 321.971C302.342 337.667 301.517 353.351 300.64 369.035C299.842 383.294 299.113 397.553 298.475 411.819C297.929 424.01 297.327 436.195 296.624 448.378C295.667 465.023 294.872 481.677 294.06 498.329C294.024 499.059 293.989 499.788 293.952 500.54C293.508 509.635 293.067 518.729 292.627 527.824C296.512 527.824 300.397 527.824 304.401 527.824C304.371 526.086 304.371 526.086 304.342 524.312C304.281 520.47 304.239 516.629 304.208 512.788C304.189 510.46 304.162 508.132 304.12 505.804C304.079 503.556 304.057 501.307 304.048 499.058C304.041 498.203 304.028 497.347 304.007 496.492C303.837 488.956 303.837 488.956 306.205 486.119C309.417 483.035 313.018 483.716 317.259 483.698C317.991 483.685 318.722 483.673 319.476 483.659C326.451 483.628 326.451 483.628 329.188 485.711C331.123 488.25 331.305 490.447 331.258 493.537C331.258 494.002 331.258 494.468 331.258 494.947C331.257 496.479 331.243 498.01 331.228 499.541C331.225 500.606 331.222 501.671 331.22 502.736C331.213 505.533 331.195 508.329 331.174 511.126C331.155 513.982 331.147 516.838 331.137 519.695C331.117 525.295 331.086 530.895 331.047 536.495C329.756 536.895 328.466 537.295 327.175 537.694C326.457 537.917 325.738 538.14 324.998 538.369C310.466 542.735 291.926 542.534 276.941 541.024C276.134 540.944 276.134 540.944 275.312 540.862C262.885 539.545 250.549 537.356 238.241 535.226C212.49 530.772 186.779 527.51 160.636 526.586C159.981 526.562 159.981 526.562 159.314 526.539C138.823 525.847 118.259 527.624 97.8587 529.402C93.2741 529.787 88.7045 529.831 84.106 529.837C83.4153 529.839 83.4153 529.839 82.7106 529.841C75.3231 529.846 68.097 529.486 60.8682 527.824C59.7638 526.721 60.1522 525.096 60.1389 523.602C60.1309 522.831 60.1229 522.06 60.1147 521.266C60.1097 520.417 60.1051 519.568 60.1009 518.719C60.0984 518.292 60.0958 517.866 60.0932 517.428C60.0803 515.171 60.0714 512.915 60.0656 510.659C60.0588 508.33 60.0375 506.001 60.0128 503.672C59.9966 501.88 59.9915 500.089 59.9892 498.297C59.9862 497.439 59.979 496.581 59.9675 495.722C59.9524 494.519 59.9545 493.315 59.9573 492.111C59.9537 491.427 59.95 490.743 59.9463 490.038C60.3184 487.76 61.1483 486.742 62.7272 485.092C65.7017 483.064 69.419 483.65 72.8744 483.659C73.571 483.649 74.2675 483.639 74.9852 483.629C79.176 483.627 81.9849 483.906 85.4251 486.46C86.6889 488.109 86.4979 489.418 86.4859 491.475C86.4857 492.684 86.4857 492.684 86.4855 493.917C86.476 494.797 86.4663 495.676 86.4564 496.556C86.453 497.456 86.4503 498.356 86.4485 499.256C86.4414 501.623 86.4231 503.99 86.4025 506.357C86.3835 508.773 86.375 511.189 86.3657 513.606C86.3457 518.345 86.313 523.085 86.2749 527.824C90.3647 527.824 94.4546 527.824 98.6684 527.824C98.4639 526.598 98.2594 525.372 98.0487 524.109C97.9245 522.397 97.82 520.693 97.7389 518.98C97.7014 518.238 97.7014 518.238 97.6632 517.481C97.5828 515.871 97.5058 514.261 97.429 512.651C97.3743 511.537 97.3194 510.422 97.2646 509.308C96.8985 501.757 96.6021 494.207 96.4015 486.651C96.317 483.664 96.2127 480.706 95.8823 477.735C95.3361 472.77 95.3274 467.765 95.1948 462.776C95.1717 461.983 95.1485 461.191 95.1246 460.375C95.1059 459.665 95.0871 458.955 95.0677 458.224C94.9806 456.562 94.8428 454.955 94.6463 453.306C94.2947 450.295 94.1649 447.296 94.0644 444.267C94.0198 443.049 93.975 441.831 93.9302 440.612C93.9073 439.972 93.8844 439.331 93.8608 438.672C93.4324 426.81 92.8805 414.959 92.2005 403.11C91.1663 385.025 90.2499 366.935 89.3733 348.842C89.3521 348.406 89.331 347.97 89.3092 347.521C88.9997 341.138 88.6936 334.755 88.3905 328.371C88.3281 327.061 88.2653 325.75 88.2023 324.439C88.0851 321.998 87.9702 319.556 87.8555 317.114C87.8208 316.394 87.786 315.674 87.7502 314.932C87.5753 311.16 87.4791 307.408 87.5142 303.632C84.6513 303.632 81.7884 303.632 78.8388 303.632C78.8388 297.501 78.8388 291.369 78.8388 285.052Z" fill="#68A36F"/>
<path d="M304.744 0.804635C306.632 1.73431 308.48 2.71837 310.326 3.72779C311.006 4.09038 311.686 4.45298 312.387 4.82656C314.481 5.94672 316.568 7.07992 318.653 8.21783C319.278 8.55803 319.902 8.89822 320.546 9.24872C322.868 10.5147 325.19 11.7812 327.507 13.0584C330.903 14.9247 334.335 16.6753 337.824 18.3591C345.395 22.0357 345.395 22.0357 347.158 25.5587C347.436 28.2802 347.436 30.514 346.306 33.0292C345.974 33.4252 345.641 33.8212 345.299 34.2291C344.89 34.2291 344.481 34.2291 344.06 34.2291C344.06 34.6379 344.06 35.0466 344.06 35.4678C342.495 36.2496 341.388 36.1481 339.644 36.1258C339.08 36.1202 338.517 36.1146 337.935 36.1088C337.503 36.1017 337.07 36.0945 336.624 36.0871C336.363 36.7625 336.363 36.7625 336.097 37.4517C335.435 39.0612 334.703 40.5807 333.898 42.123C333.605 42.6858 333.311 43.2486 333.009 43.8285C332.536 44.7291 332.536 44.7291 332.053 45.6478C331.561 46.5878 331.561 46.5878 331.059 47.5469C327.886 53.5852 324.614 59.5678 321.335 65.5488C318.257 71.1747 315.288 76.8396 312.457 82.5937C311.103 85.3184 309.634 87.9324 308.08 90.5482C306.224 93.7446 304.658 96.9681 303.238 100.38C303.061 100.802 302.884 101.224 302.701 101.658C300.463 107.216 299.823 112.442 299.83 118.417C299.829 119.442 299.829 119.442 299.828 120.486C299.88 124.567 300.264 128.294 301.302 132.236C305.364 147.683 300.963 161.467 293.246 174.853C292.84 175.546 292.433 176.239 292.014 176.953C290.394 179.756 288.979 182.659 287.549 185.563C286.031 188.641 284.43 191.66 282.712 194.632C283.261 194.785 283.811 194.939 284.377 195.097C288.802 196.765 291.886 200.404 293.873 204.638C297.853 215.037 296.646 227.765 292.627 237.984C292.457 238.42 292.288 238.856 292.113 239.305C289.188 246.586 285.001 252.844 280.233 259.041C279.97 259.394 279.706 259.747 279.435 260.111C278.74 261.034 278.016 261.935 277.29 262.834C276.897 263.321 276.504 263.808 276.099 264.31C274.316 265.452 273.182 265.319 271.136 264.945C268.367 264.309 265.622 263.625 262.882 262.873C262.296 262.719 261.71 262.566 261.105 262.407C257.935 261.545 255.073 260.549 252.195 258.955C251.023 258.38 249.903 258.077 248.63 257.802C248.472 258.315 248.315 258.827 248.153 259.355C245.342 267.329 241.572 274.825 233.888 278.915C231.384 279.945 228.896 280.216 226.205 280.291C225.672 280.314 225.14 280.338 224.591 280.361C218.43 279.544 212.714 275.817 207.266 272.976C206.413 272.533 205.559 272.091 204.706 271.649C199.105 268.741 193.557 265.744 188.03 262.697C181.442 258.565 181.442 258.565 174.269 256.564C173.961 257.229 173.654 257.894 173.337 258.579C169.967 265.705 167.255 270.448 159.554 273.358C154.426 274.748 149.714 274.469 144.962 272.09C143.905 271.427 143.905 271.427 142.665 270.189C142.052 270.189 141.438 270.189 140.806 270.189C140.602 270.597 140.397 271.006 140.186 271.427C139.777 271.427 139.369 271.427 138.947 271.427C138.717 271.964 138.717 271.964 138.482 272.511C136.934 275.297 135.127 276.641 132.131 277.62C125.45 278.395 120.937 277.303 115.632 273.295C111.983 270.234 109.515 266.982 107.344 262.757C109.503 262.038 111.114 262.142 113.386 262.215C118.154 262.347 118.154 262.347 122.216 260.28C126.952 252.136 125.337 239.025 123.046 230.219C122.754 229.341 122.444 228.47 122.114 227.606C121.484 225.915 121.008 224.197 120.512 222.463C117.579 213.008 112.843 200.798 103.848 195.532C103.048 195.163 103.048 195.163 102.231 194.787C99.3223 193.428 99.3223 193.428 98.6682 192.774C96.4547 192.523 95.2839 192.571 93.3623 193.742C90.9029 196.2 88.8336 198.597 88.1338 202.064C87.7248 202.064 87.3158 202.064 86.8944 202.064C85.8999 196.971 85.4453 192.077 85.4614 186.891C85.4514 186.248 85.4414 185.605 85.4312 184.943C85.4257 176.186 87.8038 167.653 93.9432 161.189C97.3197 158.08 100.188 156.116 104.865 156.08C105.692 156.119 106.519 156.166 107.344 156.234C106.086 153.516 104.643 151.302 102.735 148.996C102.263 148.419 101.791 147.842 101.304 147.247C100.083 145.9 98.9258 144.867 97.4289 143.848C98.3252 141.616 99.4065 140.681 101.418 139.397C101.903 139.081 102.388 138.766 102.887 138.441C104.985 137.227 106.777 136.897 109.164 136.803C109.958 136.758 109.958 136.758 110.769 136.711C113.013 137.186 113.538 138.24 114.78 140.132C115.596 141.609 116.366 143.07 117.104 144.584C117.299 144.973 117.495 145.362 117.697 145.763C119.118 148.637 119.118 148.637 119.118 150.041C119.678 149.717 119.678 149.717 120.25 149.386C120.746 149.104 121.241 148.822 121.751 148.532C122.24 148.251 122.729 147.971 123.233 147.683C128.052 145.25 134.82 145.638 139.973 146.865C150.79 150.79 158.271 158.693 163.238 168.911C164.16 171.147 164.451 172.523 163.734 174.814C163.363 174.52 162.993 174.226 162.611 173.924C159.597 171.772 156.138 171.984 152.58 172.337C150.114 173.125 148.513 174.529 146.732 176.401C143.527 183.446 147.222 192.41 149.627 199.301C152.151 205.64 155.714 211.041 160.016 216.308C161.445 214.503 162.544 212.672 163.596 210.625C163.914 210.01 164.233 209.395 164.561 208.761C164.889 208.122 165.217 207.483 165.554 206.825C167.564 202.923 169.576 199.042 171.79 195.251C175.674 188.423 179.339 181.464 182.828 174.427C185.756 168.523 188.824 162.693 191.884 156.857C193.164 154.412 194.44 151.965 195.716 149.518C201.443 138.535 201.443 138.535 204.275 133.192C205.504 130.871 206.718 128.544 207.898 126.198C214.919 112.345 224.341 103.136 238.95 97.5752C253.932 91.7603 261.656 81.1858 268.447 67.1472C270.375 63.1732 272.477 59.3135 274.653 55.4708C276.583 52.037 278.361 48.5356 280.114 45.0091C282.313 40.5856 284.566 36.1908 286.831 31.8004C287.524 30.4563 288.215 29.1113 288.906 27.7662C289.355 26.894 289.805 26.0219 290.254 25.1498C290.456 24.7563 290.659 24.3627 290.867 23.9572C291.867 22.022 292.903 20.1301 294.019 18.2589C295.259 16.3969 295.259 16.3969 295.028 14.5658C294.489 13.0328 294.489 13.0328 293.246 11.3144C292.882 8.52599 292.935 5.9345 293.943 3.30201C296.922 0.0271836 300.701 -0.824952 304.744 0.804635Z" fill="#ABEEE9"/>
<path d="M78.8389 285.052C155.728 285.052 232.617 285.052 311.837 285.052C311.837 291.184 311.837 297.315 311.837 303.632C309.178 303.632 306.52 303.632 303.781 303.632C303.781 305.267 303.781 306.902 303.781 308.586C303.576 308.586 303.372 308.586 303.161 308.586C303.161 306.951 303.161 305.316 303.161 303.632C302.516 303.729 302.516 303.729 301.857 303.828C294.591 304.896 287.303 305.783 280.016 306.685C277.532 306.993 275.048 307.301 272.564 307.61C265.937 308.435 259.31 309.258 252.682 310.079C247.069 310.775 241.456 311.472 235.844 312.172C235.415 312.225 234.986 312.279 234.544 312.334C219.923 314.156 205.316 316.074 190.713 318.035C179.415 319.552 168.111 320.994 156.795 322.362C152.559 322.875 148.324 323.394 144.089 323.912C143.619 323.969 143.149 324.027 142.665 324.086C135.565 324.954 128.468 325.849 121.374 326.762C120.458 326.879 119.541 326.997 118.625 327.115C113.403 327.786 113.403 327.786 108.181 328.464C105.836 328.77 103.49 329.073 101.145 329.375C100.118 329.511 100.118 329.511 99.0701 329.649C95.5975 330.093 92.2546 330.359 88.7537 330.262C88.575 327.366 88.3986 324.469 88.2242 321.572C88.1647 320.589 88.1046 319.606 88.0438 318.623C87.4236 308.568 87.4236 308.568 87.5143 303.632C84.6514 303.632 81.7885 303.632 78.8389 303.632C78.8389 297.501 78.8389 291.369 78.8389 285.052Z" fill="#68A36F"/>
<path d="M109.164 136.803C109.958 136.758 109.958 136.758 110.769 136.712C113.013 137.186 113.538 138.24 114.78 140.132C115.596 141.609 116.366 143.07 117.104 144.584C117.299 144.973 117.495 145.362 117.697 145.763C119.118 148.637 119.118 148.637 119.118 150.041C119.678 149.717 119.678 149.717 120.25 149.386C120.993 148.963 120.993 148.963 121.751 148.532C122.24 148.252 122.729 147.971 123.233 147.683C128.052 145.25 134.82 145.638 139.973 146.865C150.79 150.79 158.271 158.693 163.238 168.911C164.16 171.147 164.451 172.523 163.734 174.814C163.363 174.52 162.993 174.226 162.611 173.924C159.597 171.772 156.138 171.984 152.58 172.337C150.114 173.125 148.513 174.529 146.732 176.401C143.527 183.446 147.222 192.41 149.627 199.301C154.434 211.375 163.503 221.728 174.218 228.99C175.508 229.933 175.508 229.933 176.128 231.172C171.692 233.011 167.057 234.031 162.337 232.609C161.139 232.101 161.139 232.101 159.396 231.172C159.358 231.759 159.32 232.347 159.28 232.952C158.631 237.274 156.724 241.146 153.238 243.829C148.411 247.04 144.115 248.43 138.327 247.893C135.767 247.298 133.248 246.594 130.891 245.416C130.744 246.135 130.744 246.135 130.594 246.868C129.477 251.851 128.017 256.213 124.075 259.66C123.666 259.66 123.257 259.66 122.836 259.66C122.97 259.298 123.104 258.935 123.242 258.562C126.249 249.297 125.587 236.714 122.114 227.606C121.484 225.915 121.008 224.197 120.512 222.463C117.579 213.008 112.843 200.798 103.848 195.532C103.048 195.163 103.048 195.163 102.231 194.787C99.3223 193.428 99.3223 193.428 98.6682 192.774C96.4547 192.523 95.2839 192.571 93.3623 193.742C90.9029 196.2 88.8336 198.597 88.1338 202.064C87.7248 202.064 87.3158 202.064 86.8944 202.064C85.8999 196.971 85.4453 192.077 85.4614 186.891C85.4514 186.248 85.4414 185.605 85.4312 184.943C85.4257 176.186 87.8038 167.653 93.9432 161.189C97.3197 158.08 100.188 156.116 104.865 156.08C105.692 156.119 106.519 156.166 107.344 156.235C106.086 153.516 104.643 151.302 102.735 148.996C102.263 148.419 101.791 147.842 101.304 147.247C100.083 145.9 98.9258 144.867 97.4289 143.848C98.3252 141.616 99.4065 140.681 101.418 139.397C101.903 139.082 102.388 138.766 102.887 138.441C104.985 137.227 106.777 136.897 109.164 136.803Z" fill="#FDF3B5"/>
<path d="M274.85 193.084C275.63 193.088 275.63 193.088 276.425 193.092C281.549 193.232 284.925 194.649 288.793 198C289.464 198.785 289.464 198.785 290.148 199.587C290.685 200.161 291.222 200.736 291.775 201.329C297.305 208.747 296.679 219.789 295.498 228.513C294.861 231.787 293.846 234.884 292.627 237.984C292.457 238.42 292.288 238.856 292.113 239.305C289.188 246.586 285.001 252.844 280.233 259.041C279.97 259.394 279.707 259.747 279.435 260.111C278.741 261.035 278.016 261.936 277.29 262.834C276.7 263.565 276.7 263.565 276.099 264.31C274.316 265.452 273.182 265.319 271.136 264.945C268.368 264.309 265.622 263.625 262.882 262.873C262.296 262.719 261.71 262.566 261.106 262.407C257.508 261.429 254.396 260.179 251.109 258.422C250.431 258.153 249.754 257.885 249.056 257.609C238.835 253.241 228.647 243.65 223.843 233.649C221.985 228.18 221.392 221.904 223.959 216.579C224.511 215.645 225.09 214.727 225.702 213.831C225.947 213.47 226.192 213.109 226.445 212.737C229.279 209.011 233.488 206.099 238.095 205.161C243.781 204.639 248.5 204.972 253.587 207.638C253.996 207.842 254.405 208.047 254.827 208.257C255.023 207.785 255.22 207.313 255.422 206.827C257.98 201.17 261.198 197.129 266.746 194.189C269.538 193.237 271.921 193.061 274.85 193.084Z" fill="#B4E86D"/>
<path d="M87.5142 303.632C157.451 303.632 227.387 303.632 299.443 303.632C299.443 303.836 299.443 304.041 299.443 304.251C298.843 304.326 298.843 304.326 298.231 304.402C288.289 305.637 278.347 306.874 268.405 308.113C263.596 308.712 258.788 309.31 253.979 309.908C248.397 310.601 242.815 311.296 237.233 311.993C236.771 312.05 236.308 312.108 235.832 312.168C220.73 314.054 205.642 316.028 190.559 318.055C179.312 319.565 168.06 321.001 156.794 322.362C152.559 322.875 148.324 323.394 144.089 323.912C143.619 323.969 143.149 324.027 142.665 324.086C135.565 324.954 128.468 325.849 121.374 326.762C120.457 326.88 119.541 326.997 118.625 327.115C113.402 327.786 113.402 327.786 108.181 328.464C105.836 328.77 103.49 329.073 101.145 329.375C100.46 329.465 99.7753 329.556 99.0699 329.649C95.5973 330.093 92.2544 330.359 88.7535 330.262C88.5748 327.366 88.3984 324.469 88.224 321.572C88.1645 320.589 88.1044 319.606 88.0437 318.623C87.9559 317.201 87.8704 315.778 87.7853 314.356C87.7582 313.924 87.731 313.493 87.7031 313.048C87.5172 309.892 87.5142 306.808 87.5142 303.632Z" fill="#006D10"/>
<path d="M109.164 136.803C109.958 136.758 109.958 136.758 110.769 136.712C113.013 137.186 113.538 138.24 114.78 140.132C115.596 141.609 116.366 143.07 117.104 144.584C117.299 144.973 117.495 145.362 117.697 145.763C119.118 148.637 119.118 148.637 119.118 150.041C119.678 149.717 119.678 149.717 120.25 149.386C120.993 148.963 120.993 148.963 121.751 148.532C122.24 148.252 122.729 147.971 123.233 147.683C128.052 145.25 134.82 145.638 139.973 146.865C150.79 150.79 158.271 158.693 163.238 168.911C164.16 171.147 164.451 172.523 163.734 174.814C163.363 174.52 162.993 174.226 162.611 173.924C159.6 171.774 156.135 171.979 152.58 172.337C149.539 173.359 147.576 175.302 145.764 177.911C144.077 177.266 142.579 176.618 141.039 175.666C137.554 174.247 134.16 174.198 130.552 175.293C124.79 177.879 118.42 183.129 115.855 188.993C115.653 189.589 115.452 190.186 115.245 190.8C115.037 191.404 114.829 192.009 114.615 192.631C114.465 193.087 114.315 193.543 114.16 194.013C112.357 193.301 110.585 192.561 108.815 191.768C104.494 190.193 100.251 190.265 96.0346 192.116C92.5662 194.051 89.4941 197.121 88.3298 200.997C88.2651 201.349 88.2004 201.701 88.1338 202.064C87.7248 202.064 87.3158 202.064 86.8944 202.064C85.8999 196.971 85.4453 192.077 85.4614 186.891C85.4514 186.248 85.4414 185.605 85.4312 184.943C85.4257 176.186 87.8038 167.653 93.9432 161.189C97.3197 158.08 100.188 156.116 104.865 156.08C105.692 156.119 106.519 156.166 107.344 156.235C106.086 153.516 104.643 151.302 102.735 148.996C102.263 148.419 101.791 147.842 101.304 147.247C100.083 145.9 98.9258 144.867 97.4289 143.848C98.3252 141.616 99.4065 140.681 101.418 139.397C101.903 139.082 102.388 138.766 102.887 138.441C104.985 137.227 106.777 136.897 109.164 136.803Z" fill="#B6E86B"/>
<path d="M184.183 218.166C186.826 218.471 188.637 219.986 190.38 221.882C194.101 227.292 195.264 231.398 194.718 237.984C194.16 240.027 193.298 241.731 192.239 243.558C191.948 244.089 191.656 244.62 191.356 245.167C188.901 249.471 186.02 253.707 181.085 255.325C178.591 255.522 176.145 255.473 173.649 255.325C173.623 255.9 173.598 256.475 173.572 257.067C172.871 261.86 169.821 266.648 166.271 269.877C161.184 273.528 155.658 274.779 149.482 273.905C146.829 273.095 144.636 272.159 142.665 270.189C142.052 270.189 141.438 270.189 140.806 270.189C140.602 270.597 140.397 271.006 140.187 271.427C139.778 271.427 139.369 271.427 138.947 271.427C138.794 271.785 138.64 272.143 138.482 272.511C136.934 275.297 135.127 276.641 132.131 277.621C125.45 278.395 120.937 277.303 115.632 273.295C111.983 270.234 109.515 266.982 107.344 262.757C109.492 262.041 111.012 262.183 113.269 262.292C118.565 262.325 121.968 260.964 125.857 257.415C127.33 255.076 128.226 252.789 129.098 250.175C129.636 248.56 130.245 246.99 130.891 245.416C131.363 245.55 131.836 245.684 132.322 245.823C138.588 247.511 143.44 248.087 149.482 245.416C154.318 242.627 156.903 239.446 158.777 234.268C159.248 232.499 159.248 232.499 159.396 231.172C159.972 231.376 160.547 231.581 161.139 231.791C166.11 233.186 171.513 232.926 176.128 230.552C180.838 227.462 182.93 223.554 184.183 218.166Z" fill="#B4E76F"/>
<path d="M165.412 77.3394C168.976 79.4996 171.533 82.8266 172.756 86.8082C174.35 94.3953 171.206 102.825 167.351 109.348C162.778 116.086 157.345 121.197 150.721 125.888C150.189 126.27 149.657 126.651 149.109 127.044C147.195 127.948 146.512 127.829 144.524 127.127C138.111 123.91 132.818 119.82 127.793 114.74C127.276 114.229 126.758 113.718 126.225 113.192C122.728 109.557 120.491 105.733 118.498 101.115C118.148 100.372 118.148 100.372 117.791 99.613C116.535 95.8516 116.518 90.6439 117.956 86.9098C120.417 82.8923 123.058 79.4402 127.793 78.2006C132.644 77.6378 137.067 77.3721 141.046 80.4989C141.376 80.7623 141.706 81.0258 142.046 81.2972C142.863 81.7279 143.687 82.1457 144.524 82.5359C144.908 81.9866 145.291 81.4373 145.686 80.8714C150.777 74.8551 158.519 74.2291 165.412 77.3394Z" fill="#B5E86C"/>
<path d="M282.712 68.911C285.635 70.0239 286.544 71.8182 287.795 74.5235C289.164 77.8496 289.045 80.8801 289.063 84.4326C289.076 85.0517 289.089 85.6708 289.102 86.3087C289.134 92.3967 287.655 97.4004 284.726 102.702C284.402 103.297 284.402 103.297 284.072 103.905C282.264 107.156 280.172 110.053 277.754 112.882C277.452 113.266 277.15 113.649 276.839 114.044C276.144 114.922 275.404 115.765 274.656 116.598C274.247 116.598 273.838 116.598 273.417 116.598C273.27 116.957 273.124 117.315 272.974 117.685C271.47 120.31 268.85 121.929 266.492 123.766C265.682 124.399 264.875 125.035 264.069 125.673C262.684 126.77 261.293 127.859 259.9 128.946C259.234 129.473 259.234 129.473 258.554 130.011C256.149 131.867 254.111 133.19 251.108 133.939C251.108 134.348 251.108 134.757 251.108 135.178C245.746 137.131 240.525 138.213 235.074 135.991C232.759 134.815 231.095 133.471 229.42 131.462C228.729 130.696 228.729 130.696 228.025 129.914C225.937 125.74 225.716 120.916 227.173 116.482C227.665 115.245 228.204 114.073 228.8 112.882C229.209 112.882 229.618 112.882 230.039 112.882C230.244 112.269 230.448 111.656 230.659 111.024C234.015 107.914 238.24 106.46 242.462 104.942C254.934 100.451 262.601 92.5039 268.808 80.8715C271.447 76.0019 276.278 67.6529 282.712 68.911Z" fill="#86DDD4"/>
<path d="M317.259 483.698C317.99 483.685 318.722 483.672 319.476 483.659C326.451 483.628 326.451 483.628 329.187 485.711C331.123 488.25 331.305 490.447 331.257 493.536C331.258 494.235 331.258 494.235 331.258 494.947C331.257 496.479 331.243 498.01 331.228 499.541C331.224 500.606 331.222 501.671 331.22 502.736C331.213 505.533 331.195 508.329 331.174 511.126C331.155 513.982 331.147 516.838 331.137 519.695C331.117 525.295 331.086 530.895 331.046 536.495C329.766 536.896 328.485 537.295 327.204 537.693C326.491 537.915 325.777 538.138 325.042 538.367C322.504 539.115 319.987 539.65 317.375 540.056C316.897 540.131 316.42 540.207 315.928 540.285C312.049 540.864 308.321 541.03 304.4 540.83C303.33 540.781 302.261 540.733 301.191 540.685C298.128 540.544 295.068 540.376 292.007 540.211C292.007 536.123 292.007 532.036 292.007 527.824C296.097 527.824 300.187 527.824 304.4 527.824C304.371 526.085 304.371 526.085 304.341 524.311C304.281 520.47 304.239 516.629 304.208 512.787C304.188 510.459 304.162 508.132 304.12 505.804C304.079 503.555 304.057 501.307 304.048 499.058C304.041 498.202 304.027 497.347 304.007 496.492C303.837 488.956 303.837 488.956 306.205 486.119C309.417 483.035 313.017 483.716 317.259 483.698Z" fill="#574C4D"/>
<path d="M211.232 47.7961C214.28 49.375 216.032 51.0305 217.646 54.0473C218.285 53.6386 218.924 53.2298 219.583 52.8087C223.323 50.9528 227.205 51.0333 231.279 51.5701C234.622 52.701 237.114 54.9988 238.8 58.085C240.279 62.3325 240.081 66.4321 238.415 70.5826C233.33 80.5279 224.761 86.2309 214.47 90.0233C213.589 90.3024 213.589 90.3024 212.689 90.587C212.158 90.7595 211.626 90.9319 211.079 91.1096C209.59 91.2063 209.59 91.2063 208.199 90.3572C200.501 83.1027 193.619 73.5559 193.266 62.6688C193.158 55.0332 193.158 55.0332 195.648 51.887C200.078 47.4247 204.986 45.6603 211.232 47.7961Z" fill="#B6E86A"/>
<path d="M72.8744 483.659C73.571 483.649 74.2675 483.639 74.9852 483.629C79.176 483.627 81.9849 483.906 85.4251 486.46C86.6889 488.109 86.4979 489.418 86.4859 491.475C86.4857 492.684 86.4857 492.684 86.4855 493.917C86.476 494.797 86.4663 495.676 86.4564 496.556C86.453 497.456 86.4503 498.356 86.4485 499.256C86.4414 501.623 86.4231 503.99 86.4025 506.357C86.3835 508.773 86.375 511.189 86.3657 513.605C86.3457 518.345 86.313 523.085 86.2749 527.824C90.3647 527.824 94.4546 527.824 98.6684 527.824C98.6684 528.233 98.6684 528.642 98.6684 529.063C93.8808 529.831 89.1331 529.831 84.2997 529.837C83.5973 529.839 83.5973 529.839 82.8808 529.841C75.4351 529.846 68.1544 529.499 60.8682 527.824C59.7638 526.721 60.1522 525.095 60.1389 523.602C60.1309 522.831 60.1229 522.06 60.1147 521.266C60.1097 520.417 60.1051 519.567 60.1009 518.718C60.0984 518.292 60.0958 517.866 60.0932 517.427C60.0803 515.171 60.0714 512.915 60.0656 510.659C60.0588 508.33 60.0375 506.001 60.0128 503.672C59.9966 501.88 59.9915 500.089 59.9892 498.297C59.9862 497.439 59.979 496.581 59.9675 495.722C59.9524 494.519 59.9545 493.315 59.9573 492.111C59.9537 491.427 59.95 490.743 59.9463 490.038C60.3184 487.76 61.1483 486.742 62.7272 485.092C65.7017 483.064 69.419 483.65 72.8744 483.659Z" fill="#372929"/>
<path d="M188.521 341.41C192.789 341.347 197.056 341.304 201.324 341.274C202.776 341.262 204.227 341.245 205.679 341.223C207.766 341.193 209.853 341.179 211.941 341.168C212.589 341.155 213.237 341.143 213.905 341.129C218.398 341.128 218.398 341.128 220.768 342.499C221.913 343.807 222.789 344.99 223.598 346.524C223.862 347.014 224.126 347.503 224.398 348.007C224.663 348.513 224.927 349.018 225.199 349.539C225.735 350.548 226.273 351.556 226.813 352.563C227.046 353.007 227.28 353.452 227.52 353.91C228.175 355.133 228.175 355.133 229.42 356.274C229.853 355.998 230.286 355.723 230.732 355.439C231.296 355.089 231.86 354.738 232.441 354.377C233.282 353.849 233.282 353.849 234.14 353.31C234.627 353.062 235.115 352.814 235.617 352.558C236.026 352.762 236.435 352.967 236.856 353.177C232.725 360.402 228.594 367.628 224.463 374.853C215.874 374.853 207.285 374.853 198.436 374.853C200.455 372.835 202.125 371.84 204.633 370.518C205.042 370.518 205.451 370.518 205.872 370.518C202.772 364.881 199.648 359.263 196.384 353.719C196.138 353.302 195.893 352.886 195.641 352.456C194.133 349.908 192.572 347.402 190.956 344.921C190.381 343.887 190.381 343.887 190.381 342.649C189.767 342.444 189.154 342.24 188.521 342.029C188.521 341.825 188.521 341.621 188.521 341.41Z" fill="#CAE7E1"/>
<path d="M140.806 379.189C144.345 379.035 147.882 378.923 151.423 378.848C152.626 378.817 153.829 378.775 155.031 378.721C164.934 378.29 164.934 378.29 167.842 380.333C169.01 381.961 169.768 383.539 170.551 385.382C171.261 386.614 171.983 387.839 172.715 389.059C173.417 390.309 174.116 391.56 174.811 392.813C175.17 393.455 175.53 394.096 175.9 394.756C178.439 399.291 178.439 399.291 179.226 400.865C177.553 400.244 176.067 399.589 174.54 398.658C173.165 397.848 172.106 397.436 170.551 397.149C170.404 397.656 170.257 398.163 170.105 398.685C169.154 401.296 167.893 403.601 166.523 406.013C166.252 406.495 165.982 406.977 165.703 407.474C164.289 409.985 162.847 412.476 161.372 414.952C161.093 415.42 160.813 415.889 160.526 416.372C159.993 417.262 159.457 418.15 158.916 419.036C157.502 421.389 156.439 423.595 155.679 426.257C153.803 424.616 152.668 422.597 151.442 420.463C151.219 420.078 150.995 419.694 150.764 419.298C150.05 418.071 149.34 416.842 148.63 415.612C147.925 414.397 147.22 413.182 146.513 411.968C146.058 411.184 145.604 410.399 145.152 409.614C143.972 407.573 142.733 405.603 141.402 403.659C139.988 401.366 139.678 399.872 140.187 397.149C141.262 394.787 142.559 392.591 143.905 390.375C144.437 389.474 144.437 389.474 144.979 388.554C145.852 387.079 146.733 385.609 147.623 384.143C145.442 382.346 143.375 381.002 140.806 379.808C140.806 379.603 140.806 379.399 140.806 379.189Z" fill="#CBE7E1"/>
<path d="M211.449 405.2C211.654 405.2 211.858 405.2 212.069 405.2C212.069 408.265 212.069 411.331 212.069 414.489C216.536 414.416 221.002 414.339 225.469 414.259C226.989 414.232 228.509 414.206 230.03 414.181C232.212 414.146 234.395 414.106 236.577 414.066C237.6 414.051 237.6 414.051 238.643 414.035C239.276 414.022 239.908 414.01 240.56 413.997C241.117 413.988 241.675 413.978 242.249 413.968C243.773 413.923 243.773 413.923 245.531 413.251C244.596 415.795 243.368 418.046 241.997 420.383C241.774 420.764 241.551 421.145 241.321 421.537C240.849 422.342 240.376 423.145 239.902 423.948C239.188 425.159 238.478 426.372 237.768 427.585C230.767 439.518 230.767 439.518 228.8 440.501C227.495 440.554 226.189 440.567 224.884 440.561C224.105 440.559 223.326 440.557 222.523 440.555C221.706 440.55 220.889 440.545 220.047 440.539C219.217 440.536 218.387 440.534 217.556 440.531C215.521 440.524 213.485 440.513 211.449 440.501C211.449 443.362 211.449 446.223 211.449 449.171C208.835 445.906 206.86 442.506 204.846 438.867C204.207 437.714 203.56 436.566 202.913 435.418C202.502 434.68 202.092 433.943 201.682 433.204C201.312 432.54 200.941 431.875 200.56 431.19C199.716 429.438 199.155 428.194 199.056 426.256C199.723 424.639 199.723 424.639 200.762 422.92C201.139 422.288 201.515 421.655 201.904 421.003C202.306 420.348 202.708 419.693 203.122 419.018C203.508 418.375 203.893 417.732 204.29 417.07C205.057 415.793 205.828 414.519 206.603 413.248C208.006 410.941 209.374 408.615 210.737 406.286C210.972 405.928 211.207 405.569 211.449 405.2Z" fill="#CBE7E2"/>
<path d="M184.184 218.166C186.826 218.471 188.637 219.986 190.381 221.882C194.102 227.292 195.264 231.398 194.718 237.984C194.16 240.027 193.299 241.731 192.24 243.558C191.802 244.354 191.802 244.354 191.356 245.167C188.902 249.471 186.021 253.708 181.085 255.325C178.591 255.522 176.145 255.473 173.649 255.325C173.624 255.9 173.598 256.475 173.572 257.067C172.871 261.86 169.821 266.648 166.271 269.877C161.014 273.651 155.815 274.364 149.482 273.905C149.277 273.496 149.073 273.087 148.862 272.666C149.2 272.537 149.538 272.409 149.886 272.277C156.115 269.733 160.317 266.477 163.115 260.28C163.524 260.28 163.933 260.28 164.354 260.28C166.439 251.895 167.723 243.969 163.308 236.126C163.04 235.718 162.772 235.309 162.495 234.888C162.495 234.479 162.495 234.07 162.495 233.649C161.677 233.24 160.859 232.832 160.016 232.41C161.875 231.791 161.875 231.791 163.735 232.41C169.455 232.898 174.236 232.244 178.8 228.617C181.893 225.717 183.239 222.227 184.184 218.166Z" fill="#95D161"/>
<path d="M184.958 342.368C188.844 343.976 190.76 347.207 192.859 350.7C193.268 351.377 193.677 352.054 194.098 352.751C194.842 354.75 194.672 355.48 194.098 357.512C193.487 358.737 192.827 359.938 192.135 361.119C191.735 361.808 191.334 362.497 190.921 363.206C190.496 363.927 190.07 364.649 189.644 365.37C189.235 366.072 188.826 366.774 188.404 367.498C185.996 371.62 183.553 375.721 181.085 379.808C178.359 378.987 176.045 377.915 173.589 376.481C172.537 375.871 172.537 375.871 171.465 375.249C170.734 374.82 170.003 374.392 169.273 373.963C168.54 373.536 167.807 373.11 167.074 372.684C164.09 370.948 161.115 369.201 158.157 367.421C159.337 363.49 161.315 360.263 163.454 356.784C164.115 355.703 164.764 354.615 165.412 353.527C170.127 345.821 175.285 340.018 184.958 342.368Z" fill="#CBE7E1"/>
<path d="M238.095 374.234C240.516 375.04 240.652 375.845 241.789 378.083C242.304 379.086 242.304 379.086 242.83 380.109C243.185 380.814 243.539 381.52 243.905 382.246C244.255 382.93 244.605 383.614 244.965 384.318C245.658 385.675 246.346 387.033 247.03 388.393C247.661 389.644 248.299 390.892 248.946 392.135C249.367 392.95 249.367 392.95 249.797 393.781C250.044 394.254 250.29 394.726 250.545 395.213C252.023 398.663 251.219 402.274 249.988 405.705C248.477 408.472 245.858 410.61 243.053 412.012C242.065 412.064 241.075 412.079 240.085 412.073C239.502 412.071 238.919 412.069 238.318 412.067C237.708 412.061 237.097 412.056 236.469 412.051C235.546 412.047 235.546 412.047 234.605 412.042C233.083 412.035 231.561 412.025 230.04 412.012C228.377 409.128 226.727 406.236 225.082 403.342C224.724 402.711 224.365 402.081 223.996 401.432C222.806 399.335 221.62 397.236 220.435 395.136C219.844 394.096 219.844 394.096 219.241 393.035C218.874 392.384 218.508 391.733 218.13 391.062C217.798 390.475 217.466 389.888 217.124 389.283C216.407 387.859 216.407 387.859 216.407 386.62C217.128 386.222 217.128 386.222 217.864 385.817C219.671 384.819 221.477 383.821 223.283 382.821C224.06 382.391 224.838 381.962 225.616 381.533C226.742 380.912 227.868 380.289 228.994 379.665C229.358 379.464 229.722 379.263 230.098 379.055C232.133 377.922 234.1 376.726 236.043 375.441C236.72 375.043 237.397 374.644 238.095 374.234Z" fill="#CBE7E2"/>
<path d="M163.734 413.87C173.345 413.87 182.957 413.87 192.859 413.87C192.859 422.454 192.859 431.038 192.859 439.882C189.293 439.92 185.727 439.958 182.053 439.998C180.939 440.015 179.826 440.031 178.678 440.049C171.749 440.112 166.333 439.862 161.047 434.811C158.931 432.507 158.042 430.338 157.692 427.263C158.157 423.779 158.157 423.779 163.734 413.87Z" fill="#CBE7E1"/>
<path d="M310.597 484.472C315.301 484.472 320.004 484.472 324.85 484.472C324.85 502.253 324.85 520.033 324.85 538.353C315.555 540.211 315.555 540.211 310.597 540.211C310.597 521.817 310.597 503.423 310.597 484.472Z" fill="#362828"/>
<path d="M149.017 151.435C156.037 156.725 161.998 163.704 164.354 172.337C164.081 173.708 164.081 173.708 163.734 174.814C163.364 174.52 162.993 174.226 162.611 173.924C159.6 171.774 156.135 171.979 152.58 172.337C149.54 173.359 147.576 175.302 145.764 177.911C144.077 177.266 142.579 176.618 141.039 175.665C137.501 174.225 133.999 174.109 130.4 175.467C128.873 176.229 127.405 177.046 125.934 177.911C125.111 178.33 124.286 178.745 123.456 179.149C123.984 178.348 124.513 177.549 125.043 176.749C125.381 176.241 125.718 175.732 126.065 175.208C127.162 173.592 128.308 172.019 129.459 170.44C132.946 165.421 134.05 161.167 133.37 154.996C132.796 153.581 132.796 153.581 132.131 152.519C131.722 152.519 131.313 152.519 130.892 152.519C130.892 152.11 130.892 151.701 130.892 151.28C130.483 151.28 130.074 151.28 129.652 151.28C129.652 150.871 129.652 150.462 129.652 150.041C127.812 149.428 125.971 148.815 124.075 148.183C124.695 146.945 124.695 146.945 125.666 146.572C134.267 145.165 141.706 146.619 149.017 151.435Z" fill="#96D162"/>
<path d="M193.479 239.223C193.683 239.632 193.888 240.04 194.098 240.462C195.206 240.752 195.206 240.752 196.538 240.926C200.16 241.672 202.807 243.417 205.872 245.416C206.545 245.826 207.217 246.237 207.91 246.66C215.716 251.45 222.574 257.272 228.8 263.996C229.115 264.331 229.43 264.666 229.754 265.012C231.275 266.894 231.376 268.342 231.163 270.653C230.935 272.125 230.707 273.19 230.04 274.524C226.132 274.767 223.734 274.21 220.318 272.356C219.888 272.132 219.457 271.908 219.013 271.676C215.669 269.908 212.456 267.949 209.254 265.936C201.431 261.063 193.284 257.054 184.803 253.467C185.417 252.548 185.417 252.548 186.043 251.609C186.452 251.609 186.861 251.609 187.282 251.609C187.441 251.277 187.6 250.945 187.764 250.603C189.021 248.161 190.478 245.834 191.893 243.481C192.696 242.001 193.191 240.863 193.479 239.223Z" fill="#86DDD3"/>
<path d="M87.0494 32.0615C90.3315 33.9581 92.7292 36.8579 94.6017 40.1126C95.577 44.4445 94.9278 48.2001 93.0913 52.1893C90.9936 55.364 88.6948 57.3612 85.0355 58.3825C80.468 58.9524 76.1959 59.1227 72.4023 56.2487C69.0067 52.9783 67.2975 49.5986 66.8325 44.8736C66.958 41.2242 68.2446 38.132 70.7031 35.4339C75.3451 31.2068 81.0056 29.4005 87.0494 32.0615Z" fill="#9ED969"/>
<path d="M179.226 181.007C178.423 183.573 177.46 185.926 176.244 188.323C175.797 189.21 175.797 189.21 175.341 190.116C174.509 191.698 173.657 193.261 172.785 194.821C171.184 197.685 169.664 200.586 168.149 203.496C165.767 208.051 163.292 212.524 160.636 216.928C154.071 210.548 149.231 202.312 147.003 193.394C147.623 191.536 147.623 191.536 148.973 190.812C149.524 190.604 150.076 190.396 150.644 190.181C151.191 189.968 151.739 189.755 152.304 189.535C153.819 189.058 153.819 189.058 155.678 189.058C155.678 188.65 155.678 188.241 155.678 187.82C156.309 187.662 156.309 187.662 156.952 187.5C159.882 186.738 162.718 185.925 165.516 184.762C174.567 181.007 174.567 181.007 179.226 181.007Z" fill="#89C791"/>
<path d="M84.6867 116.056C87.5102 118.121 89.7158 120.609 90.6124 124.03C90.9105 127.665 90.601 130.733 88.7534 133.939C86.7116 136.197 84.1719 138.066 81.1115 138.461C77.2223 138.479 73.9644 138.232 70.974 135.437C68.1597 132.326 66.7462 129.661 66.8687 125.344C67.3402 122.185 68.8031 119.778 71.0926 117.605C75.3716 114.825 79.7786 114.451 84.6867 116.056Z" fill="#96D161"/>
<path d="M301.302 17.5076C303.677 17.8077 305.401 19.0598 307.383 20.3333C310.435 22.2584 313.532 24.0558 316.717 25.7523C317.28 26.0541 317.28 26.0541 317.854 26.3621C321.155 28.1044 324.515 29.579 328.04 30.8012C328.471 30.9516 328.901 31.1021 329.345 31.2572C330.234 31.5654 331.124 31.8669 332.017 32.162C333.308 32.6204 333.308 32.6204 335.384 33.6099C335.824 34.9103 335.824 34.9103 336.004 36.0871C325.031 42.2514 325.031 42.2514 319.273 41.0417C315.636 39.9834 312.335 38.4356 309.358 36.0871C309.358 35.6784 309.358 35.2696 309.358 34.8485C308.995 34.7048 308.631 34.5611 308.257 34.413C304.848 32.4251 301.998 27.3344 300.683 23.7008C300.516 21.8282 300.478 19.9974 300.683 18.1269C300.887 17.9226 301.092 17.7182 301.302 17.5076Z" fill="#86DDD4"/>
<path d="M51.5731 68.9109C57.0102 72.3226 62.3533 75.8655 67.6846 79.4393C66.7415 82.2301 65.1941 84.4444 63.4631 86.7937C63.1991 87.1569 62.9351 87.5201 62.6631 87.8944C62.1316 88.6256 61.599 89.356 61.0652 90.0856C59.7468 91.8947 58.4493 93.7186 57.1501 95.5415C54.9912 94.7513 53.2327 93.8354 51.3746 92.486C50.8897 92.1352 50.4048 91.7843 49.9053 91.4228C49.1588 90.8749 49.1588 90.8749 48.3972 90.316C47.8948 89.9532 47.3923 89.5903 46.8747 89.2165C44.7978 87.7052 42.8151 86.2572 41.0386 84.3938C41.2696 84.0568 41.5007 83.7198 41.7387 83.3726C42.7966 81.8294 43.8541 80.286 44.9115 78.7425C45.4567 77.9474 45.4567 77.9474 46.0129 77.1362C47.8835 74.4055 49.7447 71.67 51.5731 68.9109Z" fill="#046D6E"/>
<path d="M309.358 483.853C325.469 483.853 325.469 483.853 329.188 485.711C331.234 488.15 331.305 490.475 331.258 493.537C331.258 494.235 331.258 494.235 331.258 494.947C331.257 496.479 331.243 498.01 331.228 499.541C331.225 500.606 331.222 501.671 331.22 502.736C331.213 505.533 331.195 508.329 331.174 511.126C331.155 513.982 331.147 516.838 331.137 519.695C331.117 525.295 331.086 530.895 331.047 536.495C328.803 537.31 327.269 537.733 324.85 537.733C324.85 520.157 324.85 502.581 324.85 484.472C320.146 484.472 315.443 484.472 310.597 484.472C310.597 502.866 310.597 521.26 310.597 540.211C310.393 540.211 310.188 540.211 309.978 540.211C309.773 521.613 309.569 503.015 309.358 483.853Z" fill="#554848"/>
<path d="M373.804 55.2859C375.785 56.1264 376.765 56.94 377.951 58.7261C378.387 59.3739 378.387 59.3739 378.833 60.0348C379.129 60.4859 379.425 60.937 379.73 61.4017C380.324 62.2906 380.919 63.1793 381.514 64.0677C381.789 64.481 382.064 64.8943 382.347 65.3202C383.177 66.5491 384.048 67.7402 384.958 68.9109C384.069 71.0826 383.038 72.0579 381.11 73.3695C380.594 73.722 380.078 74.0744 379.546 74.4376C378.736 74.9783 378.736 74.9783 377.91 75.5299C377.374 75.8975 376.839 76.2651 376.288 76.6439C371.925 79.5945 371.925 79.5945 369.467 80.0586C367.91 77.8313 366.364 75.5975 364.819 73.3622C364.376 72.728 363.932 72.0937 363.476 71.4402C363.056 70.8315 362.637 70.2227 362.205 69.5955C361.815 69.0345 361.426 68.4734 361.025 67.8953C360.171 66.4336 360.171 66.4336 360.171 64.5757C361.423 63.512 361.423 63.512 363.154 62.3621C363.769 61.949 364.384 61.5358 365.017 61.1102C365.668 60.6827 366.318 60.2552 366.988 59.8147C367.638 59.38 368.288 58.9453 368.958 58.4974C370.57 57.4212 372.185 56.3511 373.804 55.2859Z" fill="#9CD866"/>
<path d="M109.164 136.803C109.694 136.773 110.224 136.743 110.769 136.712C113.008 137.185 113.541 138.247 114.78 140.132C120.977 151.28 120.977 151.28 120.977 155.77C119.991 158.479 118.215 159.473 115.71 160.725C114.005 161.236 112.831 161.404 111.062 161.189C110.186 160.139 110.186 160.139 109.435 158.634C107.812 155.684 105.973 153.068 103.897 150.428C103.613 150.06 103.328 149.692 103.035 149.313C101.349 147.183 99.637 145.468 97.4292 143.848C98.3255 141.616 99.4068 140.681 101.418 139.397C101.903 139.082 102.388 138.766 102.888 138.441C104.985 137.227 106.777 136.897 109.164 136.803Z" fill="#4A2F6C"/>
<path d="M296.965 39.803C298.609 40.6467 299.266 41.3682 300.218 42.9383C301.449 47.756 300.667 51.9852 298.824 56.5246C298.415 56.5246 298.006 56.5246 297.584 56.5246C297.428 56.9046 297.271 57.2846 297.11 57.6761C295.824 59.9053 293.738 60.6185 291.388 61.4791C288.9 61.8691 288.051 61.7249 285.927 60.3566C284.044 58.4752 283.836 56.8814 283.758 54.3182C283.824 50.1679 284.798 46.5304 287.655 43.427C290.821 40.6077 292.601 39.5022 296.965 39.803Z" fill="#86DDD4"/>
<path d="M80.6978 484.472C84.5699 485.246 84.5699 485.246 86.2749 487.569C86.573 489.395 86.573 489.395 86.5563 491.545C86.556 492.754 86.556 492.754 86.5557 493.987C86.5431 494.864 86.5301 495.74 86.517 496.617C86.5123 497.516 86.5088 498.415 86.5063 499.314C86.4969 501.676 86.4725 504.038 86.4451 506.4C86.4197 508.812 86.4084 511.224 86.3959 513.636C86.3694 518.365 86.3258 523.095 86.2749 527.824C90.3648 527.824 94.4546 527.824 98.6684 527.824C98.6684 528.233 98.6684 528.642 98.6684 529.063C95.5256 529.581 92.4855 529.766 89.2982 529.743C88.8367 529.742 88.3752 529.741 87.8997 529.74C86.4415 529.737 84.9833 529.729 83.5251 529.721C82.5298 529.718 81.5345 529.715 80.5393 529.713C78.1134 529.706 75.6876 529.695 73.2617 529.682C73.2617 529.478 73.2617 529.274 73.2617 529.063C75.7156 529.063 78.1695 529.063 80.6978 529.063C80.6978 514.348 80.6978 499.633 80.6978 484.472Z" fill="#574A4A"/>
<path d="M68.8368 483.732C69.5278 483.736 70.2188 483.74 70.9307 483.744C71.6488 483.754 72.3669 483.765 73.1068 483.775C74.1984 483.784 74.1984 483.784 75.312 483.792C77.1074 483.807 78.9025 483.827 80.6978 483.853C80.6978 484.057 80.6978 484.262 80.6978 484.472C75.79 484.472 70.8822 484.472 65.8256 484.472C65.8256 498.983 65.8256 513.493 65.8256 528.444C60.8682 527.824 60.8682 527.824 60.2485 527.205C60.1773 526.006 60.1496 524.804 60.1389 523.602C60.1309 522.831 60.1229 522.06 60.1147 521.266C60.1097 520.417 60.1051 519.568 60.1009 518.718C60.0984 518.292 60.0958 517.866 60.0932 517.428C60.0803 515.171 60.0714 512.915 60.0656 510.659C60.0588 508.33 60.0375 506.001 60.0128 503.672C59.9966 501.88 59.9915 500.089 59.9892 498.297C59.9862 497.439 59.979 496.581 59.9675 495.722C59.9524 494.519 59.9545 493.315 59.9573 492.111C59.9537 491.427 59.95 490.743 59.9463 490.038C60.3184 487.76 61.1489 486.742 62.7272 485.092C64.7325 483.708 66.4353 483.707 68.8368 483.732Z" fill="#574B4B"/>
<path d="M83.7961 36.7065C86.5128 38.0641 88.2149 39.4508 89.3732 42.2803C89.8197 46.2327 89.2765 48.375 86.8945 51.5701C84.6152 53.3057 82.8265 53.5605 80.0393 53.428C77.7554 53.1157 77.0117 52.8334 75.1206 51.3766C73.1035 48.6677 72.3479 47.0404 72.4459 43.5359C72.8696 40.8222 74.4566 39.1332 76.4762 37.4032C78.9634 36.4089 81.1544 36.2874 83.7961 36.7065Z" fill="#FCFDFB"/>
<path d="M347.313 101.58C349.267 103.178 350.679 104.375 351.145 106.917C351.15 110.452 350.868 112.624 348.397 115.36C346.252 117.146 344.377 117.552 341.576 117.435C338.892 116.962 337.211 115.406 335.462 113.424C334.413 110.745 334.279 108.285 334.764 105.451C335.816 103.336 337.286 102.068 339.335 100.883C342.405 100.152 344.492 100.062 347.313 101.58Z" fill="#399F8C"/>
<path d="M112.921 68.911C115.511 70.4731 117.316 72.3093 118.498 75.1042C119 78.2596 118.013 80.1745 116.278 82.7198C115.061 84.1811 114.17 84.6574 112.301 85.0132C109.201 85.2898 107.31 85.1364 104.865 83.1553C102.772 80.7235 101.972 78.847 102.147 75.6969C102.679 73.0042 104.207 71.3174 106.259 69.6077C108.541 68.6747 110.527 68.3446 112.921 68.911Z" fill="#3AA08C"/>
<path d="M386.198 104.831C388.842 106.957 390.329 108.827 390.768 112.186C390.401 115.236 388.993 117.057 386.662 118.998C384.381 119.931 382.393 120.264 380.001 119.695C377.603 118.232 375.94 116.808 375.043 114.121C374.801 111.549 374.885 110.102 376.05 107.773C378.932 104.438 382.029 103.414 386.198 104.831Z" fill="#05D8CF"/>
<path d="M292.007 527.824C296.097 527.824 300.187 527.824 304.4 527.824C304.4 531.912 304.4 535.999 304.4 540.211C300.31 540.211 296.221 540.211 292.007 540.211C292.007 536.123 292.007 532.036 292.007 527.824Z" fill="#352829"/>
<path d="M127.948 209.07C130.417 209.522 130.839 209.737 132.402 211.547C134.449 214.602 134.59 217.692 133.99 221.263C133.581 221.876 133.172 222.489 132.75 223.121C130.969 223.43 130.969 223.43 129.032 223.121C126.238 220.488 124.817 217.16 124.501 213.366C124.768 210.592 125.154 209.661 127.948 209.07Z" fill="#4C316C"/>
<path d="M139.993 201.87C142.6 202.116 143.772 202.86 145.764 204.541C147.821 207.488 148.005 210.342 147.623 213.831C147.003 214.45 147.003 214.45 145.028 214.76C142.498 214.428 142.199 214.277 140.613 212.476C138.165 209.221 137.47 206.802 137.708 202.683C138.328 202.064 138.328 202.064 139.993 201.87Z" fill="#4C316C"/>
<path d="M296.231 524.667C297.212 524.671 298.192 524.679 299.172 524.689C299.672 524.692 300.172 524.695 300.686 524.698C301.925 524.705 303.163 524.716 304.401 524.728C304.401 525.75 304.401 526.772 304.401 527.824C300.515 527.824 296.63 527.824 292.627 527.824C293.399 524.74 293.399 524.74 296.231 524.667Z" fill="#574A4A"/>
<path d="M107.344 154.996C109.26 156.563 109.766 158.232 110.442 160.57C110.059 160.659 109.675 160.749 109.28 160.841C107.943 161.147 107.943 161.147 106.724 161.808C106.057 159.809 106.142 159.393 106.724 157.473C106.839 157.013 106.954 156.553 107.073 156.08C107.162 155.722 107.252 155.364 107.344 154.996Z" fill="#B0DC6B"/>
</svg>
