<svg width="44" height="48" viewBox="0 0 44 48" fill="none" xmlns="http://www.w3.org/2000/svg">
<path fill-rule="evenodd" clip-rule="evenodd" d="M4.78022 38.3525C0.937724 34.1275 -0.112276 28.7825 0.355224 24.0075C0.870224 18.74 3.27272 13.6875 6.40022 11.08C10.5802 7.59747 14.9702 6.16747 18.7802 5.46747C20.6358 5.15066 22.5042 4.91461 24.3802 4.75997C25.3902 4.66497 26.4127 4.56997 27.3952 4.32497C29.4652 3.80747 31.5077 2.96747 33.1902 1.63247C33.9602 1.01997 34.7402 0.399972 35.7777 0.514972C36.1507 0.556463 36.5095 0.68138 36.8276 0.880458C37.1457 1.07954 37.4149 1.34767 37.6152 1.66497C45.6152 14.3325 44.4077 27.78 37.7252 36.25C34.3877 40.4775 29.7002 43.4275 24.2327 44.3C19.4627 45.0575 14.2502 44.21 8.99772 41.46C8.53622 42.8944 8.1934 44.3644 7.97272 45.855C7.8789 46.5114 7.52817 47.1036 6.99767 47.5014C6.46718 47.8993 5.80039 48.07 5.14397 47.9762C4.48756 47.8824 3.89531 47.5317 3.4975 47.0012C3.09968 46.4707 2.9289 45.8039 3.02272 45.1475C3.33272 42.985 3.92272 40.6825 4.78022 38.3525ZM19.6802 10.385C21.4402 10.0625 23.0927 9.90747 24.6977 9.74997C26.0077 9.62497 27.3277 9.49497 28.6077 9.17497C30.7634 8.64681 32.8279 7.7991 34.7327 6.65997C40.1777 16.9525 38.6577 26.995 33.8002 33.155C31.1802 36.475 27.5777 38.705 23.4502 39.36C19.7427 39.95 15.4502 39.3 10.8752 36.795C13.6552 31.1275 18.2002 25.695 24.1177 22.7375C24.7111 22.4411 25.1625 21.9211 25.3726 21.2919C25.5826 20.6627 25.5341 19.9759 25.2377 19.3825C24.9413 18.7891 24.4214 18.3377 23.7922 18.1276C23.163 17.9176 22.4761 17.9661 21.8827 18.2625C15.3627 21.5225 10.3677 27.16 7.12022 33.1725C5.51772 30.5475 5.03772 27.495 5.33272 24.4925C5.75522 20.1725 7.73272 16.48 9.60022 14.92C12.9202 12.1525 16.4202 10.985 19.6827 10.385H19.6802Z" fill="#68A36F"/>
</svg>
