<svg width="15" height="15" viewBox="0 0 15 15" fill="none" xmlns="http://www.w3.org/2000/svg"><path d="M5 6.25V5C5 3.27438 5.77438 1.875 7.5 1.875C8.80875 1.875 9.57062 2.68 9.8625 3.82125M7.5 9.84375V9.53125M10 9.84375V9.53125M5 9.84375V9.53125M2.1875 11.125V8.25C2.1875 7.55 2.1875 7.2 2.32375 6.93313C2.44348 6.6977 2.63471 6.50625 2.87 6.38625C3.1375 6.25063 3.4875 6.25063 4.1875 6.25063H10.8125C11.5125 6.25063 11.8625 6.25063 12.13 6.38625C12.3652 6.50609 12.5564 6.69731 12.6762 6.9325C12.8125 7.2 12.8125 7.55 12.8125 8.25V11.125C12.8125 11.825 12.8125 12.175 12.6762 12.4425C12.5564 12.6777 12.3652 12.8689 12.13 12.9887C11.8625 13.125 11.5125 13.125 10.8125 13.125H4.1875C3.4875 13.125 3.1375 13.125 2.87 12.9887C2.63481 12.8689 2.44359 12.6777 2.32375 12.4425C2.1875 12.1756 2.1875 11.8256 2.1875 11.125Z" stroke="#68A36F" stroke-width="0.9375" stroke-linecap="round" stroke-linejoin="round"/></svg>
