<svg width="15" height="16" viewBox="0 0 15 16" fill="none" xmlns="http://www.w3.org/2000/svg"><path d="M6.07062 2.77499C6.43375 2.46561 6.61562 2.31061 6.80562 2.21999C7.02244 2.11639 7.2597 2.06262 7.5 2.06262C7.7403 2.06262 7.97755 2.11639 8.19437 2.21999C8.38437 2.31061 8.56625 2.46561 8.92937 2.77499C9.30375 3.09374 9.68375 3.25499 10.1837 3.29437C10.6594 3.33249 10.8975 3.35187 11.0962 3.42187C11.555 3.58437 11.9162 3.94499 12.0781 4.40437C12.1481 4.60249 12.1675 4.84061 12.2056 5.31686C12.245 5.81686 12.4056 6.19624 12.7244 6.57061C13.0344 6.93374 13.1894 7.11561 13.28 7.30561C13.49 7.74499 13.49 8.25561 13.28 8.69436C13.1894 8.88436 13.0344 9.06624 12.725 9.42936C12.4155 9.77705 12.2325 10.2191 12.2056 10.6837C12.1675 11.1594 12.1481 11.3975 12.0781 11.5962C11.998 11.8228 11.8682 12.0286 11.6982 12.1985C11.5282 12.3684 11.3223 12.4981 11.0956 12.5781C10.8975 12.6481 10.6594 12.6675 10.1831 12.7056C9.68312 12.745 9.30375 12.9056 8.92937 13.2244C8.56625 13.5344 8.38437 13.6894 8.19437 13.78C7.97755 13.8836 7.7403 13.9374 7.5 13.9374C7.2597 13.9374 7.02244 13.8836 6.80562 13.78C6.61562 13.6894 6.43375 13.5344 6.07062 13.225C5.72293 12.9155 5.28094 12.7325 4.81625 12.7056C4.34062 12.6675 4.1025 12.6481 3.90375 12.5781C3.67715 12.498 3.47135 12.3682 3.30145 12.1982C3.13155 12.0281 3.00186 11.8223 2.92187 11.5956C2.85187 11.3975 2.8325 11.1594 2.79437 10.6831C2.76756 10.2187 2.58478 9.77695 2.27562 9.42936C1.96562 9.06624 1.81062 8.88436 1.71937 8.69436C1.61587 8.4775 1.56221 8.24022 1.56232 7.99992C1.56243 7.75962 1.6163 7.52239 1.72 7.30561C1.81062 7.11561 1.96562 6.93374 2.275 6.57061C2.6 6.18874 2.75562 5.80624 2.79437 5.31624C2.8325 4.84061 2.85187 4.60249 2.92187 4.40374C3.002 4.17714 3.13183 3.97134 3.30184 3.80144C3.47184 3.63155 3.67772 3.50185 3.90437 3.42187C4.1025 3.35187 4.34062 3.33249 4.81687 3.29437C5.28128 3.26755 5.72304 3.08415 6.07062 2.77499Z" stroke="#68A36F" stroke-linecap="round" stroke-linejoin="round"/><path d="M8.7525 7.34188V6.07813C8.7525 4.42751 6.24751 4.52126 6.24751 6.07813V7.34126M5.62625 7.34126H9.37376C9.71938 7.34126 10 7.62438 10 7.97313V9.86813C10 10.2169 9.71938 10.5 9.37376 10.5H5.62625C5.54369 10.4997 5.46199 10.4831 5.38583 10.4512C5.30967 10.4193 5.24055 10.3727 5.18239 10.3141C5.12424 10.2555 5.0782 10.186 5.04691 10.1096C5.01561 10.0331 4.99968 9.95132 5 9.86876V7.97313C5 7.62438 5.28063 7.34126 5.62625 7.34126Z" stroke="#68A36F" stroke-linecap="round" stroke-linejoin="round"/>
</svg>
