<svg width="20" height="20" viewBox="0 0 20 20" fill="none" xmlns="http://www.w3.org/2000/svg"><path d="M2.50002 2.50008V1.66675H1.66669V2.50008H2.50002ZM10.2442 11.4226C10.4014 11.5744 10.6119 11.6584 10.8304 11.6565C11.0489 11.6546 11.2579 11.5669 11.4124 11.4124C11.5669 11.2579 11.6545 11.0489 11.6564 10.8304C11.6583 10.6119 11.5743 10.4014 11.4225 10.2442L10.2442 11.4226ZM3.33335 9.16675V2.50008H1.66669V9.16675H3.33335ZM2.50002 3.33341H9.16669V1.66675H2.50002V3.33341ZM1.91085 3.08925L10.2442 11.4226L11.4225 10.2442L3.08919 1.91091L1.91085 3.08925Z" fill="white"/><path d="M3.33337 12.5002C3.33337 14.0585 3.33337 14.8368 3.66837 15.4168C3.88779 15.7968 4.20336 16.1124 4.58337 16.3318C5.16337 16.6668 5.94171 16.6668 7.50004 16.6668H11.6667C14.0234 16.6668 15.2025 16.6668 15.9342 15.9343C16.6667 15.2027 16.6667 14.0235 16.6667 11.6668V7.50016C16.6667 5.94183 16.6667 5.1635 16.3317 4.5835C16.1123 4.20348 15.7967 3.88791 15.4167 3.6685C14.8367 3.3335 14.0584 3.3335 12.5 3.3335" stroke="white" stroke-width="2" stroke-linecap="round"/></svg>
    