<svg width="31" height="30" viewBox="0 0 31 30" fill="none" xmlns="http://www.w3.org/2000/svg"><path d="M22.0625 5H8.9375C6.17608 5 3.9375 7.23858 3.9375 10V20C3.9375 22.7614 6.17608 25 8.9375 25H22.0625C24.8239 25 27.0625 22.7614 27.0625 20V10C27.0625 7.23858 24.8239 5 22.0625 5Z" stroke="#68A36F" stroke-width="1.5"/><path d="M15.5 20.3125C18.0888 20.3125 20.1875 18.2138 20.1875 15.625C20.1875 13.0362 18.0888 10.9375 15.5 10.9375C12.9112 10.9375 10.8125 13.0362 10.8125 15.625C10.8125 18.2138 12.9112 20.3125 15.5 20.3125Z" stroke="#68A36F" stroke-width="1.5"/><path d="M21.75 8.75378H22.375" stroke="#68A36F" stroke-width="1.5" stroke-linecap="round"/></svg>