<svg width="60" height="60" viewBox="0 0 60 60" fill="none" xmlns="http://www.w3.org/2000/svg">
<path d="M34.9998 20C36.9554 20.0505 38.814 20.8628 40.1793 22.2639C41.5446 23.6649 42.3087 25.5437 42.3087 27.5C42.3087 29.4562 41.5446 31.3351 40.1793 32.7361C38.814 34.1372 36.9554 34.9495 34.9998 35C33.0442 34.9495 31.1857 34.1372 29.8204 32.7361C28.4551 31.3351 27.691 29.4562 27.691 27.5C27.691 25.5437 28.4551 23.6649 29.8204 22.2639C31.1857 20.8628 33.0442 20.0505 34.9998 20ZM34.9998 17.5C29.4848 17.5 24.9998 21.985 24.9998 27.5C24.9998 33.015 29.4848 37.5 34.9998 37.5C40.5148 37.5 44.9998 33.015 44.9998 27.5C44.9998 21.985 40.5148 17.5 34.9998 17.5ZM10.4873 44.185C10.4893 46.2604 11.3146 48.2502 12.7822 49.7177C14.2497 51.1852 16.2395 52.0105 18.3148 52.0125C20.2048 52.0125 22.0723 51.32 23.5748 50.055L29.5673 44.09C31.3177 44.6824 33.152 44.9896 34.9998 45C44.6498 45 52.4998 37.1475 52.4998 27.5C52.4998 17.8525 44.6498 10 34.9998 10C25.3498 10 17.4998 17.8525 17.4998 27.5C17.4998 29.4025 17.8398 31.215 18.4098 32.9325L12.7973 38.64C12.0627 39.364 11.4799 40.2274 11.0833 41.1796C10.6866 42.1318 10.484 43.1535 10.4873 44.185ZM26.6348 39.95L20.3548 46.2275C19.7888 46.7215 19.066 46.9987 18.3148 47.01C17.9434 47.0103 17.5756 46.9374 17.2324 46.7954C16.8892 46.6535 16.5774 46.4452 16.3148 46.1826C16.0521 45.92 15.8439 45.6081 15.7019 45.2649C15.5599 44.9217 15.487 44.5539 15.4873 44.1825C15.4873 43.405 15.8048 42.6975 16.3173 42.19L22.5473 35.8625C23.6348 37.475 25.0223 38.8625 26.6348 39.95ZM34.9998 40C28.1073 40 22.4998 34.3925 22.4998 27.5C22.4998 20.6075 28.1073 15 34.9998 15C41.8923 15 47.4998 20.6075 47.4998 27.5C47.4998 34.3925 41.8923 40 34.9998 40Z" fill="#68A36F"/>
</svg>
