<svg width="14" height="11" viewBox="0 0 14 11" fill="none" xmlns="http://www.w3.org/2000/svg"><path d="M2.10938 0C1.54993 0 1.01341 0.222237 0.617822 0.617822C0.222237 1.01341 0 1.54993 0 2.10938V8.20312C0 8.76257 0.222237 9.29909 0.617822 9.69468C1.01341 10.0903 1.54993 10.3125 2.10938 10.3125H11.0156C11.5751 10.3125 12.1116 10.0903 12.5072 9.69468C12.9028 9.29909 13.125 8.76257 13.125 8.20312V2.10938C13.125 1.54993 12.9028 1.01341 12.5072 0.617822C12.1116 0.222237 11.5751 0 11.0156 0H2.10938ZM12.1875 2.53266L6.5625 5.56125L0.9375 2.53266V2.10938C0.9375 1.79857 1.06097 1.5005 1.28073 1.28073C1.5005 1.06097 1.79857 0.9375 2.10938 0.9375H11.0156C11.3264 0.9375 11.6245 1.06097 11.8443 1.28073C12.064 1.5005 12.1875 1.79857 12.1875 2.10938V2.53266ZM0.9375 3.59719L6.34031 6.50672C6.4086 6.54348 6.48494 6.56272 6.5625 6.56272C6.64006 6.56272 6.7164 6.54348 6.78469 6.50672L12.1875 3.59719V8.20312C12.1875 8.51393 12.064 8.812 11.8443 9.03177C11.6245 9.25153 11.3264 9.375 11.0156 9.375H2.10938C1.79857 9.375 1.5005 9.25153 1.28073 9.03177C1.06097 8.812 0.9375 8.51393 0.9375 8.20312V3.59719Z" fill="#68A36F"/></svg>