<svg width="190" height="214" viewBox="0 0 190 214" fill="none" xmlns="http://www.w3.org/2000/svg"><path d="M99.7482 17.3607C97.2495 14.862 93.1989 14.862 90.7002 17.3607L77.5469 30.5127C75.0482 33.0114 75.0482 37.062 77.5469 39.5607C80.0455 42.0594 84.0962 42.0594 86.5949 39.5607L99.7482 26.4087C102.247 23.91 102.247 19.8594 99.7482 17.3607Z" fill="#68A36F"/><path d="M114.603 1.87397C112.104 -0.624694 108.054 -0.624694 105.555 1.87397L103.496 3.93397C100.998 6.4313 100.998 10.4833 103.496 12.9806C105.994 15.4793 110.044 15.4793 112.543 12.9806L114.603 10.922C117.102 8.42329 117.102 4.37264 114.603 1.87397Z" fill="#68A36F"/><path d="M158.894 44.766C156.395 42.2673 152.344 42.2673 149.846 44.766L136.692 57.9193C134.194 60.4166 134.194 64.4673 136.692 66.966C139.191 69.4646 143.242 69.4646 145.74 66.966L158.894 53.8126C161.392 51.3153 161.392 47.2646 158.894 44.766Z" fill="#68A36F"/><path d="M173.748 29.2794C171.25 26.7807 167.199 26.7807 164.702 29.2794L162.642 31.338C160.143 33.8367 160.143 37.8887 162.642 40.3874C165.14 42.886 169.191 42.886 171.688 40.3874L173.748 38.3274C176.247 35.8287 176.247 31.778 173.748 29.2794Z" fill="#68A36F"/><path d="M35.2016 196.225C37.7003 198.725 41.751 198.725 44.2496 196.225L57.4016 183.073C59.9003 180.574 59.9003 176.523 57.4016 174.025C54.903 171.526 50.8523 171.526 48.355 174.025L35.2016 187.177C32.703 189.675 32.703 193.726 35.2016 196.225Z" fill="#68A36F"/><path d="M20.3457 211.713C22.8443 214.212 26.8963 214.212 29.395 211.713L31.4537 209.653C33.9524 207.154 33.9524 203.104 31.4537 200.605C28.955 198.106 24.9044 198.106 22.4057 200.605L20.3457 202.665C17.847 205.164 17.847 209.214 20.3457 211.713Z" fill="#68A36F"/><path d="M158.303 1.87413C155.804 -0.624535 151.754 -0.624535 149.255 1.87413L92.7243 58.4048C90.2257 60.9035 90.2257 64.9541 92.7243 67.4528C95.223 69.9514 99.2737 69.9514 101.772 67.4528L158.303 10.9221C160.802 8.42345 160.802 4.3728 158.303 1.87413Z" fill="#68A36F"/><path d="M182.204 66.9744C179.706 64.4757 175.654 64.4757 173.156 66.9744L116.624 123.505C114.126 126.004 114.126 130.056 116.624 132.554C119.123 135.053 123.175 135.053 125.674 132.554L182.204 76.0224C184.703 73.525 184.703 69.4744 182.204 66.9744Z" fill="#68A36F"/><path d="M67.4535 17.2984C64.9548 14.7998 60.9028 14.7998 58.4042 17.2984L1.8735 73.8304C-0.6245 76.3278 -0.6245 80.3784 1.8735 82.8771C4.37217 85.3758 8.42284 85.3758 10.9215 82.8771L67.4522 26.3464C69.9508 23.8478 69.9508 19.7971 67.4535 17.2984Z" fill="#68A36F"/><path d="M155.188 136.27C152.691 133.771 148.64 133.771 146.142 136.27L89.6096 192.801C87.1109 195.299 87.1109 199.35 89.6096 201.849C92.1083 204.347 96.1589 204.346 98.6576 201.849L155.188 145.318C157.687 142.819 157.687 138.769 155.188 136.27Z" fill="#68A36F"/><path d="M188.011 130.511C185.511 128.013 181.46 128.013 178.962 130.511L122.431 187.042C119.932 189.541 119.932 193.591 122.431 196.09C124.93 198.589 128.98 198.589 131.479 196.09L188.011 139.558C190.508 137.061 190.508 133.009 188.011 130.511Z" fill="#68A36F"/><path d="M39.7615 160.346C37.2628 157.848 33.2122 157.848 30.7135 160.346L17.5615 173.5C15.0628 175.998 15.0628 180.049 17.5615 182.548C20.0602 185.046 24.1108 185.046 26.6095 182.548L39.7615 169.394C42.2602 166.896 42.2602 162.845 39.7615 160.346Z" fill="#68A36F"/><path d="M26.7882 128.577C24.2882 126.078 20.2376 126.078 17.7402 128.577L4.58689 141.729C2.08822 144.228 2.08822 148.28 4.58689 150.778C7.08556 153.277 11.1362 153.277 13.6349 150.778L26.7882 137.625C29.2869 135.126 29.2869 131.076 26.7882 128.577Z" fill="#68A36F"/><path d="M177.003 110.807C177.003 156.129 140.263 192.869 94.9416 192.869C49.6216 192.869 12.8816 156.129 12.8816 110.807C12.8816 65.4875 49.6216 28.7474 94.9416 28.7474C140.263 28.7474 177.003 65.4875 177.003 110.807Z" fill="#E8F0EB"/><path d="M77.0188 60.0436C76.8642 59.3116 76.8188 59.6662 76.4855 59.0675C76.1522 58.4675 76.2055 53.7875 76.2055 53.7875C74.6375 53.7049 72.1775 59.5116 72.1775 59.5116C72.1775 59.5116 73.0442 61.8875 75.4642 64.6182C77.8842 67.3489 79.7055 65.5502 79.7055 65.5502C79.7055 65.5502 79.3722 64.9289 78.6402 64.1076C77.9068 63.2862 77.1748 60.7769 77.0188 60.0436Z" fill="#EFC682"/><path d="M87.763 72.4556C87.371 72.1796 86.7417 72.0223 85.759 70.489C84.775 68.9556 84.6843 64.3757 84.6843 64.3757L81.9443 68.2876L82.2977 70.8423C82.2977 70.8423 85.3257 73.713 85.5217 73.7916C85.719 73.8703 88.3137 73.2423 88.3137 73.2423C88.3137 73.2423 88.1563 72.7303 87.763 72.4556Z" fill="#EFC682"/><path d="M95.0762 80.8301C93.4255 80.9088 90.0828 80.5941 89.6895 79.6501C89.2962 78.7074 86.8588 76.9381 86.6628 76.5448C86.4655 76.1514 84.9322 77.5274 86.3482 80.0834C87.7628 82.6394 89.1002 84.6194 90.6335 85.0848C92.1668 85.5488 97.0535 83.8568 97.1468 81.9301C97.1468 81.9301 96.7282 80.7514 95.0762 80.8301Z" fill="#EFC682"/><path d="M71.2681 90.3463C65.1775 90.3463 60.2388 85.4076 60.2388 79.3169C60.2388 73.2249 65.1775 68.2876 71.2681 68.2876C77.3601 68.2876 82.2975 73.2249 82.2975 79.3169C82.2975 85.4076 77.3601 90.3463 71.2681 90.3463ZM88.3135 80.0836C86.3081 77.9596 88.3135 73.2423 88.3135 73.2423C88.3135 73.2423 87.0161 73.713 84.7748 71.7076C82.5335 69.7023 84.7748 64.137 84.7748 64.137C84.7748 64.137 80.5281 67.5796 76.2148 63.097C71.9481 58.665 76.1135 53.8943 76.2055 53.7876C74.6055 53.481 72.9575 53.3063 71.2681 53.3063C56.9041 53.3063 45.2588 64.9516 45.2588 79.3169C45.2588 93.681 56.9041 105.326 71.2681 105.326C84.7508 105.326 95.8361 95.0676 97.1468 81.9303C94.4201 83.5183 90.0641 81.937 88.3135 80.0836Z" fill="#F1AC33"/><path d="M83.3988 77.8224C83.3988 71.7304 78.4601 66.7931 72.3694 66.7931C68.3961 66.7931 64.9228 68.9024 62.9814 72.0558C65.0028 69.7504 67.9614 68.2878 71.2681 68.2878C77.3601 68.2878 82.2974 73.2251 82.2974 79.3171C82.2974 81.4344 81.6908 83.4051 80.6561 85.0851C82.3588 83.1424 83.3988 80.6078 83.3988 77.8224Z" fill="#DA9327"/><path d="M72.3695 103.833C58.0055 103.833 46.3601 92.1876 46.3601 77.8223C46.3601 72.485 47.9721 67.5263 50.7308 63.397C47.3135 67.7996 45.2588 73.3116 45.2588 79.317C45.2588 93.681 56.9041 105.326 71.2681 105.326C80.1615 105.326 87.9895 100.849 92.6788 94.041C87.9135 100.002 80.5948 103.833 72.3695 103.833Z" fill="#DA9327"/><path d="M69.9762 59.2383C69.7455 59.2383 69.5588 59.4263 69.5588 59.6569V62.4223C69.5588 62.6543 69.7455 62.8409 69.9762 62.8409C70.2068 62.8409 70.3948 62.6543 70.3948 62.4223V59.6569C70.3948 59.4263 70.2068 59.2383 69.9762 59.2383Z" fill="#854C1B"/><path d="M90.5017 88.5448C90.271 88.5448 90.083 88.7314 90.083 88.9621V91.7288C90.083 91.9594 90.271 92.1461 90.5017 92.1461C90.7323 92.1461 90.9203 91.9594 90.9203 91.7288V88.9621C90.9203 88.7314 90.7323 88.5448 90.5017 88.5448Z" fill="#854C1B"/><path d="M84.4469 89.5891C84.2335 89.6771 84.1309 89.9211 84.2175 90.1358L85.2655 92.6957C85.3535 92.9091 85.5975 93.0104 85.8109 92.9237C86.0242 92.8357 86.1269 92.5918 86.0389 92.3784L84.9922 89.8184C84.9042 89.6051 84.6602 89.5024 84.4469 89.5891Z" fill="#854C1B"/><path d="M55.979 87.8966C55.7657 87.9846 55.663 88.2287 55.751 88.4433L56.7977 91.002C56.8857 91.2166 57.1297 91.3193 57.3443 91.2313C57.5577 91.1433 57.659 90.8993 57.5723 90.686L56.5243 88.126C56.4377 87.9126 56.1937 87.81 55.979 87.8966Z" fill="#854C1B"/><path d="M57.3162 59.5556C57.1028 59.6422 57.0002 59.8876 57.0882 60.1009L58.1348 62.6609C58.2228 62.8743 58.4668 62.9769 58.6802 62.8902C58.8948 62.8022 58.9962 62.5583 58.9095 62.3436L57.8615 59.7836C57.7748 59.5702 57.5308 59.4689 57.3162 59.5556Z" fill="#854C1B"/><path d="M48.4669 77.1607C48.2522 77.2487 48.1496 77.4927 48.2376 77.706L49.2856 80.266C49.3722 80.4793 49.6176 80.582 49.8309 80.494C50.0442 80.4073 50.1469 80.1633 50.0589 79.9486L49.0109 77.39C48.9242 77.1753 48.6802 77.0727 48.4669 77.1607Z" fill="#854C1B"/><path d="M72.5962 95.2314C72.3655 95.2314 72.1775 95.4194 72.1775 95.6501V98.4168C72.1775 98.6461 72.3655 98.8341 72.5962 98.8341C72.8268 98.8341 73.0148 98.6461 73.0148 98.4168V95.6501C73.0148 95.4194 72.8268 95.2314 72.5962 95.2314Z" fill="#854C1B"/><path d="M51.5217 70.1968C51.2897 70.1968 51.103 70.3834 51.103 70.6141V73.3808C51.103 73.6114 51.2897 73.7994 51.5217 73.7994C51.7524 73.7994 51.939 73.6114 51.939 73.3808V70.6141C51.939 70.3834 51.7524 70.1968 51.5217 70.1968Z" fill="#854C1B"/><path d="M57.1696 67.8569C57.011 68.0249 57.0203 68.2902 57.1896 68.4476L59.2083 70.3369C59.3776 70.4956 59.6416 70.4862 59.799 70.3182C59.9576 70.1489 59.9483 69.8849 59.7803 69.7263L57.7603 67.8369C57.5923 67.6796 57.327 67.6876 57.1696 67.8569Z" fill="#854C1B"/><path d="M83.8137 73.345C83.6563 73.513 83.6643 73.7784 83.8337 73.9357L85.8537 75.8263C86.0217 75.9837 86.287 75.9744 86.4443 75.8064C86.6016 75.6384 86.5937 75.373 86.4243 75.2157L84.4043 73.325C84.2363 73.1677 83.9723 73.1757 83.8137 73.345Z" fill="#854C1B"/><path d="M53.4203 80.6585C53.2616 80.8278 53.2709 81.0918 53.4389 81.2491L55.4589 83.1398C55.6269 83.2972 55.8923 83.2878 56.0496 83.1198C56.2069 82.9505 56.1989 82.6865 56.0309 82.5292L54.0109 80.6398C53.8429 80.4812 53.5776 80.4905 53.4203 80.6585Z" fill="#854C1B"/><path d="M66.2255 99.3729C66.0682 99.5422 66.0762 99.8062 66.2455 99.9635L68.2642 101.854C68.4335 102.012 68.6989 102.002 68.8562 101.834C69.0135 101.666 69.0055 101.401 68.8362 101.244L66.8162 99.3542C66.6482 99.1955 66.3842 99.2049 66.2255 99.3729Z" fill="#854C1B"/><path d="M60.4642 96.6462C60.3069 96.8155 60.3149 97.0808 60.4829 97.2382L62.5029 99.1275C62.6722 99.2848 62.9362 99.2768 63.0935 99.1088C63.2522 98.9395 63.2428 98.6741 63.0748 98.5168L61.0549 96.6275C60.8869 96.4701 60.6215 96.4782 60.4642 96.6462Z" fill="#854C1B"/><path d="M67.6535 94.8382C67.4962 95.0062 67.5055 95.2715 67.6735 95.4289L69.6935 97.3195C69.8615 97.4769 70.1255 97.4689 70.2842 97.2995C70.4415 97.1315 70.4322 96.8662 70.2642 96.7089L68.2442 94.8182C68.0762 94.6609 67.8122 94.6689 67.6535 94.8382Z" fill="#854C1B"/><path d="M63.2949 55.866C63.1375 56.034 63.1469 56.2994 63.3149 56.4567L65.3349 58.3474C65.5029 58.5047 65.7669 58.4967 65.9255 58.3274C66.0829 58.1594 66.0749 57.894 65.9055 57.7367L63.8855 55.8461C63.7175 55.6887 63.4535 55.6967 63.2949 55.866Z" fill="#854C1B"/><path d="M62.1177 95.0156C62.2297 95.2183 62.483 95.2916 62.6857 95.1796L65.1057 93.8423C65.3083 93.7303 65.3817 93.4756 65.2697 93.2743C65.1577 93.0716 64.903 92.9983 64.7017 93.1103L62.2803 94.4476C62.079 94.5596 62.0057 94.8143 62.1177 95.0156Z" fill="#854C1B"/><path d="M54.1188 94.105C54.2308 94.3077 54.4842 94.381 54.6868 94.269L57.1082 92.9316C57.3095 92.8196 57.3828 92.565 57.2708 92.3636C57.1602 92.161 56.9055 92.0876 56.7028 92.1983L54.2828 93.537C54.0802 93.649 54.0068 93.9037 54.1188 94.105Z" fill="#854C1B"/><path d="M80.7216 96.4207C80.8336 96.622 81.0883 96.6967 81.2896 96.5847L83.7109 95.2461C83.9123 95.1341 83.9856 94.8807 83.8736 94.678C83.7629 94.4754 83.5083 94.402 83.3056 94.514L80.8856 95.8527C80.6829 95.9634 80.6096 96.218 80.7216 96.4207Z" fill="#854C1B"/><path d="M55.747 77.3491C55.859 77.5518 56.1137 77.6251 56.3163 77.5131L58.7363 76.1758C58.939 76.0638 59.011 75.8091 58.9003 75.6078C58.7883 75.4051 58.5337 75.3318 58.3323 75.4438L55.911 76.7811C55.7083 76.8931 55.635 77.1478 55.747 77.3491Z" fill="#854C1B"/><path d="M58.7683 87.5047C58.6349 87.6941 58.6803 87.9554 58.8683 88.0874L61.1283 89.6834C61.3163 89.8167 61.5776 89.7727 61.7109 89.5834C61.8443 89.3941 61.7989 89.1341 61.6109 89.0007L59.3509 87.4047C59.1629 87.2727 58.9016 87.3167 58.7683 87.5047Z" fill="#854C1B"/><path d="M77.6495 91.9153C77.5162 92.1047 77.5615 92.3647 77.7509 92.498L80.0109 94.094C80.1989 94.226 80.4589 94.182 80.5935 93.994C80.7255 93.8047 80.6802 93.5434 80.4922 93.4114L78.2335 91.8153C78.0442 91.682 77.7829 91.726 77.6495 91.9153Z" fill="#854C1B"/><path d="M76.6868 97.425C76.5535 97.613 76.5975 97.8743 76.7868 98.0077L79.0455 99.6023C79.2348 99.7357 79.4962 99.6917 79.6282 99.5023C79.7615 99.313 79.7175 99.053 79.5282 98.9197L77.2695 97.325C77.0802 97.1917 76.8188 97.2357 76.6868 97.425Z" fill="#854C1B"/><path d="M63.0335 63.1808C63.1455 63.3834 63.4002 63.4554 63.6015 63.3448L66.0229 62.0061C66.2255 61.8941 66.2989 61.6408 66.1869 61.4381C66.0749 61.2368 65.8202 61.1634 65.6189 61.2754L63.1975 62.6128C62.9949 62.7248 62.9229 62.9781 63.0335 63.1808Z" fill="#854C1B"/><path d="M49.8895 86.6567C50.0015 86.8594 50.2561 86.9327 50.4575 86.8207L52.8788 85.4834C53.0815 85.3714 53.1548 85.1167 53.0428 84.9154C52.9308 84.7127 52.6775 84.6394 52.4748 84.7514L50.0535 86.0887C49.8508 86.2007 49.7788 86.4554 49.8895 86.6567Z" fill="#854C1B"/><path d="M84.5683 84.1234C84.6803 84.3247 84.9349 84.398 85.1363 84.286L87.5576 82.9487C87.7603 82.8367 87.8336 82.5834 87.7216 82.3807C87.6096 82.178 87.3549 82.106 87.1536 82.2167L84.7323 83.5554C84.5309 83.6674 84.4563 83.9207 84.5683 84.1234Z" fill="#854C1B"/><path d="M126.423 74.3091C126.423 74.3091 121.556 62.5077 123.342 59.821C125.127 57.1344 125.496 56.1384 126.264 56.3451C127.034 56.5517 127.694 56.9104 127.41 57.5304C127.126 58.153 124.726 59.137 124.352 60.7957C123.978 62.453 125.598 70.1437 126.683 71.8944C127.768 73.645 128.339 74.0984 128.21 74.2131C128.083 74.3277 126.423 74.3091 126.423 74.3091Z" fill="#130B0A"/><path d="M165.376 106.841C165.376 106.841 157.102 106.876 153.94 105.53C150.779 104.184 148.079 100.144 147.362 98.0729C146.646 96.0009 144.214 92.7662 143.31 90.6009C140.051 82.8022 145.45 69.1142 150.427 64.9756C150.427 64.9756 143.867 65.0489 138.918 67.0969C133.968 69.1449 131.378 73.8756 131.378 73.8756L123.968 78.7622C123.968 78.7622 107.36 86.2155 107.522 90.0889C107.522 90.0889 117.139 90.0982 120.526 91.5129C123.912 92.9289 124.674 93.6582 127.52 97.6195C130.368 101.582 134.628 112.149 135.31 115.936C135.991 119.724 131.83 125.11 131.83 125.11C131.83 125.11 137.875 125.433 145.216 122.916C152.556 120.397 160.228 116.722 160.228 116.722L165.376 106.841Z" fill="#F4FADB"/><path d="M126.404 72.669C126.404 72.669 129.078 63.8117 137.016 62.0703C144.955 60.3277 150.427 64.9757 150.427 64.9757C150.427 64.9757 143.9 66.5383 143.603 69.8997C143.304 73.261 143.424 75.2717 143.424 75.2717C143.424 75.2717 138.008 76.437 136.498 78.9303C134.987 81.4237 133.531 82.9477 131.148 83.0757C128.764 83.2037 124.596 83.5197 122.464 84.8357C120.331 86.1503 118.171 89.553 118.171 89.553C118.171 89.553 114.612 87.097 112.462 87.6677C110.314 88.237 107.522 90.089 107.522 90.089C107.522 90.089 105.971 79.3303 111.474 75.0903C119.647 68.7943 126.404 72.669 126.404 72.669Z" fill="#EF2E4E"/><path d="M131.047 125.35C131.047 125.35 140.424 131.329 144.42 129.973C146.99 129.101 147.1 126.484 151.175 125.274C155.248 124.065 157.247 123.923 159.043 122.329C160.84 120.734 166.192 113.384 165.376 106.841C165.376 106.841 162.712 111.075 160.702 111.194C158.691 111.314 155.207 112.212 155.207 112.212C155.207 112.212 153.124 115.762 151.347 116.323C149.571 116.885 146.332 115.391 145.89 115.625C145.448 115.859 146.026 118.381 143.459 120.302C140.892 122.224 139.603 121.207 138.571 121.753C137.539 122.298 137.711 123.337 136.082 123.821C134.454 124.305 131.047 125.35 131.047 125.35Z" fill="#EF2E4E"/><path d="M51.2682 127.002L42.8709 123.762C42.8709 123.762 39.6176 160.913 76.3149 175.067C112.702 189.103 132.751 158.43 132.751 158.43L124.198 155.13C124.198 155.13 117.832 161.922 112.858 164.975C105.371 169.571 85.6922 169.746 80.5576 167.774C75.4242 165.799 61.0709 148.825 61.0709 148.825L51.2682 127.002Z" fill="#D5EEB1"/><path d="M131.091 157.789C125.787 164.705 107.542 184.178 77.3002 172.514C47.3589 160.966 44.6536 133.999 44.6722 124.457L42.8709 123.762C42.8709 123.762 39.6176 160.913 76.3149 175.067C112.702 189.103 132.751 158.43 132.751 158.43L131.091 157.789Z" fill="#3FB03C"/><path d="M51.2682 127.002L85.6335 140.257C85.6335 140.257 79.6042 150.793 85.8935 156.256C92.1829 161.718 94.4455 159.554 94.4455 159.554C94.4455 159.554 95.8762 165.108 99.6576 165.494C103.439 165.881 105.091 164.374 105.091 164.374L112.858 164.976C112.858 164.976 99.9109 176.773 75.4242 165.8C49.5309 154.198 51.2682 127.002 51.2682 127.002Z" fill="#EF2E4E"/><path d="M62.9003 134.956C62.7629 134.646 61.6136 134.814 61.0856 135.077L60.9616 135.152C60.3709 135.572 60.7443 136.417 61.4536 136.26L61.5923 136.218C62.1403 136.004 63.0376 135.265 62.9003 134.956Z" fill="#130B0A"/><path d="M63.6669 145.049C63.3882 144.857 62.4975 145.606 62.1869 146.106L62.1215 146.234C61.8389 146.903 62.6015 147.425 63.1215 146.919L63.2175 146.811C63.5709 146.339 63.9469 145.238 63.6669 145.049Z" fill="#130B0A"/><path d="M73.4509 153.447C73.2482 153.177 72.1642 153.599 71.7082 153.973L71.6042 154.073C71.1216 154.615 71.6762 155.354 72.3322 155.045L72.4576 154.973C72.9442 154.641 73.6536 153.719 73.4509 153.447Z" fill="#130B0A"/><path d="M74.3001 143.371C74.0975 143.101 73.0135 143.522 72.5588 143.895L72.4548 143.995C71.9721 144.538 72.5255 145.278 73.1815 144.966L73.3081 144.894C73.7935 144.562 74.5041 143.642 74.3001 143.371Z" fill="#130B0A"/><path d="M80.4335 152.753C80.1615 152.553 79.2455 153.269 78.9175 153.758L78.8468 153.884C78.5401 154.542 79.2841 155.09 79.8228 154.604L79.9228 154.5C80.2921 154.041 80.7055 152.953 80.4335 152.753Z" fill="#130B0A"/><path d="M83.0628 161.159C82.7468 161.037 82.0521 161.969 81.8641 162.527L81.8295 162.667C81.7081 163.383 82.5695 163.717 82.9601 163.105L83.0295 162.977C83.2655 162.438 83.3775 161.281 83.0628 161.159Z" fill="#130B0A"/><path d="M91.4577 163.486C91.123 163.433 90.6363 164.489 90.567 165.073L90.563 165.218C90.5923 165.944 91.503 166.09 91.7603 165.412L91.8003 165.273C91.9203 164.696 91.791 163.541 91.4577 163.486Z" fill="#130B0A"/><path d="M94.0522 115.79C94.0522 115.79 117.056 112.997 111.891 124.105C107.976 132.526 98.9629 124.628 94.0522 115.79Z" fill="#F6D45D"/><path d="M95.0588 116.229C95.0588 116.229 112.695 125.001 113.659 125.346C114.76 125.742 114.816 125.336 114.816 125.336C114.816 125.336 115.09 125.029 114.072 124.448C113.183 123.941 95.0588 116.229 95.0588 116.229Z" fill="#3FB03C"/><path d="M29.8015 114.305C29.8015 114.305 34.1642 91.5475 43.1655 99.8568C49.9895 106.155 39.7162 112.326 29.8015 114.305Z" fill="#F6D45D"/><path d="M30.5269 113.48C30.5269 113.48 44.2629 99.3636 44.8869 98.5516C45.6002 97.6236 45.2309 97.4463 45.2309 97.4463C45.2309 97.4463 45.0229 97.0929 44.1589 97.8836C43.4029 98.5756 30.5269 113.48 30.5269 113.48Z" fill="#3FB03C"/><path d="M105.339 49.2448C105.339 49.2448 111.542 71.5714 99.7855 68.1261C90.8735 65.5141 97.3348 55.4221 105.339 49.2448Z" fill="#F6D45D"/><path d="M105.056 50.3061C105.056 50.3061 99.0202 69.0554 98.8229 70.0594C98.5962 71.2087 99.0069 71.2021 99.0069 71.2021C99.0069 71.2021 99.3495 71.4274 99.7722 70.3354C100.142 69.3794 105.056 50.3061 105.056 50.3061Z" fill="#3FB03C"/><path d="M154.519 148.789C154.519 148.789 133.356 158.229 135.023 146.093C136.287 136.892 147.224 141.789 154.519 148.789Z" fill="#F6D45D"/><path d="M153.428 148.668C153.428 148.668 133.992 145.474 132.968 145.428C131.799 145.373 131.865 145.778 131.865 145.778C131.865 145.778 131.695 146.152 132.837 146.406C133.837 146.63 153.428 148.668 153.428 148.668Z" fill="#3FB03C"/></svg>
