<svg width="249" height="285" viewBox="0 0 249 285" fill="none" xmlns="http://www.w3.org/2000/svg"><path d="M18.464 68.1974C18.464 70.8426 16.3936 72.9894 13.838 72.9894C11.2824 72.9894 9.21204 70.8447 9.21204 68.1974C9.21204 65.55 11.2824 63.4053 13.838 63.4053C16.3916 63.4053 18.464 65.5521 18.464 68.1974Z" fill="url(#paint0_linear_266_2012)"/><path d="M249 185.574C249 188.221 246.93 190.366 244.374 190.366C241.82 190.366 239.748 188.221 239.748 185.574C239.748 182.928 241.818 180.781 244.374 180.781C246.93 180.781 249 182.926 249 185.574Z" fill="url(#paint1_linear_266_2012)"/><path d="M212.567 28.8595C212.567 31.5068 210.497 33.6516 207.941 33.6516C205.386 33.6516 203.315 31.5068 203.315 28.8595C203.315 26.2121 205.386 24.0674 207.941 24.0674C210.495 24.0674 212.567 26.2142 212.567 28.8595Z" fill="url(#paint2_linear_266_2012)"/><path d="M138.128 276.888C138.128 281.368 134.622 285 130.298 285C125.974 285 122.468 281.368 122.468 276.888C122.468 272.408 125.974 268.776 130.298 268.776C134.622 268.776 138.128 272.408 138.128 276.888Z" fill="url(#paint3_linear_266_2012)"/><path d="M227.38 139.911C224.922 140.542 218.144 138.449 210.381 135.779C210.265 135.74 210.131 135.696 209.996 135.655C209.67 135.539 209.323 135.421 208.977 135.303C208.652 135.187 208.305 135.069 207.943 134.927C197.953 131.479 186.95 127.514 181.439 127.34C171.103 127.02 164.021 131.407 145.242 134.168L137.765 121.351L132.121 111.676L131.779 91.8206L142.593 87.0699L143.783 86.5486L154.903 81.6387L166.21 85.0657L169.322 86.0047C169.322 86.0047 175.667 84.1144 180.677 83.3078C182.915 82.9355 184.873 82.8093 185.892 83.163C186.083 83.2353 186.255 83.3057 186.377 83.4298C186.431 83.4794 186.482 83.5311 186.536 83.5807C186.556 83.5849 186.556 83.5849 186.572 83.6076C186.878 83.8662 187.263 84.1164 187.792 84.3688C191.324 86.1495 201.556 88.6521 238.598 95.0843C239.417 96.0956 239.774 98.1618 239.75 100.879C239.668 113.148 232.127 138.685 227.38 139.911Z" fill="url(#paint4_linear_266_2012)"/><path d="M207.941 134.925C197.951 131.477 186.948 127.512 181.437 127.338C171.101 127.018 164.019 131.405 145.24 134.166L137.763 121.349C138.865 111.291 140.62 97.0058 142.593 87.0679L154.901 81.6367L166.208 85.0638L172.726 95.5084C179.307 106.487 180.365 102.24 174.411 110.702C168.478 119.167 173.705 123.92 180.223 124.78C186.167 125.568 200.422 132.106 207.941 134.925Z" fill="url(#paint5_linear_266_2012)"/><path d="M156.197 70.183L158.757 159.016C159.094 170.718 150.207 180.488 138.911 180.838L102.989 181.948C100.056 182.039 97.2433 181.485 94.6958 180.405C87.4164 177.34 82.1934 170.054 81.9439 161.392L79.3843 72.5594C79.3663 71.8976 79.4063 71.2336 79.4662 70.5697C79.5161 70.2368 79.588 69.9245 79.6579 69.5915C79.6918 69.3826 79.7257 69.1964 79.7996 68.9875C79.8875 68.5925 80.0172 68.1954 80.145 67.819C80.1649 67.819 80.165 67.7983 80.165 67.7983C80.2947 67.4219 80.4644 67.0641 80.6321 66.7084C80.688 66.5615 80.7639 66.4353 80.8398 66.3092C81.0095 65.9514 81.2191 65.5936 81.4487 65.2565L86.458 54.7354L88.0034 51.5006L101.095 24.0717C101.113 24.0304 101.131 23.9683 101.151 23.9249L106.218 13.319L125.995 12.7068L146.376 49.693L148.105 52.8264L153.711 63.0186C154.853 64.5346 155.624 66.3319 155.997 68.2037C156.099 68.8614 156.179 69.5212 156.197 70.183Z" fill="url(#paint6_linear_266_2012)"/><path d="M94.6977 180.405C87.4183 177.34 82.1954 170.054 81.9458 161.392L79.3863 72.5592C79.3683 71.8974 79.4082 71.2334 79.4681 70.5695C79.518 70.2366 79.5899 69.9243 79.6598 69.5913C79.6937 69.3824 79.7277 69.1962 79.8015 68.9873C79.8894 68.5923 80.0192 68.1952 80.1469 67.8188C80.1669 67.8188 80.1669 67.7981 80.1669 67.7981C80.2967 67.4217 80.4664 67.0639 80.6341 66.7082C80.69 66.5613 80.7658 66.4352 80.8417 66.309C81.0114 65.9512 81.2211 65.5934 81.4507 65.2562L86.46 54.7352L88.0053 51.5004L101.097 24.0715C96.7082 34.6568 92.7331 42.9731 89.7603 51.4446C89.3709 52.5118 89.0235 53.579 88.6741 54.6648C87.1188 59.5955 85.9269 64.6813 85.2122 70.3938C84.3516 77.2686 84.176 85.0348 84.8907 94.5507C84.9846 95.7482 85.1003 96.9643 85.2161 98.2239C85.9309 105.672 86.0986 113.591 86.2104 121.616C86.47 143.063 86.2683 165.127 94.6977 180.405Z" fill="url(#paint7_linear_266_2012)"/><path d="M156.197 70.1832L158.757 159.016C159.094 170.718 150.207 180.488 138.911 180.838L137.913 180.869L135.168 85.6288L130.426 70.1108L130.074 69.0043L125.355 53.5278L124.384 50.3716L112.984 13.1062L125.995 12.7029L146.376 49.6891L148.105 52.8225L153.711 63.0147C154.853 64.5307 155.624 66.328 155.997 68.1998C156.099 68.8616 156.179 69.5214 156.197 70.1832Z" fill="url(#paint8_linear_266_2012)"/><path d="M128.393 2.9674L128.583 9.563C128.633 11.259 127.353 12.6633 125.718 12.715L106.499 13.3086C104.862 13.3582 103.506 12.0345 103.458 10.3407L103.269 3.74506C103.221 2.06979 104.497 0.644785 106.134 0.595147L125.352 0.00155885C126.988 -0.0522152 128.345 1.29213 128.393 2.9674Z" fill="url(#paint9_linear_266_2012)"/><path d="M128.393 2.9674L128.583 9.563C128.633 11.259 127.353 12.6633 125.718 12.715L113.864 13.0811C112.247 13.1307 110.892 11.807 110.842 10.1132L110.652 3.51755C110.604 1.84228 111.882 0.417278 113.497 0.36764L125.351 0.00155885C126.988 -0.0522152 128.345 1.29213 128.393 2.9674Z" fill="url(#paint10_linear_266_2012)"/><path d="M156.141 68.1978L157.617 119.405L80.8038 121.782L79.3284 70.5741L156.141 68.1978Z" fill="url(#paint11_linear_266_2012)"/><path d="M156.836 92.3232L157.617 119.405L80.8038 121.781L80.0232 94.6996L156.836 92.3232Z" fill="url(#paint12_linear_266_2012)"/><path d="M136.164 120.071L157.619 119.407L156.143 68.1951L130.298 68.9934L136.164 120.071Z" fill="url(#paint13_linear_266_2012)"/><path d="M158.293 142.865L81.4807 145.239L81.3888 142.046L158.2 139.671L158.293 142.865Z" fill="url(#paint14_linear_266_2012)"/><path d="M148.107 52.824L86.462 54.731L88.0053 51.4962L146.378 49.6907L148.107 52.824Z" fill="url(#paint15_linear_266_2012)"/><path d="M187.798 84.3047L187.788 84.3668L186.91 87.5333L181.329 107.798C165.183 97.8372 162.867 84.2799 162.867 84.2799C162.867 84.2799 154.712 87.1982 148.488 87.0762C146.755 87.0493 145.188 86.859 143.779 86.5488C140.157 85.7794 137.715 84.131 136.687 81.8311C136.475 81.3575 136.655 80.6957 137.136 79.916C137.158 79.8994 137.166 79.858 137.188 79.8415C138.36 77.9573 141.147 75.3906 144.529 73.0473C145.16 72.6047 145.817 72.1456 146.484 71.7299C149.658 69.6865 153.132 67.9429 156.147 67.1074C157.647 66.6793 159.028 66.4828 160.206 66.5862C167.631 67.1922 176.849 77.4217 185.89 83.1652C186.111 83.3058 186.333 83.4464 186.534 83.5829C186.554 83.5871 186.554 83.5871 186.57 83.6098C186.98 83.8394 187.389 84.071 187.798 84.3047Z" fill="url(#paint16_linear_266_2012)"/><path d="M144.222 77.2623C141.582 79.0988 139.388 80.6707 137.19 79.8372C138.362 77.953 141.149 75.3863 144.531 73.043C145.162 72.6004 145.819 72.1413 146.486 71.7256C146.947 72.1558 147.358 72.6397 147.514 73.0844C147.955 74.3254 147.089 75.254 144.222 77.2623Z" fill="url(#paint17_linear_266_2012)"/><path opacity="0.25" d="M239.748 100.876C230.526 96.6108 212.078 96.493 198.138 92.3069C193.728 90.9915 190.056 89.3348 186.912 87.5313C184.586 86.1952 182.539 84.7557 180.675 83.3059C176.27 79.794 172.962 76.1229 169.616 73.095C164.329 68.3319 161.514 67.0206 156.147 67.1013C157.646 66.6732 159.028 66.4767 160.206 66.5801C167.631 67.1861 176.849 77.4156 185.889 83.1591C186.081 83.2314 186.253 83.3018 186.375 83.4259C186.429 83.4755 186.48 83.5272 186.534 83.5768C186.554 83.581 186.554 83.581 186.57 83.6037C186.98 83.8374 187.389 84.0711 187.798 84.3028L187.788 84.3648C191.32 86.1456 201.552 88.6481 238.594 95.0803C239.413 96.0917 239.77 98.1579 239.748 100.876Z" fill="white"/><path d="M165.159 90.6108C167.156 99.0865 186.201 111.378 186.201 111.378C186.201 111.378 179.896 110.795 174.413 107.136C168.929 103.473 165.159 90.6108 165.159 90.6108Z" fill="url(#paint18_linear_266_2012)"/><path d="M214.837 266.775L172.201 274.634C171.512 274.76 170.846 274.326 170.656 273.629L151.601 203.272C151.385 202.472 151.881 201.653 152.671 201.508L208.816 191.158C209.606 191.014 210.345 191.605 210.407 192.432L215.951 265.28C216.009 266.001 215.526 266.649 214.837 266.775Z" fill="url(#paint19_linear_266_2012)"/><path d="M195.547 256.072L173.439 179.46C171.588 173.049 173.797 166.122 178.968 162.11L199.21 146.408" stroke="#366F40" stroke-width="2.7207" stroke-miterlimit="10" stroke-linecap="round" stroke-linejoin="round"/><path opacity="0.45" d="M214.837 266.775L172.201 274.634C171.512 274.76 170.846 274.326 170.656 273.629L151.601 203.272C151.385 202.472 151.881 201.653 152.671 201.508L208.816 191.158C209.606 191.014 210.345 191.605 210.407 192.432L215.951 265.28C216.009 266.001 215.526 266.649 214.837 266.775Z" fill="url(#paint20_linear_266_2012)"/><path d="M210.405 192.42L215.941 265.273C216.011 266.004 215.514 266.639 214.819 266.767L197.921 269.882C198.589 269.757 199.087 269.122 199.017 268.394L193.48 195.541C193.422 194.722 192.69 194.143 191.887 194.292L208.814 191.171C209.588 191.028 210.349 191.601 210.405 192.42Z" fill="url(#paint21_linear_266_2012)"/><path d="M212.723 191.965L149.269 203.663C148.387 203.826 147.598 203.086 147.686 202.155L148.095 197.307L148.562 191.677C148.622 191.065 149.055 190.529 149.67 190.416L207.937 179.675C208.552 179.561 209.163 179.907 209.397 180.463L211.737 185.576L213.735 189.979C214.101 190.825 213.605 191.801 212.723 191.965Z" fill="url(#paint22_linear_266_2012)"/><path d="M212.723 191.965L149.269 203.663C148.387 203.826 147.598 203.086 147.686 202.155L148.095 197.307L211.737 185.576L213.735 189.979C214.101 190.825 213.605 191.801 212.723 191.965Z" fill="url(#paint23_linear_266_2012)"/><path d="M172.058 254.734C170.939 255.046 169.787 254.359 169.486 253.201L160.292 217.857C159.99 216.699 160.653 215.506 161.771 215.193C162.889 214.881 164.041 215.568 164.343 216.726L173.537 252.068C173.838 253.228 173.178 254.421 172.058 254.734Z" fill="white"/><path d="M97.6066 231.675C94.1287 241.679 75.1875 243.499 70.0345 248.357C64.8814 253.213 51.7043 271.405 38.9305 268.456C34.7837 267.494 31.2518 266.256 28.3668 264.516C22.3592 260.878 19.2366 255.025 19.6739 244.878C20.3108 229.906 17.7312 205.648 15.4971 194.595C13.239 183.518 0 164.654 0 164.654C6.27911 155.409 10.2083 154.985 13.5744 155.466C16.9166 155.921 19.3624 174.567 28.0314 176.73C36.7023 178.893 45.8245 173.89 46.2637 165.746C46.703 157.626 43.0413 146.569 43.4985 144.633C43.9557 142.697 55.893 139.38 58.241 140.598C60.5889 141.816 61.4354 150.486 63.6416 159.708C64.7756 164.434 69.6432 174.862 75.2275 184.866C80.5403 194.335 86.446 203.476 90.4012 207.036C98.547 214.364 101.087 221.671 97.6066 231.675Z" fill="url(#paint24_linear_266_2012)"/><path d="M65.2848 194.831C62.859 208.345 38.4034 235.507 40.6815 238.049C42.9595 240.591 60.8644 239.724 64.005 230.252C67.1475 220.781 65.2848 194.831 65.2848 194.831Z" fill="url(#paint25_linear_266_2012)"/><path d="M97.6067 231.675C94.1287 241.679 75.1876 243.499 70.0345 248.357C64.8814 253.213 51.7043 271.406 38.9305 268.456C34.7837 267.495 31.2518 266.256 28.3668 264.516C42.5602 267.67 50.9875 265.168 56.502 257.019C63.1904 247.164 62.2999 239.693 74.7483 236.922C87.1987 234.126 90.2953 219.975 87.017 215.092C83.7627 210.184 75.6487 211.998 74.4568 205.543C73.6861 201.433 75.4711 194.19 75.2275 184.869C80.5403 194.337 86.446 203.479 90.4012 207.038C98.547 214.364 101.087 221.671 97.6067 231.675Z" fill="url(#paint26_linear_266_2012)"/><defs><linearGradient id="paint0_linear_266_2012" x1="-65.0906" y1="-54.5629" x2="282.456" y2="449.168" gradientUnits="userSpaceOnUse"><stop stop-color="white"/><stop offset="0.9944" stop-color="#89C791"/></linearGradient><linearGradient id="paint1_linear_266_2012" x1="42.3287" y1="-128.679" x2="389.88" y2="375.057" gradientUnits="userSpaceOnUse"><stop stop-color="white"/><stop offset="0.9944" stop-color="#89C791"/></linearGradient><linearGradient id="paint2_linear_266_2012" x1="86.8864" y1="-159.422" x2="434.438" y2="344.315" gradientUnits="userSpaceOnUse"><stop stop-color="white"/><stop offset="0.9944" stop-color="#89C791"/></linearGradient><linearGradient id="paint3_linear_266_2012" x1="-77.3612" y1="-46.0968" x2="270.189" y2="457.636" gradientUnits="userSpaceOnUse"><stop stop-color="white"/><stop offset="0.9944" stop-color="#89C791"/></linearGradient><linearGradient id="paint4_linear_266_2012" x1="195.215" y1="110.116" x2="65.8217" y2="129.748" gradientUnits="userSpaceOnUse"><stop offset="0.0056" stop-color="#FFB7A1"/><stop offset="1" stop-color="#ED6D4F"/></linearGradient><linearGradient id="paint5_linear_266_2012" x1="236.705" y1="99.2798" x2="63.0983" y2="125.62" gradientUnits="userSpaceOnUse"><stop offset="0.0056" stop-color="#FFB7A1"/><stop offset="1" stop-color="#ED6D4F"/></linearGradient><linearGradient id="paint6_linear_266_2012" x1="425.698" y1="200.157" x2="-29.3551" y2="60.8916" gradientUnits="userSpaceOnUse"><stop stop-color="#89C791"/><stop offset="1" stop-color="white"/></linearGradient><linearGradient id="paint7_linear_266_2012" x1="222.27" y1="99.8358" x2="52.4579" y2="102.89" gradientUnits="userSpaceOnUse"><stop stop-color="#89C791"/><stop offset="1" stop-color="white"/></linearGradient><linearGradient id="paint8_linear_266_2012" x1="244.575" y1="86.6188" x2="9.62547" y2="105.757" gradientUnits="userSpaceOnUse"><stop stop-color="#89C791"/><stop offset="1" stop-color="white"/></linearGradient><linearGradient id="paint9_linear_266_2012" x1="102.291" y1="27.6122" x2="126.12" y2="-6.51315" gradientUnits="userSpaceOnUse"><stop stop-color="#89C791"/><stop offset="1" stop-color="#68A36F"/></linearGradient><linearGradient id="paint10_linear_266_2012" x1="52.3724" y1="-38.5369" x2="136.089" y2="13.7614" gradientUnits="userSpaceOnUse"><stop stop-color="#89C791"/><stop offset="1" stop-color="#68A36F"/></linearGradient><linearGradient id="paint11_linear_266_2012" x1="59.9581" y1="115.75" x2="194.099" y2="71.4001" gradientUnits="userSpaceOnUse"><stop stop-color="#89C791"/><stop offset="1" stop-color="#68A36F"/></linearGradient><linearGradient id="paint12_linear_266_2012" x1="16.6029" y1="101.901" x2="166.356" y2="108.933" gradientUnits="userSpaceOnUse"><stop stop-color="#89C791"/><stop offset="1" stop-color="#68A36F"/></linearGradient><linearGradient id="paint13_linear_266_2012" x1="-103.706" y1="136.198" x2="212.349" y2="86.2549" gradientUnits="userSpaceOnUse"><stop stop-color="#89C791"/><stop offset="1" stop-color="#68A36F"/></linearGradient><linearGradient id="paint14_linear_266_2012" x1="307.861" y1="113.429" x2="-66.9438" y2="167.348" gradientUnits="userSpaceOnUse"><stop stop-color="#68A36F"/><stop offset="1" stop-color="white"/></linearGradient><linearGradient id="paint15_linear_266_2012" x1="267.254" y1="29.1272" x2="-32.1194" y2="72.195" gradientUnits="userSpaceOnUse"><stop stop-color="#68A36F"/><stop offset="1" stop-color="white"/></linearGradient><linearGradient id="paint16_linear_266_2012" x1="191.149" y1="83.7425" x2="61.7562" y2="103.375" gradientUnits="userSpaceOnUse"><stop offset="0.0056" stop-color="#FFB7A1"/><stop offset="1" stop-color="#ED6D4F"/></linearGradient><linearGradient id="paint17_linear_266_2012" x1="123.505" y1="75.0618" x2="257.06" y2="80.5464" gradientUnits="userSpaceOnUse"><stop offset="0.0056" stop-color="#FFB7A1"/><stop offset="1" stop-color="#ED6D4F"/></linearGradient><linearGradient id="paint18_linear_266_2012" x1="188.88" y1="80.0434" x2="165.569" y2="114.521" gradientUnits="userSpaceOnUse"><stop offset="0.0056" stop-color="#FFB7A1"/><stop offset="1" stop-color="#ED6D4F"/></linearGradient><linearGradient id="paint19_linear_266_2012" x1="241.864" y1="421.991" x2="169.503" y2="173.698" gradientUnits="userSpaceOnUse"><stop stop-color="#89C791"/><stop offset="1" stop-color="white"/></linearGradient><linearGradient id="paint20_linear_266_2012" x1="241.864" y1="421.991" x2="169.503" y2="173.698" gradientUnits="userSpaceOnUse"><stop stop-color="#89C791"/><stop offset="1" stop-color="white"/></linearGradient><linearGradient id="paint21_linear_266_2012" x1="324.921" y1="204.94" x2="129.533" y2="243.265" gradientUnits="userSpaceOnUse"><stop stop-color="#89C791"/><stop offset="1" stop-color="white"/></linearGradient><linearGradient id="paint22_linear_266_2012" x1="168.681" y1="110.94" x2="191.552" y2="261.69" gradientUnits="userSpaceOnUse"><stop stop-color="#89C791"/><stop offset="1" stop-color="white"/></linearGradient><linearGradient id="paint23_linear_266_2012" x1="186.462" y1="274.902" x2="167.174" y2="27.2383" gradientUnits="userSpaceOnUse"><stop stop-color="#89C791"/><stop offset="1" stop-color="white"/></linearGradient><linearGradient id="paint24_linear_266_2012" x1="24.729" y1="-174.411" x2="62.7746" y2="351.224" gradientUnits="userSpaceOnUse"><stop stop-color="#89C791"/><stop offset="0.9944" stop-color="#68A36F"/></linearGradient><linearGradient id="paint25_linear_266_2012" x1="-8.71982" y1="106.329" x2="66.3171" y2="231.125" gradientUnits="userSpaceOnUse"><stop stop-color="#89C791"/><stop offset="0.9944" stop-color="#68A36F"/></linearGradient><linearGradient id="paint26_linear_266_2012" x1="-19.9962" y1="160.561" x2="76.2626" y2="240.689" gradientUnits="userSpaceOnUse"><stop stop-color="#89C791"/><stop offset="0.9944" stop-color="#68A36F"/></linearGradient></defs></svg>