<svg width="60" height="60" viewBox="0 0 60 60" fill="none" xmlns="http://www.w3.org/2000/svg">
<path d="M30 56.25C15.525 56.25 3.75 44.475 3.75 30C3.75 15.525 15.525 3.75 30 3.75C44.475 3.75 56.25 15.525 56.25 30C56.25 44.475 44.475 56.25 30 56.25ZM30 7.5C17.5875 7.5 7.5 17.5875 7.5 30C7.5 42.4125 17.5875 52.5 30 52.5C42.4125 52.5 52.5 42.4125 52.5 30C52.5 17.5875 42.4125 7.5 30 7.5Z" fill="#68A36F"/>
<path d="M30 43.125C28.95 43.125 28.125 42.3 28.125 41.25V18.75C28.125 17.7 28.95 16.875 30 16.875C31.05 16.875 31.875 17.7 31.875 18.75V41.25C31.875 42.3 31.05 43.125 30 43.125Z" fill="#68A36F"/>
<path d="M41.25 31.875H18.75C17.7 31.875 16.875 31.05 16.875 30C16.875 28.95 17.7 28.125 18.75 28.125H41.25C42.3 28.125 43.125 28.95 43.125 30C43.125 31.05 42.3 31.875 41.25 31.875Z" fill="#68A36F"/>
</svg>
