<svg width="60" height="61" viewBox="0 0 60 61" fill="none" xmlns="http://www.w3.org/2000/svg"><path d="M32.8125 42.6875C32.8125 43.2438 32.6475 43.7875 32.3385 44.25C32.0295 44.7126 31.5902 45.073 31.0763 45.2859C30.5624 45.4988 29.9969 45.5545 29.4513 45.446C28.9057 45.3374 28.4046 45.0696 28.0113 44.6762C27.6179 44.2829 27.3501 43.7818 27.2415 43.2362C27.133 42.6906 27.1887 42.1251 27.4016 41.6112C27.6145 41.0973 27.9749 40.658 28.4375 40.349C28.9 40.0399 29.4437 39.875 30 39.875C30.7459 39.875 31.4613 40.1713 31.9887 40.6988C32.5162 41.2262 32.8125 41.9416 32.8125 42.6875ZM30 17.375C24.8297 17.375 20.625 21.1602 20.625 25.8125V26.75C20.625 27.2473 20.8225 27.7242 21.1742 28.0758C21.5258 28.4275 22.0027 28.625 22.5 28.625C22.9973 28.625 23.4742 28.4275 23.8258 28.0758C24.1775 27.7242 24.375 27.2473 24.375 26.75V25.8125C24.375 23.2344 26.8992 21.125 30 21.125C33.1008 21.125 35.625 23.2344 35.625 25.8125C35.625 28.3906 33.1008 30.5 30 30.5C29.5027 30.5 29.0258 30.6975 28.6742 31.0492C28.3225 31.4008 28.125 31.8777 28.125 32.375V34.25C28.125 34.7473 28.3225 35.2242 28.6742 35.5758C29.0258 35.9275 29.5027 36.125 30 36.125C30.4973 36.125 30.9742 35.9275 31.3258 35.5758C31.6775 35.2242 31.875 34.7473 31.875 34.25V34.0812C36.15 33.2961 39.375 29.8859 39.375 25.8125C39.375 21.1602 35.1703 17.375 30 17.375ZM54.375 30.5C54.375 35.3209 52.9454 40.0336 50.2671 44.042C47.5887 48.0505 43.7818 51.1747 39.3279 53.0196C34.874 54.8644 29.973 55.3472 25.2447 54.4066C20.5164 53.4661 16.1732 51.1446 12.7643 47.7357C9.35536 44.3268 7.03387 39.9836 6.09335 35.2553C5.15284 30.527 5.63555 25.626 7.48043 21.1721C9.32532 16.7181 12.4495 12.9113 16.458 10.2329C20.4664 7.55457 25.1791 6.125 30 6.125C36.4626 6.13182 42.6585 8.70209 47.2282 13.2718C51.7979 17.8415 54.3682 24.0374 54.375 30.5ZM50.625 30.5C50.625 26.4208 49.4154 22.4331 47.1491 19.0414C44.8828 15.6496 41.6616 13.006 37.8928 11.445C34.1241 9.88393 29.9771 9.47548 25.9763 10.2713C21.9754 11.0671 18.3004 13.0315 15.4159 15.9159C12.5315 18.8004 10.5671 22.4754 9.7713 26.4763C8.97548 30.4771 9.38392 34.6241 10.945 38.3928C12.506 42.1616 15.1496 45.3828 18.5414 47.6491C21.9331 49.9154 25.9208 51.125 30 51.125C35.4682 51.1188 40.7106 48.9438 44.5772 45.0772C48.4438 41.2106 50.6188 35.9682 50.625 30.5Z" fill="#68A36F"/></svg>