<svg width="20" height="20" viewBox="0 0 20 20" fill="none" xmlns="http://www.w3.org/2000/svg">
<g clip-path="url(#clip0_219_438)">
<path d="M0.666687 6.66663V3.33329C0.666687 2.62605 0.947639 1.94777 1.44774 1.44767C1.94783 0.947578 2.62611 0.666626 3.33335 0.666626H6.66669M13.3334 0.666626H16.6667C17.3739 0.666626 18.0522 0.947578 18.5523 1.44767C19.0524 1.94777 19.3334 2.62605 19.3334 3.33329V6.66663M0.666687 13.3333V16.6666C0.666687 17.3739 0.947639 18.0521 1.44774 18.5522C1.94783 19.0523 2.62611 19.3333 3.33335 19.3333H6.66669M19.3334 13.3333V16.6666C19.3334 17.3739 19.0524 18.0521 18.5523 18.5522C18.0522 19.0523 17.3739 19.3333 16.6667 19.3333H13.3334M2.66669 9.99996H17.3334" stroke="white" stroke-width="2"/>
</g>
<defs>
<clipPath id="clip0_219_438">
<rect width="20" height="20" fill="white"/>
</clipPath>
</defs>
</svg>
