 <svg width="30" height="30" viewBox="0 0 30 30" fill="none" xmlns="http://www.w3.org/2000/svg" > <path d="M6.25 18.75C6.25 13.9175 10.0275 10 14.6875 10H15.3125C19.9725 10 23.75 13.9175 23.75 18.75C23.75 23.5825 19.9725 27.5 15.3125 27.5H14.6875C10.0275 27.5 6.25 23.5825 6.25 18.75Z" stroke="#BCC6CC" stroke-width="2" stroke-linecap="round" stroke-linejoin="round" /> <path d="M13.125 16.3975C13.225 15.4163 13.885 15 14.5725 15H15.405C16.0925 15 16.7512 15.4163 16.8512 16.3975C16.8817 16.7151 16.8817 17.0349 16.8512 17.3525C16.79 17.95 16.0675 18.6363 16.0675 18.6363L15 19.375C15 19.375 13.125 20.625 13.125 21.875C13.125 22.55 13.6713 22.5 14.3463 22.5H16.8512M16.95 2.5L13.75 9.8725M22.5 2.5L18.9737 10.625M13.05 2.5L15 6.9925M7.5 2.5L11.0263 10.625" stroke="#BCC6CC" stroke-width="2" stroke-linecap="round" stroke-linejoin="round" /> </svg>