<svg width="31" height="30" viewBox="0 0 31 30" fill="none" xmlns="http://www.w3.org/2000/svg"><path d="M18.8967 8.27725L20.8622 9.37229L21.5691 8.28655L19.6036 7.19151L18.8967 8.27725ZM12.5676 21.8216L11.9602 21.4836L11.2533 22.5693L11.8607 22.9073L12.5676 21.8216ZM16.7751 19.2276L16.5486 20.1528L17.8848 20.4333L18.1113 19.5081L16.7751 19.2276ZM11.4442 17.2606L12.1611 16.6092L11.2003 15.7051L10.4843 16.3574L11.4442 17.2606ZM16.7824 9.56155L19.5516 8.3026L18.9479 7.16532L16.1787 8.42427L16.7824 9.56155ZM20.5325 8.87969L20.7882 11.8243L22.1526 11.7237L21.8978 8.77914L20.5325 8.87969ZM19.8493 8.04067L20.2384 7.39007L19.0401 6.7758L18.6501 7.42725L19.8493 8.04067ZM20.3023 7.37317L21.0147 7.77114L21.7216 6.68539L21.0092 6.28827L20.3023 7.37317ZM21.0311 7.82775L20.6156 8.52228L21.8147 9.13655L22.2303 8.44201L21.0311 7.82775ZM20.7873 11.8243L20.8001 11.973L22.1673 11.8927L22.1526 11.7237L20.7873 11.8243ZM20.2448 16.1546C20.3069 16.1039 20.3443 16.0743 20.379 16.0447L19.4566 15.1069L19.3397 15.2032L20.2448 16.1546ZM20.8001 11.9722C20.8822 13.1711 20.3799 14.3287 19.4566 15.1069L20.379 16.0447C21.6193 14.9987 22.275 13.4635 22.1673 11.8927L20.8001 11.9722ZM14.491 12.4555L14.5184 12.3093L13.1731 12.0744C13.1639 12.1183 13.1548 12.164 13.1411 12.2408L14.491 12.4555ZM16.1787 8.42427C16.1057 8.45722 16.0609 8.4775 16.0189 8.49778L16.6445 9.62492L16.7824 9.56155L16.1787 8.42427ZM14.5193 12.3093C14.7586 11.134 15.5495 10.1454 16.6445 9.62492L16.0189 8.49778C14.5339 9.2033 13.4873 10.529 13.1731 12.0744L14.5193 12.3093ZM12.1611 16.6083L12.2835 16.4959L11.3118 15.602L11.2003 15.7051L12.1611 16.6083ZM13.1402 12.24L13.1128 12.387L14.4599 12.6151C14.4691 12.5729 14.4764 12.5307 14.4901 12.4546L13.1402 12.24ZM12.2826 16.4959C13.4153 15.4351 14.1744 14.0819 14.4599 12.6143L13.1128 12.387C12.8768 13.6027 12.2496 14.7229 11.3118 15.602L12.2826 16.4959ZM18.1095 19.5073L18.146 19.3628L16.8126 19.0688L16.7742 19.2276L18.1095 19.5073ZM19.3388 15.2023L19.21 15.308L20.1269 16.2492L20.2439 16.1537L19.3388 15.2023ZM18.146 19.3628C18.4503 18.1633 19.1411 17.0775 20.1269 16.2492L19.21 15.308C18.0179 16.3081 17.1822 17.6204 16.8135 19.0696L18.146 19.3628ZM11.9593 21.4836C11.383 21.1617 10.9821 20.9378 10.6852 20.7443C10.3912 20.5533 10.2542 20.4257 10.1747 20.3167L9.03948 21.0265C9.25502 21.3222 9.5491 21.5546 9.89707 21.781C10.2423 22.0058 10.6935 22.2567 11.2524 22.5685L11.9593 21.4836ZM10.4834 16.3565C10.0149 16.7824 9.63678 17.1254 9.35639 17.4194C9.07327 17.7152 8.84494 18.0058 8.70795 18.3387L9.98748 18.7899C10.0386 18.6649 10.1427 18.5094 10.3829 18.2585C10.6241 18.005 10.9611 17.6991 11.4433 17.2598L10.4834 16.3565ZM10.1747 20.3167C10.0145 20.0942 9.91388 19.8404 9.88132 19.5747C9.84875 19.309 9.88515 19.04 9.98748 18.7899L8.70704 18.3387C8.52674 18.7787 8.46285 19.2521 8.52068 19.7195C8.57851 20.1869 8.7564 20.6356 9.03948 21.0265L10.1747 20.3167ZM11.8598 22.9065C12.4187 23.2191 12.8689 23.47 13.2443 23.6466C13.6206 23.8241 13.9813 23.9559 14.3631 23.9888L14.491 22.7273C14.3631 22.7163 14.185 22.6682 13.8654 22.5169C13.5457 22.3657 13.1439 22.1426 12.5666 21.8207L11.8598 22.9065ZM16.5477 20.152C16.3952 20.7747 16.2874 21.2107 16.1815 21.541C16.0746 21.8697 15.987 22.0353 15.902 22.1384L16.9934 22.9039C17.2254 22.6209 17.3706 22.2863 17.4939 21.9035C17.6163 21.5233 17.735 21.0375 17.8839 20.4325L16.5477 20.152ZM14.3631 23.9888C14.8652 24.031 15.3706 23.9534 15.8311 23.7635C16.2916 23.5736 16.6917 23.2776 16.9934 22.9039L15.9011 22.1384C15.7404 22.3401 15.5265 22.5001 15.2797 22.6033C15.0329 22.7064 14.7616 22.7491 14.4919 22.7273L14.3631 23.9888ZM21.0147 7.77114L21.1453 7.8438C21.1788 7.86352 21.2016 7.8776 21.2138 7.88605C21.2403 7.90295 21.2028 7.88351 21.1663 7.82944L22.3207 7.14673C22.2386 7.03296 22.1342 6.93438 22.0129 6.85607C21.9252 6.79693 21.8175 6.73778 21.7207 6.68455L21.0147 7.77114ZM22.2294 8.44032C22.2842 8.34907 22.3444 8.24852 22.3892 8.15727C22.4376 8.05926 22.4906 7.92576 22.4988 7.76353L21.1298 7.70608C21.1334 7.64186 21.1544 7.60806 21.1416 7.6351L21.1042 7.7027L21.0311 7.82775L22.2294 8.44032ZM21.1663 7.82944C21.1409 7.7927 21.1276 7.74961 21.1298 7.70608L22.4988 7.76353C22.5096 7.54586 22.4474 7.33041 22.3207 7.14673L21.1663 7.82944ZM20.2375 7.38838L20.3178 7.25657C20.3397 7.22024 20.3544 7.19911 20.3635 7.1856C20.3836 7.15771 20.3635 7.19489 20.3014 7.23291L19.547 6.17505C19.3917 6.26969 19.2913 6.38882 19.2237 6.48261C19.1607 6.56964 19.0977 6.67694 19.0392 6.77496L20.2375 7.38838ZM21.0083 6.28743C20.9051 6.22997 20.7918 6.16576 20.6895 6.11929C20.5508 6.05344 20.3993 6.01353 20.2439 6.00184L20.1617 7.26755C20.0886 7.26333 20.0502 7.24052 20.0822 7.25573C20.0968 7.26136 20.1227 7.2746 20.1598 7.29544C20.1991 7.31572 20.2429 7.34106 20.3014 7.37317L21.0083 6.28743ZM20.3014 7.23291C20.26 7.25787 20.211 7.27057 20.1617 7.26755L20.2439 6.00184C19.9974 5.98836 19.7529 6.04914 19.547 6.17505L20.3014 7.23291Z" fill="#68A36F"/><path opacity="0.5" d="M13.7521 12.8061L15.0782 12.1927C15.5002 11.9968 15.9741 11.9171 16.4436 11.9631C16.9131 12.0091 17.3585 12.1788 17.7268 12.4521C18.0485 12.6906 18.4298 12.8507 18.8357 12.9177C19.2416 12.9848 19.6592 12.9565 20.0502 12.8357L21.5152 12.3836" stroke="#68A36F" stroke-width="1.5" stroke-linecap="round"/><path d="M16 27C22.9037 27 28.5 21.4037 28.5 14.5C28.5 7.59625 22.9037 2 16 2C9.09625 2 3.5 7.59625 3.5 14.5C3.5 21.4037 9.09625 27 16 27Z" stroke="#68A36F" stroke-width="1.5" stroke-linecap="round" stroke-linejoin="round"/></svg>