<svg width="32" height="32" viewBox="0 0 32 32" fill="none" xmlns="http://www.w3.org/2000/svg">
<path d="M29 15.5C29 23.5082 22.5082 30 14.5 30C6.49185 30 0 23.5082 0 15.5C0 7.49185 6.49185 1 14.5 1C22.5082 1 29 7.49185 29 15.5ZM12.8228 23.1776L23.5809 12.4196C23.9462 12.0543 23.9462 11.4619 23.5809 11.0966L22.2579 9.77367C21.8926 9.4083 21.3003 9.4083 20.9349 9.77367L12.1613 18.5472L8.0651 14.451C7.69979 14.0857 7.10746 14.0857 6.74209 14.451L5.41914 15.774C5.05383 16.1393 5.05383 16.7316 5.41914 17.0969L11.4998 23.1776C11.8652 23.5429 12.4574 23.5429 12.8228 23.1776Z" fill="white"/>
</svg>
