<svg width="31" height="30" viewBox="0 0 31 30" fill="none" xmlns="http://www.w3.org/2000/svg"><path d="M24.25 13.75V11.25C24.25 10.587 23.9866 9.95107 23.5178 9.48223C23.0489 9.01339 22.413 8.75 21.75 8.75H11.75C11.087 8.75 10.4511 9.01339 9.98223 9.48223C9.51339 9.95107 9.25 10.587 9.25 11.25V21.25C9.25 21.913 9.51339 22.5489 9.98223 23.0178C10.4511 23.4866 11.087 23.75 11.75 23.75H14.25" stroke="#68A36F" stroke-width="1.5" stroke-linecap="round" stroke-linejoin="round"/><path d="M4.25 3.75V3.7625M9.25 3.75V3.7625M14.25 3.75V3.7625M19.25 3.75V3.7625M4.25 8.75V8.7625M4.25 13.75V13.7625M4.25 18.75V18.7625M16.75 16.25L28 20L23 22.5L20.5 27.5L16.75 16.25Z" stroke="#68A36F" stroke-width="1.5" stroke-linecap="round" stroke-linejoin="round"/></svg>