<svg width="25" height="26" viewBox="0 0 25 26" fill="none" xmlns="http://www.w3.org/2000/svg"><g clip-path="url(#clip0_547_656)"><path fill-rule="evenodd" clip-rule="evenodd" d="M6.88438 2.59687C8.44606 1.25021 10.4379 0.506466 12.5 0.5C16.7031 0.5 20.1922 3.625 20.5719 7.65469C23.0594 8.00625 25 10.0891 25 12.6453C25 15.4516 22.6594 17.6875 19.8234 17.6875H15.625C15.4178 17.6875 15.2191 17.6052 15.0726 17.4587C14.9261 17.3122 14.8438 17.1135 14.8438 16.9062C14.8438 16.699 14.9261 16.5003 15.0726 16.3538C15.2191 16.2073 15.4178 16.125 15.625 16.125H19.825C21.8422 16.125 23.4375 14.5437 23.4375 12.6453C23.4375 10.7453 21.8438 9.16406 19.8234 9.16406H19.0422V8.38281C19.0438 4.91406 16.1375 2.0625 12.5 2.0625C10.8123 2.06924 9.18256 2.6788 7.90469 3.78125C6.72188 4.8 6.10312 6.02813 6.10312 6.99219V7.69219L5.40781 7.76875C3.225 8.00781 1.5625 9.8 1.5625 11.9344C1.5625 14.2266 3.48437 16.125 5.90781 16.125H9.375C9.5822 16.125 9.78091 16.2073 9.92743 16.3538C10.0739 16.5003 10.1562 16.699 10.1562 16.9062C10.1562 17.1135 10.0739 17.3122 9.92743 17.4587C9.78091 17.6052 9.5822 17.6875 9.375 17.6875H5.90781C2.66875 17.6875 0 15.1344 0 11.9344C0 9.17969 1.97812 6.89844 4.59687 6.32031C4.82031 4.97187 5.6875 3.62812 6.88438 2.59687Z" fill="#090909" fill-opacity="0.5"/><path fill-rule="evenodd" clip-rule="evenodd" d="M11.9469 6.97806C12.0195 6.9053 12.1057 6.84758 12.2006 6.80819C12.2955 6.76881 12.3972 6.74854 12.5 6.74854C12.6028 6.74854 12.7045 6.76881 12.7994 6.80819C12.8944 6.84758 12.9806 6.9053 13.0531 6.97806L17.7406 11.6656C17.8873 11.8123 17.9697 12.0112 17.9697 12.2187C17.9697 12.4261 17.8873 12.6251 17.7406 12.7718C17.5939 12.9185 17.395 13.0009 17.1875 13.0009C16.98 13.0009 16.7811 12.9185 16.6344 12.7718L13.2813 9.41712V23.1562C13.2813 23.3634 13.199 23.5621 13.0524 23.7086C12.9059 23.8551 12.7072 23.9374 12.5 23.9374C12.2928 23.9374 12.0941 23.8551 11.9476 23.7086C11.8011 23.5621 11.7188 23.3634 11.7188 23.1562V9.41712L8.36564 12.7718C8.21894 12.9185 8.01997 13.0009 7.81251 13.0009C7.60505 13.0009 7.40608 12.9185 7.25939 12.7718C7.11269 12.6251 7.03027 12.4261 7.03027 12.2187C7.03027 12.0112 7.11269 11.8123 7.25939 11.6656L11.9469 6.97806Z" fill="#090909" fill-opacity="0.5"/></g><defs><clipPath id="clip0_547_656"><rect width="25" height="25" fill="white" transform="translate(0 0.5)"/></clipPath></defs></svg>
    