<svg width="15" height="16" viewBox="0 0 15 16" fill="none" xmlns="http://www.w3.org/2000/svg"><path fill-rule="evenodd" clip-rule="evenodd" d="M7.5 8.625C8.9975 8.625 10.3594 9.05875 11.3612 9.67C11.8612 9.975 12.2887 10.335 12.5975 10.7262C12.9012 11.1106 13.125 11.5706 13.125 12.0625C13.125 12.5906 12.8681 13.0069 12.4981 13.3038C12.1481 13.585 11.6862 13.7712 11.1956 13.9012C10.2094 14.1619 8.89313 14.25 7.5 14.25C6.10687 14.25 4.79062 14.1625 3.80437 13.9012C3.31375 13.7712 2.85187 13.585 2.50187 13.3038C2.13125 13.0063 1.875 12.5906 1.875 12.0625C1.875 11.5706 2.09875 11.1106 2.4025 10.7256C2.71125 10.335 3.13813 9.97563 3.63875 9.66937C4.64062 9.05937 6.00313 8.625 7.5 8.625ZM7.5 9.875C6.23562 9.875 5.09812 10.2437 4.29 10.7369C3.88562 10.9831 3.58063 11.2506 3.38375 11.5006C3.18125 11.7569 3.125 11.9506 3.125 12.0625C3.125 12.1388 3.14813 12.2194 3.28438 12.3288C3.44 12.4538 3.71062 12.5831 4.12437 12.6925C4.94812 12.9112 6.13188 13 7.5 13C8.86875 13 10.0519 12.9106 10.875 12.6925C11.2894 12.5831 11.56 12.4538 11.7156 12.3288C11.8519 12.2194 11.875 12.1388 11.875 12.0625C11.875 11.95 11.8188 11.7569 11.6169 11.5006C11.4194 11.2506 11.1144 10.9831 10.71 10.7369C9.90187 10.2431 8.76438 9.875 7.5 9.875ZM7.5 1.75C8.3288 1.75 9.12366 2.07924 9.70971 2.66529C10.2958 3.25134 10.625 4.0462 10.625 4.875C10.625 5.7038 10.2958 6.49866 9.70971 7.08471C9.12366 7.67076 8.3288 8 7.5 8C6.6712 8 5.87634 7.67076 5.29029 7.08471C4.70424 6.49866 4.375 5.7038 4.375 4.875C4.375 4.0462 4.70424 3.25134 5.29029 2.66529C5.87634 2.07924 6.6712 1.75 7.5 1.75ZM7.5 3C7.25377 3 7.00995 3.0485 6.78247 3.14273C6.55498 3.23695 6.34828 3.37506 6.17417 3.54917C6.00006 3.72328 5.86195 3.92998 5.76773 4.15747C5.6735 4.38495 5.625 4.62877 5.625 4.875C5.625 5.12123 5.6735 5.36505 5.76773 5.59253C5.86195 5.82002 6.00006 6.02672 6.17417 6.20083C6.34828 6.37494 6.55498 6.51305 6.78247 6.60727C7.00995 6.7015 7.25377 6.75 7.5 6.75C7.99728 6.75 8.47419 6.55246 8.82583 6.20083C9.17746 5.84919 9.375 5.37228 9.375 4.875C9.375 4.37772 9.17746 3.90081 8.82583 3.54917C8.47419 3.19754 7.99728 3 7.5 3Z" fill="#68A36F"/></svg>
