<svg width="24" height="24" viewBox="0 0 24 24" fill="none" xmlns="http://www.w3.org/2000/svg"><path d="M8.478 8.4779C8.66553 8.29042 8.91984 8.18511 9.185 8.18511C9.45016 8.18511 9.70447 8.29042 9.892 8.4779L12.046 10.6309L14.199 8.4779C14.2912 8.38239 14.4016 8.3062 14.5236 8.25379C14.6456 8.20139 14.7768 8.1738 14.9096 8.17265C15.0424 8.17149 15.1741 8.19679 15.297 8.24707C15.4199 8.29735 15.5315 8.37161 15.6254 8.4655C15.7193 8.55939 15.7935 8.67105 15.8438 8.79394C15.8941 8.91684 15.9194 9.04852 15.9183 9.1813C15.9171 9.31408 15.8895 9.4453 15.8371 9.5673C15.7847 9.6893 15.7085 9.79965 15.613 9.8919L13.46 12.0459L15.613 14.1989C15.7952 14.3875 15.896 14.6401 15.8937 14.9023C15.8914 15.1645 15.7862 15.4153 15.6008 15.6007C15.4154 15.7861 15.1646 15.8913 14.9024 15.8936C14.6402 15.8958 14.3876 15.7951 14.199 15.6129L12.046 13.4599L9.892 15.6129C9.70268 15.7907 9.45161 15.8878 9.19192 15.8838C8.93224 15.8798 8.68431 15.7749 8.50059 15.5913C8.31688 15.4077 8.2118 15.1598 8.20758 14.9002C8.20337 14.6405 8.30034 14.3893 8.478 14.1999L10.631 12.0469L8.478 9.8929C8.29053 9.70537 8.18521 9.45106 8.18521 9.1859C8.18521 8.92073 8.29053 8.66642 8.478 8.4789" fill="#C81313"/><path fill-rule="evenodd" clip-rule="evenodd" d="M12 2C6.477 2 2 6.477 2 12C2 17.523 6.477 22 12 22C17.523 22 22 17.523 22 12C22 6.477 17.523 2 12 2ZM4 12C4 9.87827 4.84285 7.84344 6.34315 6.34315C7.84344 4.84285 9.87827 4 12 4C14.1217 4 16.1566 4.84285 17.6569 6.34315C19.1571 7.84344 20 9.87827 20 12C20 14.1217 19.1571 16.1566 17.6569 17.6569C16.1566 19.1571 14.1217 20 12 20C9.87827 20 7.84344 19.1571 6.34315 17.6569C4.84285 16.1566 4 14.1217 4 12Z" fill="#C81313"/></svg>